<svg viewBox="0 0 256 256" xmlns="http://www.w3.org/2000/svg">
  <defs>
    <!-- Green Planet Energy Brand Farbe: rgb(0, 71, 67) -->
    <radialGradient id="planetCore" cx="50%" cy="40%" r="60%">
      <stop offset="0%" stop-color="rgb(0, 71, 67)"/>
      <stop offset="100%" stop-color="rgb(0, 45, 42)"/>
    </radialGradient>
    
    <!-- Energie-Blitz Gradient -->
    <linearGradient id="lightningGradient" x1="0%" y1="0%" x2="100%" y2="100%">
      <stop offset="0%" stop-color="rgb(0, 100, 95)"/>
      <stop offset="100%" stop-color="rgb(0, 71, 67)"/>
    </linearGradient>
    
    <!-- Ring Gradient -->
    <linearGradient id="ringGradient" x1="0%" y1="0%" x2="100%" y2="0%">
      <stop offset="0%" stop-color="rgb(0, 85, 80)" stop-opacity="0.6"/>
      <stop offset="50%" stop-color="rgb(0, 71, 67)" stop-opacity="0.8"/>
      <stop offset="100%" stop-color="rgb(0, 85, 80)" stop-opacity="0.6"/>
    </linearGradient>
    
    <!-- Heller Akzent für Energiepunkte -->
    <radialGradient id="energyPoint" cx="50%" cy="50%" r="50%">
      <stop offset="0%" stop-color="rgb(0, 120, 115)" stop-opacity="0.9"/>
      <stop offset="100%" stop-color="rgb(0, 71, 67)" stop-opacity="0.7"/>
    </radialGradient>
  </defs>
  
  <!-- Background -->
  <rect width="256" height="256" fill="transparent"/>
  
  <!-- Outer Energy Ring -->
  <circle cx="128" cy="128" r="115" fill="none" stroke="url(#ringGradient)" stroke-width="2" opacity="0.5"/>
  
  <!-- Inner Energy Ring -->
  <circle cx="128" cy="128" r="95" fill="none" stroke="url(#ringGradient)" stroke-width="1.5" opacity="0.3"/>
  
  <!-- Central Planet -->
  <circle cx="128" cy="128" r="65" fill="url(#planetCore)"/>
  
  <!-- Lightning bolts as energy symbols -->
  <g fill="url(#lightningGradient)" opacity="0.9">
    <!-- Main lightning bolt - top left -->
    <path d="M 70 75 L 85 75 L 75 95 L 90 95 L 70 125 L 75 105 L 65 105 L 70 75 Z"/>
    
    <!-- Lightning bolt - top right -->
    <path d="M 185 70 L 200 70 L 190 90 L 205 90 L 185 120 L 190 100 L 180 100 L 185 70 Z"/>
    
    <!-- Lightning bolt - bottom left -->
    <path d="M 75 185 L 90 185 L 80 205 L 95 205 L 75 235 L 80 215 L 70 215 L 75 185 Z"/>
    
    <!-- Lightning bolt - bottom right -->
    <path d="M 180 180 L 195 180 L 185 200 L 200 200 L 180 230 L 185 210 L 175 210 L 180 180 Z"/>
  </g>
  
  <!-- Smaller lightning accents -->
  <g fill="url(#lightningGradient)" opacity="0.7">
    <!-- Mini lightning - top -->
    <path d="M 125 45 L 135 45 L 130 55 L 140 55 L 125 70 L 128 62 L 122 62 L 125 45 Z"/>
    
    <!-- Mini lightning - bottom -->
    <path d="M 130 185 L 140 185 L 135 195 L 145 195 L 130 210 L 133 202 L 127 202 L 130 185 Z"/>
    
    <!-- Mini lightning - left -->
    <path d="M 45 125 L 55 125 L 50 135 L 60 135 L 45 150 L 48 142 L 42 142 L 45 125 Z"/>
    
    <!-- Mini lightning - right -->
    <path d="M 195 130 L 205 130 L 200 140 L 210 140 L 195 155 L 198 147 L 192 147 L 195 130 Z"/>
  </g>
  
  <!-- Planet surface details -->
  <g fill="rgb(0, 45, 42)" opacity="0.6">
    <!-- Continents/landmasses -->
    <path d="M 105 115 Q 120 108 135 118 Q 145 115 150 125 Q 148 135 138 140 Q 125 145 115 138 Q 100 130 105 115 Z"/>
    <path d="M 108 140 Q 118 136 128 142 Q 133 150 126 156 Q 116 160 108 155 Q 103 150 108 140 Z"/>
    <path d="M 140 108 Q 150 105 155 115 Q 153 125 145 128 Q 138 125 140 108 Z"/>
  </g>
  
  <!-- Energy core points with lightning theme -->
  <g fill="url(#energyPoint)">
    <circle cx="128" cy="128" r="4"/>
    <circle cx="118" cy="120" r="2"/>
    <circle cx="138" cy="136" r="2.5"/>
    <circle cx="142" cy="118" r="1.5"/>
    <circle cx="115" cy="142" r="2"/>
    <circle cx="135" cy="150" r="1.5"/>
  </g>
  
  <!-- Subtle energy emanation lines -->
  <g stroke="rgb(0, 71, 67)" stroke-width="1" fill="none" opacity="0.2">
    <circle cx="128" cy="128" r="75"/>
    <circle cx="128" cy="128" r="85"/>
  </g>
</svg>
