<svg width="48" height="48" viewBox="0 0 48 30" fill="none" xmlns="http://www.w3.org/2000/svg">
<path d="M16.4453 28.5547H0V0H16.4453V4.96094H6.0547V11.2304H15.7226V16.1914H6.0547V23.5547H16.4453V28.5547Z" fill="#005D5C"/>
<path fill-rule="evenodd" clip-rule="evenodd" d="M47.6328 14.6875C47.6328 19.4141 46.461 23.0469 44.1172 25.5859C41.7735 28.125 38.4141 29.3946 34.0391 29.3946C29.6641 29.3946 26.3047 28.125 23.961 25.5859C21.6172 23.0469 20.4453 19.4011 20.4453 14.6484C20.4453 9.89582 21.6172 6.26953 23.961 3.76953C24.2124 3.50144 24.4754 3.24765 24.7499 3.00815C26.7501 3.00677 29.2086 3.22714 31.5379 3.8889C32.5864 4.18677 33.5899 4.56775 34.5071 5.04787C34.3663 5.042 34.2233 5.03906 34.0781 5.03906C31.6693 5.03906 29.8529 5.85286 28.6289 7.48047C27.405 9.09507 26.793 11.4974 26.793 14.6875C26.793 17.8776 27.3985 20.2799 28.6094 21.8946C29.8203 23.5091 31.6302 24.3164 34.0391 24.3164C38.8698 24.3164 41.2851 21.1067 41.2851 14.6875C41.2851 13.9468 41.2533 13.2487 41.1896 12.5933C41.0817 10.5572 40.4735 8.82816 39.5425 7.37366C39.2414 6.88871 38.9006 6.44111 38.527 6.02825C37.7343 5.12711 36.8101 4.35727 35.8166 3.70731C33.4599 2.16537 30.7043 1.28817 28.3599 0.904856C30.0221 0.30162 31.9282 0 34.0781 0C38.4661 0 41.8191 1.26302 44.1367 3.78906C46.4675 6.31511 47.6328 9.9479 47.6328 14.6875Z" fill="#00847C"/>
</svg>
