<svg width="291" height="36" viewBox="0 0 291 36" fill="none" xmlns="http://www.w3.org/2000/svg">
<path d="M24.5234 35H4.78906V0.734375H24.5234V6.6875H12.0547V14.2109H23.6562V20.1641H12.0547V29H24.5234V35ZM31.6953 35V0.734375H38.9609V29H52.8594V35H31.6953Z" fill="#005D5C"/>
<path fill-rule="evenodd" clip-rule="evenodd" d="M90.8281 17.8203C90.8281 23.4922 89.4219 27.8516 86.6094 30.8984C83.7969 33.9453 79.7656 35.4688 74.5156 35.4688C69.2656 35.4688 65.2344 33.9453 62.4219 30.8984C59.6094 27.8516 58.2031 23.4766 58.2031 17.7734C58.2031 12.0703 59.6094 7.71875 62.4219 4.71875C62.7236 4.39704 63.0392 4.09249 63.3686 3.80509C65.7689 3.80344 68.7191 4.06788 71.5142 4.86199C72.7724 5.21944 73.9766 5.67661 75.0772 6.25276C74.9083 6.24571 74.7367 6.24219 74.5625 6.24219C71.6719 6.24219 69.4922 7.21875 68.0234 9.17188C66.5547 11.1094 65.8203 13.9922 65.8203 17.8203C65.8203 21.6484 66.5469 24.5312 68 26.4688C69.4531 28.4062 71.625 29.375 74.5156 29.375C80.3125 29.375 83.2109 25.5234 83.2109 17.8203C83.2109 16.9315 83.1727 16.0938 83.0963 15.3073C82.9668 12.8639 82.2369 10.7891 81.1197 9.0437C80.7584 8.46176 80.3494 7.92465 79.9011 7.42921C78.9499 6.34785 77.8409 5.42404 76.6487 4.64409C73.8206 2.79376 70.5139 1.74112 67.7006 1.28114C69.6953 0.557256 71.9826 0.195312 74.5625 0.195312C79.8281 0.195312 83.8516 1.71094 86.6328 4.74219C89.4297 7.77344 90.8281 12.1328 90.8281 17.8203ZM117.477 0.734375H124.812L113.164 35H105.242L93.6172 0.734375H100.953L107.398 21.125C107.758 22.3281 108.125 23.7344 108.5 25.3438C108.891 26.9375 109.133 28.0469 109.227 28.6719C109.398 27.2344 109.984 24.7188 110.984 21.125L117.477 0.734375ZM148.883 35H129.148V0.734375H148.883V6.6875H136.414V14.2109H148.016V20.1641H136.414V29H148.883V35ZM163.32 15.9453H165.664C167.961 15.9453 169.656 15.5625 170.75 14.7969C171.844 14.0312 172.391 12.8281 172.391 11.1875C172.391 9.5625 171.828 8.40625 170.703 7.71875C169.594 7.03125 167.867 6.6875 165.523 6.6875H163.32V15.9453ZM163.32 21.8516V35H156.055V0.734375H166.039C170.695 0.734375 174.141 1.58594 176.375 3.28906C178.609 4.97656 179.727 7.54688 179.727 11C179.727 13.0156 179.172 14.8125 178.062 16.3906C176.953 17.9531 175.383 19.1797 173.352 20.0703C178.508 27.7734 181.867 32.75 183.43 35H175.367L167.188 21.8516H163.32ZM187.742 0.734375H198.406C203.266 0.734375 206.789 1.42969 208.977 2.82031C211.18 4.19531 212.281 6.39062 212.281 9.40625C212.281 11.4531 211.797 13.1328 210.828 14.4453C209.875 15.7578 208.602 16.5469 207.008 16.8125V17.0469C209.18 17.5312 210.742 18.4375 211.695 19.7656C212.664 21.0938 213.148 22.8594 213.148 25.0625C213.148 28.1875 212.016 30.625 209.75 32.375C207.5 34.125 204.438 35 200.562 35H187.742V0.734375ZM195.008 14.3047H199.227C201.195 14.3047 202.617 14 203.492 13.3906C204.383 12.7812 204.828 11.7734 204.828 10.3672C204.828 9.05469 204.344 8.11719 203.375 7.55469C202.422 6.97656 200.906 6.6875 198.828 6.6875H195.008V14.3047ZM195.008 20.0703V29H199.742C201.742 29 203.219 28.6172 204.172 27.8516C205.125 27.0859 205.602 25.9141 205.602 24.3359C205.602 21.4922 203.57 20.0703 199.508 20.0703H195.008ZM219.992 35V0.734375H227.258V29H241.156V35H219.992ZM247.133 35V0.734375H254.398V35H247.133ZM290.586 35H282.336L273.359 20.5625L270.289 22.7656V35H263.023V0.734375H270.289V16.4141L273.148 12.3828L282.43 0.734375H290.492L278.539 15.8984L290.586 35Z" fill="#00847C"/>
</svg>
