<?xml version="1.0" encoding="UTF-8"?>
<svg id="MERX_IPC" xmlns="http://www.w3.org/2000/svg" version="1.1" viewBox="0 0 1430.35 1457.91">
  <!-- Generator: Adobe Illustrator 29.5.0, SVG Export Plug-In . SVG Version: 2.1.0 Build 137)  -->
  <path id="IPC" d="M1194.49,1177.92c-.48-5.03,2.35-9.85,2.89-14.6,5.61-49.21-23.95-88.31-54.38-123.41-46.32-53.42-98.55-103.39-147.03-154.97-118.5-126.1-230.17-269.2-394.52-337.48-72.15-29.98-163.23-51.34-241.17-37.24-127.69,23.11-215.63,133.38-250.29,252.7l-3.38-17.62c-6.26-50.79-9.74-101.87-12.11-152.89-1.4-30.05-4.61-45.79,20.52-66.46,51.17-42.1,168.69-68.07,234.24-79.76,220.38-39.3,489.39-40.21,710.56-5.1,73.67,11.69,174.03,32.88,238.34,70.66,28.13,16.53,42.13,29.41,41.37,63.71-1,45.17-4.98,94.79-9.05,139.95-11.72,130.13-45.14,251.78-88.97,374.03-7.72,21.53-24.95,75.51-43.47,87.53-1.23.8-1.99,1.24-3.54.95ZM1366.99,546.93c4.51-10.73,8.85-28.3,12.02-39.98,13.73-50.71,25.29-114.04,27.48-166.52,2.47-59.3-78-93.43-124.74-111.24-147.14-56.05-337.66-73.23-494.79-77.21-194.54-4.93-426.26,7.06-611.23,69.69-46.37,15.7-150.51,55.1-149.22,114.76.42,19.45,4.53,46.07,7.11,65.89,4.37,33.5,10.5,67.21,19.16,99.84,1.34,5.03,13.55,47.75,16.22,47.76,2.41-4.11,2.76-8.79,4.65-13.33,19.36-46.74,110.76-76.64,156.09-89.91,169.12-49.53,367.52-59.12,543.22-55.69,154.29,3.01,350.67,16.62,493.53,76.47,38.36,16.07,87.34,38.34,98.03,82.48.75.58,2.13-2.15,2.49-3ZM196.1,646.04c-138.76,189.39-91.93,499.08,78.38,654.4,114.73,104.64,267.01,111.24,373.53-8.5,164.25-184.64,124.2-520.37-54.93-681.6-126.62-113.96-295.17-103.25-396.97,35.69ZM563.2,859.72c9.82,51.75,17.06,104.04,27.27,155.72-.59,46.78-29.49,53.93-67.78,62.19-58.01,12.52-116.66,22.39-174.83,34.17-36.32.29-52.53-23.07-59.09-55.67-5.75-28.62-9.54-57.7-14.54-86.46-7.96-45.7-36.25-118.47,25.24-138.26,20.13-6.48,46.75-10.5,67.98-15.02,45.54-9.69,91.26-18.59,136.83-28.16,44.83-1.11,52.22,36.2,58.91,71.49ZM608.2,1195.72c2.95,12.01,5.36,50.08-5.36,58.07-3.62,2.7-19.55,4.73-25.17,5.83-48.83,9.58-98.28,19.46-147.69,24.32-30.82-3.34-46.7-85.6-10.05-98.05,4.18-1.42,10.77-2.69,15.32-3.68,46.23-10.03,94.57-15.48,141.02-24.98,18.93-3.62,28.38,24.07,31.92,38.49ZM754.5,676.42c-47.83-40.61-100.07-76.69-158.01-101.48,23.62,22.28,46.98,44.8,66.96,70.53,140.77,181.31,164.43,480.65,8.01,659.93-33.54,38.44-76.21,69.75-124.98,86.02-1.6,1.11-.61,1.65.63,2.39,2.81,1.68,10.95,4.17,14.6,5.4,200.26,67.98,413.33,11.93,554.3-143.27,36.55-40.24,70.94-84.35,46.17-141.2-12.08-27.72-34.9-53.63-55.17-75.83-43.29-47.4-89.86-92.32-134.03-138.97-33.64-35.54-66.51-71.87-100.07-107.43-38.41-40.69-75.61-79.77-118.41-116.09ZM1407.49,208.43c0-39.86-70.81-78.71-102.32-92.68-127.93-56.71-288.1-75.48-427.17-84.83-178.99-12.04-367.92-6.3-544.74,26.28-13.37,2.46-38.06,5.75-49.75,10.25-18.94,7.29-12.62,25.93-14.29,41.71-1.86,17.52-11.38,33.3-26,43-25.32,16.81-51.47,7.74-54.6-23.85-.77-7.78,2.07-29.3-8.86-31.22-7.22-1.27-43.02,14.06-51.62,17.99-30.17,13.77-81.62,42.5-95.5,73.5-12.57,28.09-5.73,63.43-5.65,93.35,23.85-31.4,60.76-52.03,96.54-67.46,144.67-62.41,339.56-81.05,496.51-87.49,174.22-7.15,359.77,1.65,530.49,38.42,55.04,11.86,116.48,28.73,167.32,52.68,33.99,16.01,66.87,35.28,89.64,65.86v-75.5ZM346.76,973.16c15.6,73.74,99.01,117.65,154.75,53.3,53.65-61.94,17.69-187.56-70.24-184.23-65.02,2.47-96.7,73.36-84.52,130.93ZM494.77,919.15c2.93,9.57,1.5,22.5-10.77,22.87-14.02.42-13.81-14.78-19.31-23.79-8.62-14.13-18.48-14.78-31.92-20.08-12.27-4.84-11.82-23.27.43-26.01,25.55-5.71,54.69,24.55,61.57,47.01ZM495.26,1194.2c-2.24.91-3.38,2.73-4.14,4.95,1.83,13.28,2.71,28.92,5.82,41.84,1.77,7.37,4.64,8.46,11.94,7.82,3.59-.32,26.75-5.33,28.09-6.9.5-.92.93-1.92,1.14-2.95.75-3.57-4.68-33.56-5.88-39.26-2.13-10.02-2.53-10.46-12.94-9.48-4.48.42-20.69,2.61-24.02,3.97ZM442.45,1205.39c-.87.89-1.4,2.1-1.77,3.28,1.98,13.21,3.21,28.43,6.26,41.32.6,2.53,1.43,6.9,4.24,7.75,3.03.92,32.19-4.09,34.73-5.88,2.33-1.64,1.72-4.8,1.56-7.41-.79-13.26-5.27-28.08-6.46-41.54-1.86-4.84-6.54-4.11-10.75-3.7-4.42.43-25.68,3.98-27.82,6.18ZM540.56,1192.29c.02,8.12,4.28,24.35,5.81,33.26.73,4.25-.56,13.13,5.64,14.36,3.72.74,31.04-4.19,33.57-6.39,2.71-2.36,2.08-5.7,1.79-8.97-.84-9.39-4.04-26.41-6.17-35.82-.74-3.25-1.04-7.18-4.65-8.36-5.97-1.95-26.4,5.05-33.81,5.82-.99,1.94-2.18,3.79-2.17,6.11Z"/>
</svg>