<svg width="256" height="256" xmlns="http://www.w3.org/2000/svg">
 <g>
  <title>Layer 1</title>
  <g stroke="null">

   <g stroke="null" fill="#6ec800">
    <g stroke="null">
     <path stroke="null" d="m67.22806,90.08083l13.60631,0l-11.18555,45.8739l-16.27748,0q-2.5877,-7.75436 -4.45753,-15.14636q-1.88652,-7.392 -3.556,-15.7986l-0.16695,0q-1.91991,8.40659 -3.78973,15.7986q-1.88652,7.392 -4.2238,15.14636l-16.27748,0l-11.18555,-45.8739l13.60631,0q1.25211,5.07294 2.25381,9.92848q1.00169,4.85553 1.96999,9.89949q0.95161,5.02946 1.9533,10.89958l0.16695,0q1.25211,-5.87012 2.42075,-10.89958q1.16864,-5.04396 2.42075,-9.89949q1.25211,-4.85553 2.67118,-9.92848l16.19401,0q1.91991,7.68189 3.80643,15.36377q1.86982,7.68189 3.70626,15.36377l0.16695,0q1.58601,-7.68189 3.08855,-15.36377q1.50254,-7.68189 3.08855,-15.36377zm68.69933,45.65649l0,0.21741l-14.19063,0q-0.58432,-1.73929 -1.36898,-3.98588q-0.80135,-2.24659 -1.71957,-4.78306l-18.03044,0q-1.66949,5.07294 -3.08855,8.76895l-14.19063,0l0,-0.14494l17.11223,-45.72896l18.36434,0l17.11223,45.65649m-26.46134,-37.39484q-0.83474,3.696 -2.42075,8.98636q-1.58601,5.29036 -3.33897,10.79812l11.93682,0q-1.83643,-5.50777 -3.42245,-10.79812q-1.58601,-5.29036 -2.42075,-8.98636l-0.3339,0zm66.11162,24.06025q0,-2.39153 0.25042,-4.34824l-0.16695,-0.21741q-2.33728,0.28988 -5.09193,0.40584q-2.75465,0.10146 -5.09193,0.02899l0,-9.42118l21.78679,-0.07247l0,24.64001q-3.83982,1.52188 -8.71471,2.34805q-4.89159,0.84066 -12.40428,0.84066q-10.01691,0 -15.69316,-2.34805q-5.67625,-2.36254 -8.01353,-7.60942q-2.33728,-5.26137 -2.33728,-14.03031q0,-7.10212 1.86982,-11.66777q1.88652,-4.56565 5.5093,-7.07313q3.63948,-2.49299 8.89836,-3.4641q5.25888,-0.9856 12.0203,-0.9856q4.00677,0 8.06361,0.28988q4.04015,0.28988 8.04692,1.08706l0,9.56612l-0.25042,0.14494q-3.50592,-0.72471 -6.96175,-1.01459q-3.47253,-0.28988 -6.97845,-0.28988q-5.09193,0 -8.88166,0.89864q-3.80643,0.91313 -5.89328,3.73948q-2.08686,2.82635 -2.08686,8.76895q0,5.87012 1.11856,8.95737q1.13525,3.07275 4.25719,4.1888q3.13863,1.13054 8.98183,1.13054q0.75127,0 2.33728,-0.04348q1.58601,-0.02899 3.17202,-0.10146q1.58601,-0.07247 2.25381,-0.21741l0,-4.13083zm19.19908,-9.42118q0,-8.76895 2.2872,-13.91436q2.30389,-5.14541 7.93006,-7.392q5.64286,-2.24659 15.74325,-2.24659q7.59616,0 12.60462,1.232q5.00846,1.232 7.93006,3.98588q2.9216,2.75388 4.14032,7.27605q1.20203,4.53666 1.20203,11.05902q0,6.59483 -1.20203,11.13149q-1.21872,4.52217 -4.14032,7.27605q-2.9216,2.75388 -7.93006,3.98588q-5.00846,1.232 -12.60462,1.232q-7.59616,0 -12.60462,-1.232q-5.00846,-1.232 -7.93006,-3.98588q-2.9216,-2.75388 -4.17371,-7.27605q-1.25211,-4.53666 -1.25211,-11.13149m25.9605,13.47954q5.34235,0 8.01353,-1.15953q2.67118,-1.15953 3.58939,-4.08734q0.91822,-2.94231 0.91822,-8.23266q0,-5.21788 -0.91822,-8.11671q-0.91822,-2.89882 -3.58939,-4.10184q-2.67118,-1.18852 -8.01353,-1.18852q-5.25888,0 -7.96345,1.18852q-2.72126,1.20301 -3.68956,4.10184q-0.95161,2.89882 -0.95161,8.11671q0,5.29036 0.95161,8.23266q0.9683,2.92781 3.68956,4.08734q2.70457,1.15953 7.96345,1.15953z"/>
    </g>
   </g>
  </g>
  <g stroke="null">

   <g stroke="null" fill="#636362">
    <g stroke="null" transform="translate(0 0)">
     <path stroke="null" d="m45.09695,162.15198l0,3.05587q-1.38759,0.24253 -2.71736,0.36379q-1.32977,0.12126 -3.15098,0.12126q-2.34155,0 -3.94306,-0.33954q-1.60729,-0.33954 -2.57282,-1.1981q-0.97131,-0.86341 -1.40493,-2.43985q-0.43362,-1.57644 -0.43362,-4.05024q0,-2.37679 0.43362,-3.90473q0.43362,-1.52794 1.40493,-2.36709q0.96553,-0.8343 2.57282,-1.15929q1.60151,-0.32984 3.94306,-0.32984q1.82121,0 3.15098,0.10671q1.32977,0.11156 2.71736,0.37835l0,3.15288l-0.08672,0.04851q-1.21414,-0.24253 -2.34155,-0.35409q-1.12741,-0.10671 -2.77517,-0.10671q-1.32977,0 -2.17967,0.15522q-0.85568,0.16007 -1.34712,0.62088q-0.49144,0.46081 -0.67645,1.35817q-0.19079,0.89736 -0.19079,2.40104q0,1.57644 0.19079,2.53201q0.18501,0.96042 0.67645,1.44548q0.49144,0.48506 1.34712,0.65483q0.8499,0.16977 2.17967,0.16977q1.61885,0 2.76361,-0.08731q1.13898,-0.08246 2.2953,-0.32499l0.14454,0.09701zm1.87902,-4.36553q0,-2.93461 0.79786,-4.65657q0.79208,-1.72196 2.74627,-2.4738q1.9484,-0.75184 5.44628,-0.75184q2.63063,0 4.36512,0.4123q1.73448,0.4123 2.74627,1.33391q1.01178,0.92161 1.43384,2.435q0.41628,1.51824 0.41628,3.701q0,2.20702 -0.41628,3.72525q-0.42206,1.51338 -1.43384,2.435q-1.01178,0.92161 -2.74627,1.33391q-1.73448,0.4123 -4.36512,0.4123q-2.63063,0 -4.36512,-0.4123q-1.73448,-0.4123 -2.74627,-1.33391q-1.01178,-0.92161 -1.4454,-2.435q-0.43362,-1.51824 -0.43362,-3.72525m8.99041,4.51105q1.85012,0 2.77517,-0.38805q0.92506,-0.38805 1.24305,-1.36787q0.31799,-0.98467 0.31799,-2.75514q0,-1.74621 -0.31799,-2.71633q-0.31799,-0.97012 -1.24305,-1.37272q-0.92506,-0.39775 -2.77517,-0.39775q-1.82121,0 -2.75783,0.39775q-0.9424,0.4026 -1.27195,1.37272q-0.33533,0.97012 -0.33533,2.71633q0,1.77047 0.33533,2.75514q0.32955,0.97982 1.27195,1.36787q0.93662,0.38805 2.75783,0.38805zm11.85231,3.17714l0,-15.35212l8.00753,0q2.39937,0 4.01822,0.32499q1.61885,0.32984 2.60173,1.15444q0.98287,0.8246 1.4165,2.28948q0.43362,1.46973 0.43362,3.77376q0,2.40104 -0.43362,3.92898q-0.43362,1.52794 -1.4165,2.37679q-0.98287,0.84885 -2.60173,1.17869q-1.61885,0.32499 -4.01822,0.32499l-8.00753,0m7.34265,-12.07797l-2.71736,0l0,8.80382l2.71736,0q1.67667,0 2.64798,-0.31529q0.96553,-0.31529 1.38759,-1.28541q0.41628,-0.97012 0.41628,-2.93461q0,-1.86748 -0.41628,-2.77939q-0.42206,-0.90706 -1.38759,-1.1981q-0.97131,-0.29104 -2.64798,-0.29104zm12.02576,12.07797l0,-15.35212l13.58679,0l0,3.15288l-8.9615,0l0,2.91036l7.77627,0l0,3.15288l-7.77627,0l0,2.98311l8.9615,0l0,3.15288l-13.58679,0zm15.43691,-3.95323q1.27195,0.36379 2.79252,0.57237q1.51478,0.20372 3.018,0.20372q2.05247,0 3.05269,-0.16007q0.99444,-0.15522 1.31243,-0.49476q0.31799,-0.33954 0.31799,-0.87311q0,-0.46081 -0.23126,-0.72759q-0.23126,-0.26678 -0.89615,-0.422q-0.66489,-0.16007 -1.96575,-0.25708l-1.90793,-0.14552q-2.1392,-0.16977 -3.3649,-0.75184q-1.23148,-0.58207 -1.73448,-1.56189q-0.50878,-0.98467 -0.50878,-2.36709q0,-1.6492 0.79786,-2.66783q0.79208,-1.01862 2.58438,-1.49398q1.7923,-0.47051 4.76983,-0.47051q3.87368,0 6.38868,0.84885l-0.08672,3.2984l-0.08672,0.09701q-2.8619,-0.84885 -5.98397,-0.84885q-1.50322,0 -2.31265,0.13097q-0.80943,0.13582 -1.12741,0.42685q-0.31799,0.29104 -0.31799,0.8246q0,0.53357 0.2197,0.80035q0.21392,0.26678 0.87881,0.39775q0.66489,0.13582 1.93684,0.25708l1.82121,0.16977q2.31265,0.21828 3.55569,0.77609q1.24305,0.55782 1.72292,1.49398q0.47409,0.93131 0.47409,2.26523q0,1.62495 -0.82099,2.70663q-0.82677,1.07683 -2.67689,1.6104q-1.85012,0.53357 -4.94328,0.53357q-2.02356,0 -3.64242,-0.17947q-1.61885,-0.18432 -3.15098,-0.49961l0,-3.41967l0.11563,-0.07276zm22.2014,3.95323l0,-4.75358l-5.92615,-10.52578l0,-0.07276l5.05891,0q0.89615,1.96449 1.42806,3.14318q0.53769,1.17384 0.84412,1.83837q0.30064,0.66938 0.47409,1.08168q0.17345,0.4123 0.3758,0.87311l0.11563,0q0.20236,-0.46081 0.3758,-0.87311q0.17345,-0.4123 0.47409,-1.08168q0.30643,-0.66453 0.84412,-1.83837q0.53191,-1.17869 1.42806,-3.14318l5.05891,0l0,0.07276l-5.92615,10.52578l0,4.75358l-4.62529,0zm11.8234,-3.95323q1.27195,0.36379 2.79252,0.57237q1.51478,0.20372 3.018,0.20372q2.05247,0 3.05269,-0.16007q0.99444,-0.15522 1.31243,-0.49476q0.31799,-0.33954 0.31799,-0.87311q0,-0.46081 -0.23126,-0.72759q-0.23126,-0.26678 -0.89615,-0.422q-0.66489,-0.16007 -1.96575,-0.25708l-1.90793,-0.14552q-2.1392,-0.16977 -3.3649,-0.75184q-1.23148,-0.58207 -1.73448,-1.56189q-0.50878,-0.98467 -0.50878,-2.36709q0,-1.6492 0.79786,-2.66783q0.79208,-1.01862 2.58438,-1.49398q1.7923,-0.47051 4.76983,-0.47051q3.87368,0 6.38868,0.84885l-0.08672,3.2984l-0.08672,0.09701q-2.8619,-0.84885 -5.98397,-0.84885q-1.50322,0 -2.31265,0.13097q-0.80943,0.13582 -1.12741,0.42685q-0.31799,0.29104 -0.31799,0.8246q0,0.53357 0.2197,0.80035q0.21392,0.26678 0.87881,0.39775q0.66489,0.13582 1.93684,0.25708l1.82121,0.16977q2.31265,0.21828 3.55569,0.77609q1.24305,0.55782 1.72292,1.49398q0.47409,0.93131 0.47409,2.26523q0,1.62495 -0.82099,2.70663q-0.82677,1.07683 -2.67689,1.6104q-1.85012,0.53357 -4.94328,0.53357q-2.02356,0 -3.64242,-0.17947q-1.61885,-0.18432 -3.15098,-0.49961l0,-3.41967l0.11563,-0.07276zm43.3621,-11.37464l-5.69489,15.32787l-6.35977,0l-5.40581,-15.32787l5.17454,0q0.46253,1.21265 0.98287,2.76484q0.52035,1.55219 1.02335,3.16259q0.50878,1.61525 0.89615,3.01222q0.39315,1.39212 0.59551,2.31373l0.11563,0q0.20236,-0.92161 0.58972,-2.31373q0.39315,-1.39697 0.90193,-2.99767q0.503,-1.6007 1.02335,-3.15288q0.52035,-1.55219 0.98287,-2.78909l5.17454,0zm2.1392,4.70507l0,-3.17714q1.01178,-0.53357 2.65954,-0.87311q1.64776,-0.33954 3.5846,-0.33954q3.09316,0 4.96062,1.01862q1.86168,1.01862 1.86168,3.44392q0,1.91598 -1.05225,3.07042q-1.05804,1.14959 -3.71758,1.99844q-2.57282,0.8246 -3.53835,1.39697q-0.97131,0.56752 -0.97131,1.12534l9.42403,0l0,3.08013l-13.70242,0l0,-2.71633q0,-1.2369 0.50878,-2.11001q0.503,-0.87311 1.74605,-1.6007q1.24305,-0.72759 3.44006,-1.50368q1.64776,-0.58207 2.59016,-1.12534q0.93662,-0.54812 0.90771,-1.32421q-0.02891,-0.92161 -0.82099,-1.29996q-0.79786,-0.3735 -2.24327,-0.3735q-1.38759,0 -2.83299,0.39775q-1.4454,0.4026 -2.54391,0.91191l-0.26017,0zm20.38019,7.17888q0.05782,0.53357 0.08672,0.91191q0.02891,0.3735 0.02891,0.7858q0,0.38805 -0.02891,0.79065q-0.02891,0.39775 -0.08672,0.90706q-0.7227,0.09701 -1.4454,0.16977q-0.7227,0.07276 -1.4454,0.07276q-0.69379,0 -1.38759,-0.07276q-0.69379,-0.07276 -1.4165,-0.16977q-0.08672,-0.48506 -0.11563,-0.88281q-0.02891,-0.4026 -0.02891,-0.79065q0,-0.36379 0.02891,-0.77609q0.02891,-0.4123 0.11563,-0.94587q1.4454,-0.21828 2.8619,-0.21828q1.4165,0 2.83299,0.21828zm2.89081,-11.01084q1.27195,-0.33954 2.6422,-0.47536q1.37602,-0.13097 2.96597,-0.13097q2.48609,0 3.9315,0.39775q1.4454,0.4026 2.06404,1.2272q0.62441,0.8246 0.62441,2.08575q0,1.47943 -0.83833,2.4835q-0.83833,1.00892 -2.89081,1.2272l0,0.12126q2.1392,0.09701 3.05269,0.99437q0.90771,0.89736 0.90771,2.20702q0,2.18277 -1.72292,3.28385q-1.71714,1.10593 -5.5041,1.17869q-1.93684,0.02425 -3.41115,-0.16977q-1.47431,-0.19402 -2.68845,-0.53357l0,-3.03162l0.17345,0q1.15632,0.31529 2.34155,0.46081q1.18523,0.14552 2.68845,0.14552q2.02356,0 2.91971,-0.36379q0.89615,-0.36379 0.89615,-1.26115q0,-0.8246 -0.68223,-1.12534q-0.67645,-0.30559 -2.49766,-0.30559l-2.31265,0l0,-3.12863l1.93684,0q2.08138,0 2.81565,-0.30559q0.74005,-0.30074 0.74005,-1.10108q0,-0.8246 -0.82677,-1.09138q-0.82099,-0.26678 -2.87346,-0.26678q-1.12741,0 -2.27217,0.14552q-1.13898,0.14552 -2.06404,0.38805l-0.11563,-0.02425l0,-3.03162zm19.91766,11.01084q0.05782,0.53357 0.08672,0.91191q0.02891,0.3735 0.02891,0.7858q0,0.38805 -0.02891,0.79065q-0.02891,0.39775 -0.08672,0.90706q-0.7227,0.09701 -1.4454,0.16977q-0.7227,0.07276 -1.4454,0.07276q-0.69379,0 -1.38759,-0.07276q-0.69379,-0.07276 -1.4165,-0.16977q-0.08672,-0.48506 -0.11563,-0.88281q-0.02891,-0.4026 -0.02891,-0.79065q0,-0.36379 0.02891,-0.77609q0.02891,-0.4123 0.11563,-0.94587q1.4454,-0.21828 2.8619,-0.21828q1.4165,0 2.83299,0.21828z"/>
    </g>
   </g>
  </g>
 </g>

</svg>