<svg width="512" height="128" xmlns="http://www.w3.org/2000/svg">
 <g>
  <title>Layer 1</title>
  <g stroke="null">

   <g stroke="null" fill="#6ec800">
    <g stroke="null">
     <path stroke="null" d="m112.73616,15.9151l23.76404,0l-19.53608,94.49131l-28.42937,0q-4.51954,-15.97246 -7.78527,-31.19855q-3.29489,-15.22609 -6.21072,-32.54203l-0.29158,0q-3.35321,17.31594 -6.61894,32.54203q-3.29489,15.22609 -7.37706,31.19855l-28.42937,0l-19.53608,-94.49131l23.76404,0q2.18687,10.44928 3.93637,20.45072q1.7495,10.00145 3.44068,20.39101q1.66202,10.35971 3.41152,22.45101l0.29158,0q2.18687,-12.0913 4.22796,-22.45101q2.04108,-10.38957 4.22796,-20.39101q2.18687,-10.00145 4.66533,-20.45072l28.28358,0q3.35321,15.82319 6.6481,31.64638q3.26573,15.82319 6.47315,31.64638l0.29158,0q2.77004,-15.82319 5.39429,-31.64638q2.62425,-15.82319 5.39429,-31.64638zm119.98653,94.04348l0,0.44783l-24.78458,0q-1.02054,-3.58261 -2.39098,-8.21015q-1.3996,-4.62754 -3.00331,-9.85217l-31.491,0q-2.91583,10.44928 -5.39429,18.06232l-24.78458,0l0,-0.29855l29.88729,-94.19275l32.07416,0l29.88729,94.04348m-46.21595,-77.02609q-1.45792,7.61304 -4.22796,18.51015q-2.77004,10.8971 -5.83167,22.24203l20.84821,0q-3.20742,-11.34493 -5.97746,-22.24203q-2.77004,-10.8971 -4.22796,-18.51015l-0.58317,0zm115.46699,49.55942q0,-4.92609 0.43737,-8.95652l-0.29158,-0.44783q-4.08217,0.5971 -8.89329,0.83594q-4.81112,0.20899 -8.89329,0.05971l0,-19.4058l38.05162,-0.14928l0,50.75362q-6.70642,3.13478 -15.22065,4.83652q-8.54339,1.73159 -21.66464,1.73159q-17.495,0 -27.40883,-4.83652q-9.91383,-4.86638 -13.996,-15.67391q-4.08217,-10.83739 -4.08217,-28.89971q0,-14.62899 3.26573,-24.03333q3.29489,-9.40435 9.62225,-14.56928q6.35652,-5.13507 15.54139,-7.13536q9.18487,-2.03014 20.994,-2.03014q6.998,0 14.08347,0.5971q7.05632,0.5971 14.05432,2.23913l0,19.70435l-0.43737,0.29855q-6.12325,-1.49275 -12.15902,-2.08986q-6.06493,-0.5971 -12.18818,-0.5971q-8.89329,0 -15.51223,1.85101q-6.6481,1.88087 -10.29289,7.70261q-3.64479,5.82174 -3.64479,18.06232q0,12.0913 1.95361,18.45043q1.98277,6.32928 7.43537,8.62812q5.48177,2.3287 15.68718,2.3287q1.31212,0 4.08217,-0.08957q2.77004,-0.05971 5.54008,-0.20899q2.77004,-0.14928 3.93637,-0.44783l0,-8.5087zm33.53208,-19.4058q0,-18.06232 3.99469,-28.66087q4.02385,-10.59855 13.85021,-15.22609q9.85552,-4.62754 27.49631,-4.62754q13.26704,0 22.01454,2.53768q8.7475,2.53768 13.85021,8.21015q5.10271,5.67246 7.23127,14.98725q2.0994,9.34464 2.0994,22.77942q0,13.58406 -2.0994,22.9287q-2.12856,9.31478 -7.23127,14.98725q-5.10271,5.67246 -13.85021,8.21015q-8.7475,2.53768 -22.01454,2.53768q-13.26704,0 -22.01454,-2.53768q-8.7475,-2.53768 -13.85021,-8.21015q-5.10271,-5.67246 -7.28958,-14.98725q-2.18687,-9.34464 -2.18687,-22.9287m45.3412,27.76522q9.33067,0 13.996,-2.38841q4.66533,-2.38841 6.26904,-8.41913q1.60371,-6.06058 1.60371,-16.95768q0,-10.74783 -1.60371,-16.71884q-1.60371,-5.97101 -6.26904,-8.44899q-4.66533,-2.44812 -13.996,-2.44812q-9.18487,0 -13.90852,2.44812q-4.75281,2.47797 -6.44399,8.44899q-1.66202,5.97101 -1.66202,16.71884q0,10.8971 1.66202,16.95768q1.69118,6.03072 6.44399,8.41913q4.72365,2.38841 13.90852,2.38841z"/>
    </g>
   </g>
  </g>
  <g stroke="null">

   <g stroke="null" fill="#636362">
    <g stroke="null" transform="translate(0 0)">
     <path stroke="null" d="m326.23917,116.72351l0,3.05587q-1.38759,0.24253 -2.71736,0.36379q-1.32977,0.12126 -3.15098,0.12126q-2.34155,0 -3.94306,-0.33954q-1.60729,-0.33954 -2.57282,-1.1981q-0.97131,-0.86341 -1.40493,-2.43985q-0.43362,-1.57644 -0.43362,-4.05024q0,-2.37679 0.43362,-3.90473q0.43362,-1.52794 1.40493,-2.36709q0.96553,-0.8343 2.57282,-1.15929q1.60151,-0.32984 3.94306,-0.32984q1.82121,0 3.15098,0.10671q1.32977,0.11156 2.71736,0.37835l0,3.15288l-0.08672,0.04851q-1.21414,-0.24253 -2.34155,-0.35409q-1.12741,-0.10671 -2.77517,-0.10671q-1.32977,0 -2.17967,0.15522q-0.85568,0.16007 -1.34712,0.62088q-0.49144,0.46081 -0.67645,1.35817q-0.19079,0.89736 -0.19079,2.40104q0,1.57644 0.19079,2.53201q0.18501,0.96042 0.67645,1.44548q0.49144,0.48506 1.34712,0.65483q0.8499,0.16977 2.17967,0.16977q1.61885,0 2.76361,-0.08731q1.13898,-0.08246 2.2953,-0.32499l0.14454,0.09701zm1.87902,-4.36553q0,-2.93461 0.79786,-4.65657q0.79208,-1.72196 2.74627,-2.4738q1.9484,-0.75184 5.44628,-0.75184q2.63063,0 4.36512,0.4123q1.73448,0.4123 2.74627,1.33391q1.01178,0.92161 1.43384,2.435q0.41628,1.51824 0.41628,3.701q0,2.20702 -0.41628,3.72525q-0.42206,1.51338 -1.43384,2.435q-1.01178,0.92161 -2.74627,1.33391q-1.73448,0.4123 -4.36512,0.4123q-2.63063,0 -4.36512,-0.4123q-1.73448,-0.4123 -2.74627,-1.33391q-1.01178,-0.92161 -1.4454,-2.435q-0.43362,-1.51824 -0.43362,-3.72525m8.99041,4.51105q1.85012,0 2.77517,-0.38805q0.92506,-0.38805 1.24305,-1.36787q0.31799,-0.98467 0.31799,-2.75514q0,-1.74621 -0.31799,-2.71633q-0.31799,-0.97012 -1.24305,-1.37272q-0.92506,-0.39775 -2.77517,-0.39775q-1.82121,0 -2.75783,0.39775q-0.9424,0.4026 -1.27195,1.37272q-0.33533,0.97012 -0.33533,2.71633q0,1.77047 0.33533,2.75514q0.32955,0.97982 1.27195,1.36787q0.93662,0.38805 2.75783,0.38805zm11.85231,3.17714l0,-15.35212l8.00753,0q2.39937,0 4.01822,0.32499q1.61885,0.32984 2.60173,1.15444q0.98287,0.8246 1.4165,2.28948q0.43362,1.46973 0.43362,3.77376q0,2.40104 -0.43362,3.92898q-0.43362,1.52794 -1.4165,2.37679q-0.98287,0.84885 -2.60173,1.17869q-1.61885,0.32499 -4.01822,0.32499l-8.00753,0m7.34265,-12.07797l-2.71736,0l0,8.80382l2.71736,0q1.67667,0 2.64798,-0.31529q0.96553,-0.31529 1.38759,-1.28541q0.41628,-0.97012 0.41628,-2.93461q0,-1.86748 -0.41628,-2.77939q-0.42206,-0.90706 -1.38759,-1.1981q-0.97131,-0.29104 -2.64798,-0.29104zm12.02576,12.07797l0,-15.35212l13.58679,0l0,3.15288l-8.9615,0l0,2.91036l7.77627,0l0,3.15288l-7.77627,0l0,2.98311l8.9615,0l0,3.15288l-13.58679,0zm15.43691,-3.95323q1.27195,0.36379 2.79252,0.57237q1.51478,0.20372 3.018,0.20372q2.05247,0 3.05269,-0.16007q0.99444,-0.15522 1.31243,-0.49476q0.31799,-0.33954 0.31799,-0.87311q0,-0.46081 -0.23126,-0.72759q-0.23126,-0.26678 -0.89615,-0.422q-0.66489,-0.16007 -1.96575,-0.25708l-1.90793,-0.14552q-2.1392,-0.16977 -3.3649,-0.75184q-1.23148,-0.58207 -1.73448,-1.56189q-0.50878,-0.98467 -0.50878,-2.36709q0,-1.6492 0.79786,-2.66783q0.79208,-1.01862 2.58438,-1.49398q1.7923,-0.47051 4.76983,-0.47051q3.87368,0 6.38868,0.84885l-0.08672,3.2984l-0.08672,0.09701q-2.8619,-0.84885 -5.98397,-0.84885q-1.50322,0 -2.31265,0.13097q-0.80943,0.13582 -1.12741,0.42685q-0.31799,0.29104 -0.31799,0.8246q0,0.53357 0.2197,0.80035q0.21392,0.26678 0.87881,0.39775q0.66489,0.13582 1.93684,0.25708l1.82121,0.16977q2.31265,0.21828 3.55569,0.77609q1.24305,0.55782 1.72292,1.49398q0.47409,0.93131 0.47409,2.26523q0,1.62495 -0.82099,2.70663q-0.82677,1.07683 -2.67689,1.6104q-1.85012,0.53357 -4.94328,0.53357q-2.02356,0 -3.64242,-0.17947q-1.61885,-0.18432 -3.15098,-0.49961l0,-3.41967l0.11563,-0.07276zm22.2014,3.95323l0,-4.75358l-5.92615,-10.52578l0,-0.07276l5.05891,0q0.89615,1.96449 1.42806,3.14318q0.53769,1.17384 0.84412,1.83837q0.30064,0.66938 0.47409,1.08168q0.17345,0.4123 0.3758,0.87311l0.11563,0q0.20236,-0.46081 0.3758,-0.87311q0.17345,-0.4123 0.47409,-1.08168q0.30643,-0.66453 0.84412,-1.83837q0.53191,-1.17869 1.42806,-3.14318l5.05891,0l0,0.07276l-5.92615,10.52578l0,4.75358l-4.62529,0zm11.8234,-3.95323q1.27195,0.36379 2.79252,0.57237q1.51478,0.20372 3.018,0.20372q2.05247,0 3.05269,-0.16007q0.99444,-0.15522 1.31243,-0.49476q0.31799,-0.33954 0.31799,-0.87311q0,-0.46081 -0.23126,-0.72759q-0.23126,-0.26678 -0.89615,-0.422q-0.66489,-0.16007 -1.96575,-0.25708l-1.90793,-0.14552q-2.1392,-0.16977 -3.3649,-0.75184q-1.23148,-0.58207 -1.73448,-1.56189q-0.50878,-0.98467 -0.50878,-2.36709q0,-1.6492 0.79786,-2.66783q0.79208,-1.01862 2.58438,-1.49398q1.7923,-0.47051 4.76983,-0.47051q3.87368,0 6.38868,0.84885l-0.08672,3.2984l-0.08672,0.09701q-2.8619,-0.84885 -5.98397,-0.84885q-1.50322,0 -2.31265,0.13097q-0.80943,0.13582 -1.12741,0.42685q-0.31799,0.29104 -0.31799,0.8246q0,0.53357 0.2197,0.80035q0.21392,0.26678 0.87881,0.39775q0.66489,0.13582 1.93684,0.25708l1.82121,0.16977q2.31265,0.21828 3.55569,0.77609q1.24305,0.55782 1.72292,1.49398q0.47409,0.93131 0.47409,2.26523q0,1.62495 -0.82099,2.70663q-0.82677,1.07683 -2.67689,1.6104q-1.85012,0.53357 -4.94328,0.53357q-2.02356,0 -3.64242,-0.17947q-1.61885,-0.18432 -3.15098,-0.49961l0,-3.41967l0.11563,-0.07276zm43.3621,-11.37464l-5.69489,15.32787l-6.35977,0l-5.40581,-15.32787l5.17454,0q0.46253,1.21265 0.98287,2.76484q0.52035,1.55219 1.02335,3.16259q0.50878,1.61525 0.89615,3.01222q0.39315,1.39212 0.59551,2.31373l0.11563,0q0.20236,-0.92161 0.58972,-2.31373q0.39315,-1.39697 0.90193,-2.99767q0.503,-1.6007 1.02335,-3.15288q0.52035,-1.55219 0.98287,-2.78909l5.17454,0zm2.1392,4.70507l0,-3.17714q1.01178,-0.53357 2.65954,-0.87311q1.64776,-0.33954 3.5846,-0.33954q3.09316,0 4.96062,1.01862q1.86168,1.01862 1.86168,3.44392q0,1.91598 -1.05225,3.07042q-1.05804,1.14959 -3.71758,1.99844q-2.57282,0.8246 -3.53835,1.39697q-0.97131,0.56752 -0.97131,1.12534l9.42403,0l0,3.08013l-13.70242,0l0,-2.71633q0,-1.2369 0.50878,-2.11001q0.503,-0.87311 1.74605,-1.6007q1.24305,-0.72759 3.44006,-1.50368q1.64776,-0.58207 2.59016,-1.12534q0.93662,-0.54812 0.90771,-1.32421q-0.02891,-0.92161 -0.82099,-1.29996q-0.79786,-0.3735 -2.24327,-0.3735q-1.38759,0 -2.83299,0.39775q-1.4454,0.4026 -2.54391,0.91191l-0.26017,0zm20.38019,7.17888q0.05782,0.53357 0.08672,0.91191q0.02891,0.3735 0.02891,0.7858q0,0.38805 -0.02891,0.79065q-0.02891,0.39775 -0.08672,0.90706q-0.7227,0.09701 -1.4454,0.16977q-0.7227,0.07276 -1.4454,0.07276q-0.69379,0 -1.38759,-0.07276q-0.69379,-0.07276 -1.4165,-0.16977q-0.08672,-0.48506 -0.11563,-0.88281q-0.02891,-0.4026 -0.02891,-0.79065q0,-0.36379 0.02891,-0.77609q0.02891,-0.4123 0.11563,-0.94587q1.4454,-0.21828 2.8619,-0.21828q1.4165,0 2.83299,0.21828zm2.89081,-11.01084q1.27195,-0.33954 2.6422,-0.47536q1.37602,-0.13097 2.96597,-0.13097q2.48609,0 3.9315,0.39775q1.4454,0.4026 2.06404,1.2272q0.62441,0.8246 0.62441,2.08575q0,1.47943 -0.83833,2.4835q-0.83833,1.00892 -2.89081,1.2272l0,0.12126q2.1392,0.09701 3.05269,0.99437q0.90771,0.89736 0.90771,2.20702q0,2.18277 -1.72292,3.28385q-1.71714,1.10593 -5.5041,1.17869q-1.93684,0.02425 -3.41115,-0.16977q-1.47431,-0.19402 -2.68845,-0.53357l0,-3.03162l0.17345,0q1.15632,0.31529 2.34155,0.46081q1.18523,0.14552 2.68845,0.14552q2.02356,0 2.91971,-0.36379q0.89615,-0.36379 0.89615,-1.26115q0,-0.8246 -0.68223,-1.12534q-0.67645,-0.30559 -2.49766,-0.30559l-2.31265,0l0,-3.12863l1.93684,0q2.08138,0 2.81565,-0.30559q0.74005,-0.30074 0.74005,-1.10108q0,-0.8246 -0.82677,-1.09138q-0.82099,-0.26678 -2.87346,-0.26678q-1.12741,0 -2.27217,0.14552q-1.13898,0.14552 -2.06404,0.38805l-0.11563,-0.02425l0,-3.03162zm19.91766,11.01084q0.05782,0.53357 0.08672,0.91191q0.02891,0.3735 0.02891,0.7858q0,0.38805 -0.02891,0.79065q-0.02891,0.39775 -0.08672,0.90706q-0.7227,0.09701 -1.4454,0.16977q-0.7227,0.07276 -1.4454,0.07276q-0.69379,0 -1.38759,-0.07276q-0.69379,-0.07276 -1.4165,-0.16977q-0.08672,-0.48506 -0.11563,-0.88281q-0.02891,-0.4026 -0.02891,-0.79065q0,-0.36379 0.02891,-0.77609q0.02891,-0.4123 0.11563,-0.94587q1.4454,-0.21828 2.8619,-0.21828q1.4165,0 2.83299,0.21828z"/>
    </g>
   </g>
  </g>
 </g>

</svg>