<?xml version="1.0" standalone="no"?>
<!DOCTYPE svg PUBLIC "-//W3C//DTD SVG 20010904//EN"
 "http://www.w3.org/TR/2001/REC-SVG-20010904/DTD/svg10.dtd">
<svg version="1.0" xmlns="http://www.w3.org/2000/svg"
 width="279.000000pt" height="256.000000pt" viewBox="0 0 279.000000 256.000000"
 preserveAspectRatio="xMidYMid meet">

<g transform="translate(0.000000,256.000000) scale(0.100000,-0.100000)"
fill="#000000" stroke="none">
<path d="M1250 2395 c-74 -68 -135 -128 -135 -132 0 -4 15 -9 33 -11 l32 -3 0
-95 0 -94 215 0 215 0 0 95 0 95 29 0 c49 0 48 20 -2 63 -26 21 -47 47 -47 56
0 22 -19 41 -43 41 -10 0 -47 25 -82 55 -34 30 -66 55 -71 54 -5 0 -70 -56
-144 -124z m246 -27 c88 -77 114 -108 79 -94 -13 4 -15 -8 -15 -82 l0 -87
-156 2 c-86 1 -158 3 -159 5 -2 2 -6 37 -9 78 -4 41 -11 77 -16 78 -6 2 -10 8
-10 12 0 9 176 170 186 170 3 0 48 -37 100 -82z"/>
<path d="M1317 2357 l-67 -62 0 -82 c0 -76 2 -83 20 -83 18 0 19 2 8 20 -17
28 1 39 50 31 27 -5 38 -12 43 -31 6 -21 7 -19 8 13 1 37 1 37 -39 37 -22 0
-40 5 -40 10 0 6 19 10 41 10 l41 0 -4 61 c-3 46 -1 62 9 66 21 8 40 -14 25
-29 -15 -15 -17 -188 -2 -188 6 0 10 18 10 41 0 32 6 46 25 61 21 16 25 28 25
72 0 46 -4 56 -33 84 -18 18 -37 32 -42 32 -6 -1 -40 -29 -78 -63z m138 -73
c0 -10 -8 -20 -17 -22 -18 -3 -26 27 -11 42 12 11 28 0 28 -20z m-121 -13 c9
-14 -4 -41 -19 -41 -18 0 -28 17 -21 35 6 17 32 20 40 6z"/>
<path d="M1490 2292 c0 -44 -4 -54 -25 -68 -20 -13 -25 -25 -25 -55 0 -22 5
-39 10 -39 6 0 10 9 10 19 0 11 5 23 10 26 6 3 10 15 10 26 0 12 7 19 20 19
13 0 20 -7 20 -19 0 -10 -9 -21 -20 -24 -12 -3 -20 -14 -20 -26 0 -17 6 -21
30 -21 l30 0 0 83 c0 76 -2 86 -25 107 l-25 23 0 -51z"/>
<path d="M1310 2145 c0 -8 9 -15 20 -15 11 0 20 7 20 15 0 8 -9 15 -20 15 -11
0 -20 -7 -20 -15z"/>
<path d="M1505 2490 c-7 -11 -1 -13 33 -10 59 5 122 -54 122 -114 0 -28 14
-35 23 -12 8 21 -9 75 -30 98 -38 42 -131 65 -148 38z"/>
<path d="M1520 2445 c0 -10 10 -15 28 -15 34 0 63 -29 66 -64 1 -29 13 -34 22
-11 10 25 -16 75 -47 90 -36 19 -69 19 -69 0z"/>
<path d="M1050 2252 c-50 -16 -180 -88 -180 -99 0 -8 3 -13 8 -11 20 9 187 92
191 94 9 7 -6 20 -19 16z"/>
<path d="M1720 2243 c1 -13 194 -102 203 -93 10 9 -34 37 -113 74 -55 26 -90
33 -90 19z"/>
<path d="M645 2176 c-120 -52 -136 -230 -27 -300 49 -32 91 -40 141 -26 80 21
131 86 131 165 0 125 -131 211 -245 161z m103 -66 c18 -15 28 -17 33 -9 9 15
29 3 29 -18 0 -9 7 -25 17 -35 9 -11 11 -18 5 -18 -8 0 -12 -20 -12 -55 l0
-55 -105 0 -105 0 0 54 c0 32 -5 56 -11 58 -10 3 106 98 119 98 2 0 15 -9 30
-20z"/>
<path d="M670 2075 c-44 -33 -45 -34 -42 -84 l4 -51 83 0 83 0 4 51 c3 48 1
53 -32 78 -19 15 -40 30 -45 33 -6 4 -30 -9 -55 -27z m118 -67 c0 -17 -5 -28
-13 -28 -20 0 -29 20 -16 33 8 8 4 17 -16 33 l-27 21 -28 -20 c-19 -14 -28
-30 -28 -49 0 -28 0 -28 65 -28 37 0 65 -4 65 -10 0 -6 -32 -10 -75 -10 l-75
0 0 43 c1 36 5 46 37 69 l36 27 37 -26 c27 -20 37 -35 38 -55z"/>
<path d="M1995 2170 c-139 -69 -116 -279 36 -320 80 -22 158 14 197 90 28 56
28 105 -1 160 -43 81 -147 112 -232 70z m110 -54 c10 -7 27 -11 37 -8 12 3 21
-3 27 -21 5 -14 15 -28 20 -32 17 -10 13 -32 -8 -38 -14 -3 -17 -11 -14 -31 3
-14 2 -37 -1 -51 -6 -24 -9 -25 -86 -25 l-80 0 0 55 c0 48 -2 55 -20 55 -36 0
-21 28 37 69 64 46 62 46 88 27z"/>
<path d="M1115 1895 c-1 -47 3 -65 12 -65 7 0 13 11 13 25 0 21 5 25 30 25 25
0 30 -4 30 -25 0 -16 6 -25 15 -25 12 0 15 14 15 65 0 51 -3 65 -15 65 -9 0
-15 -9 -15 -25 0 -21 -5 -25 -30 -25 -25 0 -30 4 -30 25 0 14 -6 25 -12 25 -9
0 -13 -20 -13 -65z"/>
<path d="M1267 1942 c-23 -25 -21 -68 3 -92 41 -41 110 -13 110 44 0 19 -8 40
-18 49 -25 22 -75 21 -95 -1z m73 -16 c6 -8 10 -25 8 -38 -2 -18 -9 -23 -33
-23 -24 0 -31 5 -33 23 -4 25 13 52 33 52 7 0 18 -7 25 -14z"/>
<path d="M1410 1895 c0 -51 3 -65 15 -65 11 0 15 12 15 43 l1 42 15 -27 c8
-16 17 -28 19 -28 3 0 14 15 25 33 l20 32 0 -48 c0 -71 22 -55 24 17 2 70 -15
84 -50 41 l-23 -29 -12 27 c-7 15 -20 27 -31 27 -16 0 -18 -9 -18 -65z"/>
<path d="M1579 1958 c0 -2 -2 -31 -3 -65 l-4 -63 49 0 c37 0 49 4 49 15 0 10
-10 15 -30 15 -20 0 -30 5 -30 15 0 9 9 15 25 15 14 0 25 5 25 10 0 6 -11 10
-25 10 -16 0 -25 6 -25 15 0 10 10 15 30 15 17 0 30 5 30 10 0 8 -89 16 -91 8z"/>
<path d="M533 1828 c-38 -62 -96 -207 -88 -225 8 -22 18 -8 36 47 7 25 33 82
56 128 47 91 47 92 33 92 -5 0 -22 -19 -37 -42z"/>
<path d="M2210 1865 c0 -3 18 -38 39 -78 21 -40 49 -100 61 -134 22 -61 40
-82 40 -45 0 25 -62 171 -93 220 -23 36 -47 55 -47 37z"/>
<path d="M884 1715 c-28 -65 -28 -65 -9 -65 8 0 15 5 15 10 0 6 16 10 35 10
19 0 35 -4 35 -10 0 -5 7 -10 16 -10 17 0 17 1 -14 77 -24 61 -47 57 -78 -12z
m55 -7 c1 -5 -6 -8 -15 -8 -11 0 -14 5 -10 16 3 9 6 21 7 27 0 12 17 -20 18
-35z"/>
<path d="M1014 1756 c-10 -26 1 -50 25 -56 14 -3 27 -12 29 -19 4 -11 -4 -12
-33 -7 -28 6 -36 4 -33 -6 6 -17 65 -23 84 -7 25 21 17 49 -16 56 -17 3 -33 9
-35 14 -9 14 14 20 34 10 14 -8 20 -7 24 3 8 20 -2 26 -40 26 -20 0 -36 -6
-39 -14z"/>
<path d="M1121 1752 c-12 -23 4 -49 33 -54 11 -1 21 -9 24 -16 3 -10 -4 -13
-26 -10 -17 2 -31 -1 -32 -7 0 -5 19 -10 43 -10 38 0 42 2 45 26 3 22 -2 29
-28 38 -37 12 -32 31 6 23 20 -4 25 -1 22 9 -2 8 -21 15 -41 17 -27 2 -38 -2
-46 -16z"/>
<path d="M1240 1710 c0 -47 3 -60 15 -60 12 0 15 13 15 60 0 47 -3 60 -15 60
-12 0 -15 -13 -15 -60z"/>
<path d="M1299 1754 c-16 -20 -2 -46 30 -54 33 -8 25 -25 -10 -22 -21 1 -29
-2 -27 -10 7 -20 72 -22 88 -3 17 21 3 47 -29 55 -29 7 -23 26 7 22 14 -2 22
2 22 13 0 21 -63 20 -81 -1z"/>
<path d="M1410 1755 c0 -8 7 -15 15 -15 11 0 15 -12 15 -45 0 -33 4 -45 15
-45 11 0 15 12 15 45 0 38 3 45 20 45 11 0 20 7 20 15 0 11 -12 15 -50 15 -38
0 -50 -4 -50 -15z"/>
<path d="M1538 1713 c-24 -54 -21 -80 5 -54 14 14 67 15 67 1 0 -5 9 -10 19
-10 19 0 18 3 -6 60 -34 78 -52 79 -85 3z m52 1 c0 -8 -6 -14 -14 -14 -9 0
-12 7 -9 20 6 22 23 18 23 -6z"/>
<path d="M1660 1710 c0 -47 3 -60 15 -60 11 0 15 11 15 41 l0 41 33 -40 c46
-58 57 -54 57 18 0 33 -4 60 -10 60 -5 0 -10 -17 -10 -37 l-1 -38 -32 38 c-18
20 -40 37 -49 37 -15 0 -18 -10 -18 -60z"/>
<path d="M1810 1755 c0 -8 9 -15 20 -15 17 0 20 -7 20 -45 0 -33 4 -45 15 -45
11 0 15 12 15 44 0 35 4 45 20 49 41 11 20 27 -35 27 -42 0 -55 -3 -55 -15z"/>
<path d="M324 1551 c-156 -71 -123 -304 47 -336 47 -9 110 9 150 42 78 66 79
193 3 265 -55 51 -128 62 -200 29z m123 -56 c34 -15 35 -16 19 -34 -14 -16
-22 -17 -46 -8 -26 10 -33 8 -56 -13 -21 -21 -25 -31 -20 -61 8 -49 -15 -71
-38 -37 -34 48 -9 129 47 153 41 18 50 18 94 0z m73 -102 c0 -32 -25 -78 -52
-97 -24 -17 -85 -21 -107 -7 -25 16 3 48 37 43 38 -5 72 26 72 66 0 39 21 58
37 35 7 -9 13 -27 13 -40z"/>
<path d="M2325 1556 c-118 -55 -143 -217 -47 -298 70 -59 165 -61 228 -6 48
42 64 77 64 139 0 98 -66 169 -163 176 -31 2 -64 -2 -82 -11z m117 -63 c10 -9
18 -22 18 -29 0 -7 9 -16 20 -19 19 -6 21 -14 18 -78 l-3 -72 -88 -3 c-57 -2
-94 1 -103 9 -9 7 -14 31 -14 66 0 51 3 58 43 99 46 47 78 55 109 27z"/>
<path d="M2364 1473 c-17 -17 -16 -18 25 -21 50 -4 59 1 41 23 -17 20 -44 19
-66 -2z"/>
<path d="M2320 1419 c0 -5 5 -7 10 -4 6 3 10 8 10 11 0 2 -4 4 -10 4 -5 0 -10
-5 -10 -11z"/>
<path d="M2460 1420 c0 -5 5 -10 10 -10 6 0 10 5 10 10 0 6 -4 10 -10 10 -5 0
-10 -4 -10 -10z"/>
<path d="M2385 1408 c-4 -10 -13 -18 -21 -18 -21 0 -17 -21 6 -27 11 -3 20 -9
20 -14 0 -14 18 -10 40 8 24 21 26 33 4 33 -9 0 -23 8 -30 18 -12 16 -13 16
-19 0z"/>
<path d="M925 1515 c-24 -23 -31 -56 -25 -122 1 -21 -3 -23 -54 -23 -30 0 -58
-4 -61 -10 -3 -5 -15 -10 -26 -10 -10 0 -19 -6 -19 -14 0 -8 -16 -16 -42 -20
-67 -11 -136 -54 -165 -104 -22 -38 -25 -51 -21 -106 11 -132 87 -226 243
-301 164 -79 295 -101 653 -111 212 -6 244 -5 255 8 8 11 39 18 101 22 171 13
347 73 431 147 98 86 131 242 71 331 -34 51 -100 95 -161 109 -33 7 -55 17
-55 26 0 7 -9 13 -19 13 -11 0 -23 5 -26 10 -3 6 -28 10 -56 10 l-49 0 0 40
c0 51 -22 105 -48 119 -14 7 -165 11 -462 11 l-441 0 -24 -25z m929 -17 c10
-14 16 -44 16 -80 0 -32 4 -58 10 -58 13 0 13 -97 0 -102 -5 -1 -10 -38 -11
-81 -2 -82 -11 -102 -52 -112 -12 -3 -212 -4 -445 -3 -406 3 -424 4 -438 22
-17 24 -18 40 -1 30 10 -6 10 -4 0 7 -7 7 -13 38 -13 70 0 32 -4 61 -10 64 -5
3 -10 28 -10 56 0 27 5 49 10 49 6 0 10 27 10 62 0 105 -36 98 476 98 l443 0
15 -22z m-964 -193 c0 -33 -4 -45 -15 -45 -10 0 -16 12 -17 38 l-1 37 -4 -37
c-5 -48 -23 -50 -23 -3 0 47 -18 45 -23 -2 -3 -35 -4 -34 -5 10 l-2 47 45 0
45 0 0 -45z m1100 0 c0 -54 -19 -61 -22 -7 l-1 37 -4 -37 c-2 -21 -8 -38 -14
-38 -5 0 -10 17 -11 38 l-1 37 -4 -37 c-6 -57 -33 -51 -33 7 l0 45 45 0 45 0
0 -45z m-1210 -5 c0 -20 -5 -30 -15 -30 -10 0 -15 10 -15 30 0 20 5 30 15 30
10 0 15 -10 15 -30z m1260 0 c0 -20 -5 -30 -15 -30 -10 0 -15 10 -15 30 0 20
5 30 15 30 10 0 15 -10 15 -30z m-1340 -14 c-80 -22 -125 -54 -159 -111 -11
-18 -11 -18 -6 5 4 14 24 41 45 61 41 38 86 57 135 57 25 0 23 -2 -15 -12z
m1458 -12 c88 -44 125 -116 108 -208 -8 -42 -80 -125 -139 -159 -99 -58 -333
-115 -360 -88 -8 8 0 11 25 11 53 0 173 27 248 55 261 100 292 316 57 396 -45
15 -48 18 -21 18 16 1 54 -11 82 -25z m-1414 -11 c13 -14 82 -33 119 -33 l37
0 0 -70 c0 -62 3 -74 25 -95 l24 -25 441 0 c492 0 480 -2 500 69 5 20 10 55
10 79 l0 42 40 0 c22 0 48 4 58 9 56 30 78 29 146 -7 56 -31 96 -83 96 -127 0
-45 -50 -116 -106 -152 -108 -69 -263 -108 -384 -97 -41 3 -81 11 -88 17 -8 7
-74 8 -189 4 -263 -9 -486 16 -665 74 -155 50 -248 117 -248 180 0 38 62 101
121 122 53 19 54 19 63 10z m-122 -246 c137 -91 356 -147 641 -163 65 -4 117
-11 117 -17 0 -19 -327 14 -475 48 -94 22 -209 68 -273 108 -50 31 -92 79 -92
102 1 6 7 -2 15 -16 8 -15 38 -42 67 -62z m-49 -11 c6 -16 -2 -28 -14 -20 -12
7 -11 34 0 34 5 0 11 -6 14 -14z m90 -70 c7 -16 -1 -26 -20 -26 -7 0 -13 9
-13 20 0 23 25 27 33 6z m115 -60 c6 -29 -15 -43 -35 -24 -14 14 -14 20 -3 33
16 19 34 15 38 -9z m136 -40 c9 -13 7 -20 -7 -31 -25 -18 -47 -8 -47 20 0 37
34 44 54 11z m736 -21 l0 -45 -99 0 -100 0 -4 -27 c-3 -20 -4 -15 -6 15 0 23
-5 42 -10 42 -6 0 -12 -19 -14 -42 -2 -29 -4 -18 -5 30 l-2 72 120 0 120 0 0
-45z m40 -20 c0 -25 -4 -45 -10 -45 -5 0 -10 20 -10 45 0 25 5 45 10 45 6 0
10 -20 10 -45z m30 0 c0 -25 -4 -45 -10 -45 -5 0 -10 20 -10 45 0 25 5 45 10
45 6 0 10 -20 10 -45z m30 0 c0 -25 -4 -45 -10 -45 -5 0 -10 20 -10 45 0 25 5
45 10 45 6 0 10 -20 10 -45z m-685 -5 c0 -18 -6 -26 -23 -28 -24 -4 -38 18
-28 44 3 9 15 14 28 12 17 -2 23 -10 23 -28z m965 20 c-8 -5 -24 -10 -35 -10
-17 0 -17 2 -5 10 8 5 24 10 35 10 17 0 17 -2 5 -10z m-811 -14 c25 -30 -16
-67 -44 -40 -18 19 -19 26 -3 42 16 16 33 15 47 -2z m151 -11 c17 -20 5 -45
-20 -45 -23 0 -35 22 -26 45 7 19 30 19 46 0z"/>
<path d="M1220 1412 c0 -45 3 -53 16 -48 9 3 29 6 45 6 28 0 29 2 29 44 l0 44
-45 4 -45 3 0 -53z m80 8 c0 -28 -3 -30 -35 -30 -32 0 -35 2 -35 30 0 28 3 30
35 30 32 0 35 -2 35 -30z"/>
<path d="M1250 1421 c0 -12 6 -21 16 -21 9 0 14 7 12 17 -5 25 -28 28 -28 4z"/>
<path d="M1010 1415 c0 -25 5 -45 10 -45 6 0 10 18 10 40 0 38 2 40 30 40 27
0 30 -3 30 -30 0 -25 -4 -30 -25 -30 -14 0 -25 -4 -25 -10 0 -5 16 -10 35 -10
35 0 35 0 35 45 l0 45 -50 0 -50 0 0 -45z"/>
<path d="M1120 1446 c0 -8 6 -17 13 -20 10 -5 10 -7 0 -12 -7 -3 -13 -14 -13
-24 0 -23 -26 -44 -45 -36 -11 4 -15 -1 -15 -19 0 -14 -4 -25 -9 -25 -14 0
-20 38 -7 44 6 2 1 5 -11 5 -25 1 -32 -23 -10 -33 10 -5 10 -7 0 -12 -15 -7
-17 -44 -3 -44 6 0 10 8 11 18 0 14 2 14 9 -3 7 -17 9 -17 9 -2 1 9 6 17 13
17 7 0 24 14 38 30 l26 31 32 -31 c18 -16 32 -35 32 -40 0 -16 20 -12 26 5 7
18 24 20 24 3 0 -7 -12 -18 -26 -25 -23 -11 -27 -10 -31 7 -3 11 -10 20 -17
20 -6 0 -17 10 -25 22 l-14 22 -29 -34 -29 -35 26 -3 c21 -3 25 -9 25 -35 0
-29 1 -30 15 -11 8 11 14 14 15 6 0 -7 14 -26 31 -43 25 -24 34 -28 41 -17 7
10 11 10 15 1 2 -7 20 -13 39 -13 l34 0 0 50 c0 49 0 49 -20 33 -11 -10 -20
-28 -20 -40 0 -33 -16 -28 -23 7 -4 18 -13 30 -22 30 -24 0 -17 19 10 26 14 3
25 11 25 16 0 10 25 38 34 38 14 0 3 -27 -19 -49 -14 -13 -23 -26 -20 -29 2
-3 16 7 30 22 32 34 34 82 4 91 -11 4 -23 4 -26 1 -4 -3 -1 -6 5 -6 7 0 12 -4
12 -10 0 -14 -37 -13 -42 1 -2 7 -12 7 -31 -2 -26 -12 -30 -10 -53 14 -26 29
-25 47 4 47 14 0 14 -2 3 -9 -12 -8 -12 -12 2 -25 8 -9 24 -16 34 -16 15 0 16
2 3 10 -10 6 -11 10 -2 10 6 0 12 5 12 10 0 6 -6 10 -13 10 -7 0 -18 9 -25 20
-10 17 -10 20 3 20 8 0 15 -7 15 -15 0 -8 5 -15 10 -15 14 0 13 27 -1 36 -8 4
-7 9 2 15 10 6 7 9 -11 9 -15 0 -31 -5 -38 -12 -9 -9 -12 -9 -12 0 0 7 -4 12
-10 12 -5 0 -10 -6 -10 -14z m30 -168 c0 -12 -10 -10 -24 5 -7 7 -10 19 -8 26
4 11 8 10 18 -4 8 -10 14 -22 14 -27z m54 -44 c9 -3 16 -14 15 -23 0 -10 -2
-11 -6 -3 -2 6 -11 12 -19 12 -8 0 -14 5 -14 10 0 12 3 12 24 4z m96 -24 c0
-5 -4 -10 -10 -10 -5 0 -10 5 -10 10 0 6 5 10 10 10 6 0 10 -4 10 -10z"/>
<path d="M1040 1420 c0 -13 7 -20 20 -20 13 0 20 7 20 20 0 13 -7 20 -20 20
-13 0 -20 -7 -20 -20z"/>
<path d="M1451 1427 c-56 -19 -51 -38 5 -21 61 18 130 18 183 -1 35 -12 41
-12 41 0 0 32 -158 47 -229 22z"/>
<path d="M1767 1424 c-8 -8 1 -24 14 -24 5 0 9 7 9 15 0 15 -12 20 -23 9z"/>
<path d="M1473 1380 c-13 -5 -23 -14 -23 -20 0 -8 8 -8 23 -3 12 4 47 8 77 8
30 0 65 -4 78 -8 14 -5 22 -5 22 3 0 26 -125 41 -177 20z"/>
<path d="M1757 1343 c-12 -12 -7 -40 9 -54 14 -11 18 -10 30 5 22 30 -14 75
-39 49z m32 -31 c0 -14 -2 -13 -9 3 -8 19 -9 19 -9 1 -1 -11 -4 -17 -7 -13 -4
3 -4 13 0 22 7 20 26 10 25 -13z"/>
<path d="M1493 1333 c-29 -11 -9 -18 52 -18 64 0 81 7 49 19 -18 7 -83 7 -101
-1z"/>
<path d="M1532 1289 c5 -14 21 -14 26 0 2 6 -4 11 -13 11 -9 0 -15 -5 -13 -11z"/>
<path d="M1010 1205 l0 -45 50 0 50 0 0 45 0 45 -50 0 -50 0 0 -45z m80 5 c0
-27 -3 -30 -30 -30 -27 0 -30 3 -30 30 0 27 3 30 30 30 27 0 30 -3 30 -30z"/>
<path d="M1040 1210 c0 -13 7 -20 20 -20 13 0 20 7 20 20 0 13 -7 20 -20 20
-13 0 -20 -7 -20 -20z"/>
<path d="M1412 1228 c-27 -27 -6 -68 35 -68 29 0 48 33 33 60 -12 22 -49 27
-68 8z m56 -43 c-7 -8 -48 7 -48 17 0 6 9 8 20 5 11 -3 21 0 21 6 1 7 3 4 6
-6 3 -10 3 -20 1 -22z"/>
<path d="M1510 1221 c-16 -31 4 -63 37 -59 34 4 52 32 37 56 -16 26 -60 28
-74 3z m50 -22 c0 -10 -7 -19 -15 -19 -15 0 -21 31 -9 43 11 10 24 -3 24 -24z"/>
<path d="M1621 1226 c-8 -10 -11 -26 -7 -41 6 -22 11 -26 39 -23 29 3 32 6 32
38 0 30 -4 35 -26 38 -14 2 -31 -4 -38 -12z m35 -43 c-11 -11 -19 6 -11 24 8
17 8 17 12 0 3 -10 2 -21 -1 -24z"/>
<path d="M1765 1211 c-6 -11 9 -23 19 -14 9 9 7 23 -3 23 -6 0 -12 -4 -16 -9z"/>
<path d="M1120 1180 c0 -16 7 -20 35 -20 19 0 35 5 35 10 0 6 -7 10 -15 10 -8
0 -15 5 -15 10 0 6 -9 10 -20 10 -13 0 -20 -7 -20 -20z"/>
<path d="M1183 1093 c120 -2 314 -2 430 0 117 1 19 2 -218 2 -236 0 -332 -1
-212 -2z"/>
<path d="M432 1138 c62 -279 349 -543 684 -628 359 -92 745 0 1008 240 31 29
66 66 78 83 l23 32 -40 -30 c-22 -16 -58 -45 -80 -65 -119 -107 -309 -203
-473 -240 -447 -102 -949 113 -1128 483 -18 38 -38 90 -45 118 -16 62 -41 69
-27 7z"/>
<path d="M2332 1138 c-6 -24 -13 -63 -16 -88 l-6 -45 24 60 c29 72 35 107 20
112 -6 2 -16 -15 -22 -39z"/>
<path d="M420 300 c11 -21 20 -46 20 -55 0 -8 5 -15 10 -15 6 0 10 7 10 15 0
9 9 34 20 55 17 32 18 40 6 40 -8 0 -18 -9 -21 -20 -3 -11 -10 -20 -15 -20 -5
0 -12 9 -15 20 -3 11 -13 20 -21 20 -12 0 -11 -8 6 -40z"/>
<path d="M510 285 c0 -42 3 -55 15 -55 9 0 15 9 16 23 l0 22 16 -22 c8 -13 22
-23 30 -23 12 0 11 5 -3 28 -15 27 -15 31 1 55 22 34 2 37 -26 5 l-18 -23 -1
23 c0 13 -6 22 -15 22 -12 0 -15 -13 -15 -55z"/>
<path d="M620 285 l0 -55 33 0 c42 0 57 15 57 57 0 36 -21 53 -64 53 -25 0
-26 -3 -26 -55z m63 14 c14 -22 2 -49 -23 -49 -16 0 -20 6 -20 36 0 28 4 35
16 32 9 -2 21 -10 27 -19z"/>
<path d="M800 285 c0 -42 3 -55 15 -55 8 0 15 7 15 15 0 8 4 15 9 15 5 0 11
-7 15 -15 3 -8 13 -15 22 -15 14 0 14 3 4 15 -11 13 -11 20 0 40 18 33 -1 55
-46 55 l-34 0 0 -55z m60 20 c0 -8 -7 -15 -15 -15 -8 0 -15 7 -15 15 0 8 7 15
15 15 8 0 15 -7 15 -15z"/>
<path d="M900 285 c0 -42 3 -55 15 -55 8 0 15 9 15 20 0 13 7 20 20 20 11 0
20 5 20 10 0 6 -9 10 -20 10 -11 0 -20 7 -20 15 0 9 9 15 25 15 14 0 25 5 25
10 0 6 -18 10 -40 10 l-40 0 0 -55z"/>
<path d="M1040 284 l0 -55 38 3 c36 3 37 4 39 43 2 49 -10 65 -48 65 -28 0
-29 -1 -29 -56z m53 21 c1 -5 -6 -11 -15 -13 -11 -2 -18 3 -18 13 0 17 30 18
33 0z m7 -45 c0 -5 -9 -10 -20 -10 -11 0 -20 5 -20 10 0 6 9 10 20 10 11 0 20
-4 20 -10z"/>
<path d="M1140 285 l0 -55 35 0 c19 0 35 5 35 10 0 6 -11 10 -25 10 -23 0 -25
4 -25 45 0 25 -4 45 -10 45 -5 0 -10 -25 -10 -55z"/>
<path d="M1223 293 c3 -29 12 -52 23 -60 24 -17 30 -17 54 7 25 25 29 100 5
100 -11 0 -15 -11 -15 -43 0 -48 -5 -58 -26 -50 -9 3 -14 21 -14 49 0 34 -4
44 -16 44 -14 0 -16 -8 -11 -47z"/>
<path d="M1340 285 l0 -55 35 0 c19 0 35 5 35 10 0 6 -11 10 -25 10 -14 0 -25
5 -25 10 0 6 11 10 25 10 14 0 25 5 25 10 0 6 -11 10 -25 10 -16 0 -25 6 -25
15 0 9 9 15 25 15 14 0 25 5 25 10 0 6 -16 10 -35 10 l-35 0 0 -55z"/>
<path d="M1420 330 c0 -5 9 -10 20 -10 17 0 20 -7 20 -45 0 -25 5 -45 10 -45
6 0 10 20 10 45 0 33 4 45 15 45 8 0 15 5 15 10 0 6 -20 10 -45 10 -25 0 -45
-4 -45 -10z"/>
<path d="M1538 329 c-28 -16 -24 -75 6 -95 36 -23 80 -1 84 42 5 52 -43 81
-90 53z m62 -24 c20 -24 3 -57 -28 -53 -30 3 -41 30 -22 53 16 19 34 19 50 0z"/>
<path d="M1657 322 c-46 -51 13 -124 69 -87 31 20 34 79 5 95 -29 15 -56 12
-74 -8z m66 -23 c14 -22 2 -49 -22 -49 -26 0 -42 29 -29 53 11 21 36 19 51 -4z"/>
<path d="M1750 330 c0 -5 9 -10 20 -10 17 0 20 -7 20 -45 0 -25 5 -45 10 -45
6 0 10 20 10 45 0 33 4 45 15 45 8 0 15 5 15 10 0 6 -20 10 -45 10 -25 0 -45
-4 -45 -10z"/>
<path d="M1860 285 c0 -42 3 -55 15 -55 8 0 15 9 15 20 0 13 7 20 20 20 13 0
20 -7 20 -20 0 -11 5 -20 10 -20 6 0 10 25 10 55 0 30 -4 55 -10 55 -5 0 -10
-12 -10 -26 0 -33 -33 -30 -38 4 -2 12 -10 22 -18 22 -10 0 -14 -14 -14 -55z"/>
<path d="M2020 285 l0 -55 41 0 c24 0 38 4 34 10 -3 6 -17 10 -31 10 -22 0
-24 4 -24 45 0 25 -4 45 -10 45 -5 0 -10 -25 -10 -55z"/>
<path d="M2110 285 l0 -55 40 0 c22 0 40 5 40 10 0 6 -11 10 -25 10 -14 0 -25
5 -25 10 0 6 11 10 25 10 14 0 25 5 25 10 0 6 -11 10 -25 10 -16 0 -25 6 -25
15 0 9 9 15 25 15 14 0 25 5 25 10 0 6 -18 10 -40 10 l-40 0 0 -55z"/>
<path d="M2220 285 l0 -55 33 0 c42 0 57 15 57 57 0 36 -21 53 -64 53 -25 0
-26 -3 -26 -55z m63 14 c14 -22 2 -49 -23 -49 -16 0 -20 6 -20 36 0 28 4 35
16 32 9 -2 21 -10 27 -19z"/>
<path d="M730 280 c0 -5 11 -10 25 -10 14 0 25 5 25 10 0 6 -11 10 -25 10 -14
0 -25 -4 -25 -10z"/>
</g>
</svg>
