<svg width="700" height="132" fill="none" xmlns="http://www.w3.org/2000/svg"><path d="M135.625 104.028v-76.19h32.096c.739 0 1.724.035 2.956.105 1.267.035 2.393.141 3.378.318 4.54.705 8.253 2.204 11.139 4.497 2.921 2.293 5.068 5.185 6.44 8.677 1.373 3.457 2.059 7.32 2.059 11.587 0 6.385-1.584 11.852-4.751 16.403-3.167 4.515-8.13 7.301-14.887 8.36l-6.334.423h-17.737v25.82h-14.359zm42.865 0-14.992-31.005 14.781-2.858 16.47 33.863H178.49zm-28.506-39.26h17.103c.739 0 1.549-.035 2.429-.105.879-.07 1.689-.212 2.428-.423 1.935-.53 3.431-1.411 4.487-2.646 1.056-1.27 1.777-2.663 2.164-4.18.423-1.552.634-3.016.634-4.392 0-1.375-.211-2.821-.634-4.338a10.118 10.118 0 0 0-2.164-4.18c-1.056-1.27-2.552-2.17-4.487-2.698a12.434 12.434 0 0 0-2.428-.424c-.88-.07-1.69-.105-2.429-.105h-17.103v23.492zm77.591 40.953c-4.469 0-8.112-.758-10.927-2.275-2.816-1.517-5.015-3.439-6.599-5.767-1.548-2.328-2.657-4.745-3.325-7.249-.669-2.54-1.074-4.85-1.215-6.931-.14-2.081-.211-3.598-.211-4.55V46.884h14.57v26.984c0 1.305.07 2.98.211 5.027.141 2.01.581 4.038 1.32 6.084a11.743 11.743 0 0 0 3.589 5.133c1.69 1.375 4.065 2.063 7.127 2.063 1.232 0 2.551-.194 3.959-.582 1.408-.388 2.728-1.129 3.959-2.222 1.232-1.129 2.235-2.77 3.009-4.92.81-2.188 1.214-5.045 1.214-8.572l8.236 3.915c0 4.515-.915 8.748-2.745 12.698-1.83 3.951-4.593 7.143-8.288 9.577-3.66 2.434-8.288 3.651-13.884 3.651zm18.476-1.693V85.086h-1.795V46.885h14.465v57.143h-12.67zm60.047 1.587c-7.602 0-14.165-1.658-19.69-4.973-5.49-3.316-9.731-7.954-12.722-13.916-2.957-5.96-4.435-12.892-4.435-20.793 0-7.902 1.478-14.833 4.435-20.794 2.991-5.961 7.232-10.6 12.722-13.915 5.525-3.316 12.088-4.974 19.69-4.974 8.728 0 16.048 2.17 21.96 6.508 5.948 4.339 10.136 10.212 12.564 17.619l-14.464 4.021c-1.408-4.62-3.783-8.2-7.127-10.74-3.343-2.575-7.654-3.863-12.933-3.863-4.821 0-8.851 1.076-12.089 3.227-3.202 2.152-5.613 5.186-7.232 9.101-1.619 3.915-2.428 8.519-2.428 13.81 0 5.29.809 9.894 2.428 13.81 1.619 3.915 4.03 6.948 7.232 9.1 3.238 2.151 7.268 3.227 12.089 3.227 5.279 0 9.59-1.287 12.933-3.862 3.344-2.575 5.719-6.155 7.127-10.741l14.464 4.021c-2.428 7.408-6.616 13.28-12.564 17.62-5.912 4.338-13.232 6.507-21.96 6.507zm61.984 0c-4.082 0-7.549-.776-10.399-2.328-2.816-1.587-4.962-3.686-6.441-6.296-1.442-2.646-2.164-5.556-2.164-8.73 0-2.646.405-5.062 1.214-7.249.81-2.187 2.112-4.11 3.907-5.767 1.83-1.693 4.276-3.104 7.337-4.233 2.112-.776 4.628-1.464 7.549-2.064 2.921-.6 6.229-1.163 9.924-1.693 3.696-.564 7.76-1.181 12.195-1.852l-5.174 2.858c0-3.387-.809-5.873-2.428-7.46-1.619-1.588-4.329-2.382-8.129-2.382-2.112 0-4.312.512-6.599 1.535-2.288 1.023-3.889 2.84-4.804 5.45l-12.986-4.127c1.443-4.727 4.153-8.572 8.13-11.535 3.976-2.963 9.396-4.444 16.259-4.444 5.032 0 9.502.776 13.408 2.328 3.906 1.552 6.863 4.233 8.869 8.042 1.126 2.117 1.794 4.233 2.006 6.35.211 2.116.316 4.479.316 7.09v34.92h-12.564V92.282l1.795 2.434c-2.78 3.845-5.789 6.631-9.027 8.36-3.202 1.693-7.267 2.539-12.194 2.539zm3.062-11.322c2.639 0 4.856-.46 6.651-1.376 1.83-.953 3.273-2.028 4.329-3.228 1.091-1.199 1.83-2.204 2.217-3.016.739-1.552 1.161-3.35 1.267-5.396.141-2.082.211-3.81.211-5.186l4.223 1.059a527.271 527.271 0 0 0-10.346 1.798c-2.64.46-4.769.882-6.388 1.27-1.619.388-3.044.812-4.276 1.27-1.407.565-2.551 1.182-3.431 1.852-.845.635-1.478 1.34-1.9 2.117-.387.776-.581 1.64-.581 2.592 0 1.305.317 2.434.95 3.386.669.917 1.601 1.623 2.798 2.117s2.622.74 4.276.74zm70.632 11.322c-5.666 0-10.399-1.322-14.2-3.968s-6.669-6.243-8.605-10.794c-1.9-4.55-2.85-9.682-2.85-15.396 0-5.715.95-10.847 2.85-15.397 1.901-4.55 4.699-8.149 8.394-10.794 3.695-2.646 8.253-3.968 13.672-3.968 5.455 0 10.206 1.305 14.253 3.915 4.047 2.61 7.18 6.19 9.397 10.74 2.252 4.516 3.378 9.683 3.378 15.504 0 5.714-1.108 10.846-3.325 15.396-2.182 4.55-5.244 8.148-9.186 10.794-3.941 2.646-8.534 3.968-13.778 3.968zm-28.083 23.81v-82.54h12.669v39.154h1.795v43.386h-14.464zm25.761-36.614c3.097 0 5.63-.776 7.601-2.328 1.971-1.552 3.432-3.633 4.382-6.243.95-2.646 1.425-5.574 1.425-8.783 0-3.175-.493-6.068-1.478-8.678-.985-2.645-2.516-4.744-4.593-6.296-2.041-1.587-4.663-2.381-7.865-2.381-2.992 0-5.42.723-7.285 2.17-1.83 1.446-3.167 3.474-4.012 6.084-.845 2.61-1.267 5.644-1.267 9.1 0 3.457.422 6.49 1.267 9.101.845 2.61 2.217 4.638 4.117 6.085 1.936 1.446 4.505 2.169 7.708 2.169zm74.435 11.217c-3.942.741-7.813 1.058-11.614.952-3.766-.07-7.144-.723-10.136-1.957-2.956-1.27-5.208-3.298-6.756-6.085-1.408-2.61-2.147-5.256-2.218-7.937a360.83 360.83 0 0 1-.105-9.206V31.012h14.358v47.936c0 2.223.018 4.233.053 6.032.071 1.764.44 3.175 1.109 4.233 1.267 2.01 3.29 3.104 6.071 3.28 2.78.177 5.859.036 9.238-.423v11.958zm-40.542-46.032V46.885h40.542v11.111h-40.542zm75.281 47.619c-5.913 0-10.98-1.322-15.203-3.968-4.223-2.646-7.461-6.243-9.714-10.794-2.252-4.55-3.378-9.682-3.378-15.396 0-5.785 1.161-10.953 3.484-15.503 2.358-4.55 5.666-8.13 9.924-10.741 4.259-2.61 9.291-3.915 15.098-3.915 6.722 0 12.353 1.71 16.892 5.132 4.576 3.386 7.497 8.025 8.763 13.915l-14.358 3.81c-.845-2.963-2.323-5.273-4.434-6.931-2.077-1.658-4.435-2.487-7.074-2.487-3.027 0-5.508.74-7.443 2.222-1.936 1.446-3.361 3.44-4.276 5.979-.915 2.504-1.373 5.344-1.373 8.519 0 4.973 1.091 9.012 3.273 12.116 2.217 3.069 5.49 4.603 9.819 4.603 3.238 0 5.701-.74 7.39-2.222 1.69-1.482 2.957-3.598 3.801-6.35l14.675 3.07c-1.618 6.066-4.68 10.74-9.185 14.021-4.504 3.28-10.065 4.92-16.681 4.92zm75.278-1.587V77.044c0-1.305-.071-2.963-.211-4.974-.141-2.046-.581-4.091-1.32-6.137a11.568 11.568 0 0 0-3.643-5.133c-1.654-1.375-4.012-2.063-7.073-2.063-1.232 0-2.552.194-3.959.582-1.408.388-2.728 1.146-3.96 2.275-1.231 1.093-2.252 2.716-3.061 4.868-.775 2.151-1.162 5.009-1.162 8.571l-8.235-3.915c0-4.515.915-8.748 2.745-12.699 1.83-3.95 4.575-7.142 8.235-9.576 3.696-2.434 8.341-3.651 13.937-3.651 4.469 0 8.111.758 10.927 2.275 2.815 1.517 4.997 3.44 6.546 5.767 1.583 2.328 2.71 4.762 3.378 7.302.669 2.504 1.074 4.797 1.214 6.878.141 2.081.212 3.598.212 4.55v32.064h-14.57zm-38.959 0v-76.19h12.775V66.99h1.795v37.037h-14.57zm83.063 1.587c-4.082 0-7.549-.776-10.399-2.328-2.816-1.587-4.962-3.686-6.441-6.296-1.442-2.646-2.164-5.556-2.164-8.73 0-2.646.405-5.062 1.214-7.249.81-2.187 2.112-4.11 3.907-5.767 1.83-1.693 4.276-3.104 7.337-4.233 2.112-.776 4.628-1.464 7.549-2.064 2.921-.6 6.229-1.163 9.924-1.693 3.696-.564 7.76-1.181 12.195-1.852l-5.174 2.858c0-3.387-.809-5.873-2.428-7.46-1.619-1.588-4.329-2.382-8.129-2.382-2.112 0-4.312.512-6.599 1.535-2.288 1.023-3.889 2.84-4.804 5.45l-12.986-4.127c1.443-4.727 4.153-8.572 8.13-11.535 3.976-2.963 9.396-4.444 16.259-4.444 5.032 0 9.502.776 13.408 2.328 3.906 1.552 6.863 4.233 8.869 8.042 1.126 2.117 1.794 4.233 2.006 6.35.211 2.116.316 4.479.316 7.09v34.92h-12.564V92.282l1.795 2.434c-2.78 3.845-5.789 6.631-9.027 8.36-3.202 1.693-7.267 2.539-12.194 2.539zm3.062-11.322c2.639 0 4.856-.46 6.651-1.376 1.83-.953 3.273-2.028 4.329-3.228 1.091-1.199 1.83-2.204 2.217-3.016.739-1.552 1.161-3.35 1.267-5.396.141-2.082.211-3.81.211-5.186l4.223 1.059a527.271 527.271 0 0 0-10.346 1.798c-2.64.46-4.769.882-6.388 1.27-1.619.388-3.044.812-4.276 1.27-1.407.565-2.551 1.182-3.431 1.852-.845.635-1.478 1.34-1.9 2.117-.387.776-.581 1.64-.581 2.592 0 1.305.317 2.434.95 3.386.669.917 1.601 1.623 2.798 2.117s2.622.74 4.276.74z" fill="#fff"/><path fill-rule="evenodd" clip-rule="evenodd" d="M45.335 41.431c25.117 0 45.64 20.263 45.64 45.061 0 24.496-20.522 44.758-45.64 44.758C20.217 131.25 0 110.988 0 86.492c0-24.798 20.217-45.06 45.335-45.06zm-34.001 7.561s2.757-2.42 5.207-4.234c2.45-1.814 5.207-3.327 5.207-3.327s.307-21.774 0-25.1c0-3.024 2.757-5.746 6.127-5.746h34.92c3.063 0 6.126 2.721 6.126 6.35v9.678l10.721.302V16.331C79.642 9.375 73.822 0 62.795 0H29.1C17.154 0 11.027 8.77 11.027 16.633c0 8.165.307 32.359.307 32.359zm34 10.585c15.01 0 27.263 12.096 27.263 26.915 0 14.516-12.253 26.613-27.262 26.613-14.704 0-26.956-12.097-26.956-26.613 0-14.819 12.252-26.915 26.956-26.915zm0 11.794c5.208 0 9.496 3.931 9.496 9.073 0 3.024-1.837 6.048-3.982 7.56v13.307h-10.72V88.004c-2.451-1.512-3.983-4.536-3.983-7.56 0-5.142 4.289-9.073 9.19-9.073zm0-19.355c19.298 0 34.92 15.423 34.92 34.476 0 18.75-15.622 34.173-34.92 34.173-19.297 0-34.92-15.423-34.92-34.173 0-19.053 15.623-34.476 34.92-34.476z" fill="#3BBBBC"/></svg>