<?xml version="1.0" standalone="no"?>
<!DOCTYPE svg PUBLIC "-//W3C//DTD SVG 20010904//EN"
 "http://www.w3.org/TR/2001/REC-SVG-20010904/DTD/svg10.dtd">
<svg version="1.0" xmlns="http://www.w3.org/2000/svg"
 width="256.000000pt" height="256.000000pt" viewBox="0 0 256.000000 256.000000"
 preserveAspectRatio="xMidYMid meet">

<g transform="translate(0.000000,256.000000) scale(0.100000,-0.100000)"
fill="#000000" stroke="none">
<path d="M477 1646 c-83 -31 -137 -118 -137 -221 0 -84 24 -130 109 -205 74
-67 83 -86 53 -113 -33 -30 -81 -19 -134 31 l-28 26 0 -111 0 -111 48 -19 c31
-12 73 -18 122 -18 65 0 83 5 124 29 47 27 49 28 43 7 -5 -21 -3 -21 108 -21
l113 0 6 28 c3 15 11 80 17 145 7 64 14 115 16 113 3 -2 15 -57 29 -123 13
-65 26 -128 29 -140 5 -22 11 -23 89 -23 l84 0 10 48 c5 26 18 91 28 144 10
54 19 96 21 95 1 -2 7 -48 13 -103 5 -54 13 -118 16 -141 l5 -43 215 0 214 0
0 140 0 140 35 0 35 0 0 -140 0 -140 110 0 110 0 -2 363 -3 362 -105 0 -105 0
-3 -122 -3 -123 -34 0 -35 0 0 125 0 126 -107 -3 -108 -3 -4 -350 -4 -350 -36
350 -36 350 -109 3 c-60 1 -113 -1 -117 -5 -4 -4 -26 -69 -48 -143 -22 -74
-40 -133 -41 -130 -1 3 -18 66 -39 140 l-37 135 -109 3 c-59 1 -112 -1 -116
-5 -4 -4 -17 -78 -29 -163 -11 -85 -23 -170 -27 -188 l-6 -34 -46 45 c-25 24
-61 54 -79 66 -57 39 -65 85 -17 97 32 8 60 -3 101 -38 l34 -30 0 111 0 112
-36 15 c-53 22 -152 27 -197 10z"/>
<path d="M2020 1285 l0 -365 103 0 102 0 -2 362 -2 363 -101 3 -100 3 0 -366z"/>
</g>
</svg>
