<svg xmlns="http://www.w3.org/2000/svg" viewBox="0 0 1024 1024" aria-hidden="true">
  <path d="M 501.480 118.357 C 493.851 121.910, 463.502 147.171, 341.500 251.516 C 275.682 307.809, 240.011 337.784, 212.775 359.684 C 203.325 367.283, 190.162 378.225, 183.523 384 C 176.884 389.775, 168.762 396.715, 165.476 399.422 C 149.609 412.491, 146.674 416.781, 146.607 427 C 146.558 434.452, 148.736 439.536, 154.162 444.638 C 159.739 449.881, 163.729 451.448, 171.500 451.444 C 179.223 451.440, 184.072 449.510, 190.472 443.890 L 194 440.793 194 593.700 L 194 746.607 196.588 751.801 C 199.641 757.928, 205.437 763.215, 210.891 764.849 C 213.815 765.725, 261.381 766.012, 400.034 765.990 L 585.270 765.960 575.353 755.730 C 560.486 740.395, 543.139 716.359, 535.493 700.500 C 528.325 685.630, 519.933 661.406, 517.069 647.310 C 512.248 623.590, 511.907 616.987, 512.213 553.308 C 512.482 497.062, 512.612 493.238, 514.344 490.597 C 516.644 487.087, 528.725 481.376, 543.058 477.022 C 548.801 475.278, 557.230 472.674, 561.790 471.235 L 570.079 468.620 569.790 437.382 C 569.381 393.282, 574.135 397.004, 518.200 397.002 C 474.072 397, 473.454 397.076, 471.073 402.824 C 470.142 405.072, 469.937 439.630, 470.182 553.371 L 470.500 701 462.750 701 L 455 701 455 661.065 C 455 638.057, 454.594 620.063, 454.043 618.613 C 453.517 617.229, 451.604 615.307, 449.793 614.343 C 446.814 612.758, 443.402 612.619, 414 612.888 C 377.529 613.222, 375.952 613.478, 373.443 619.481 C 372.194 622.472, 372.045 628.142, 372.503 655.267 C 372.802 672.995, 373.264 690.538, 373.530 694.250 L 374.014 701 366.566 701 C 362.470 701, 358.911 700.663, 358.658 700.250 C 358.405 699.837, 357.898 688.475, 357.530 675 C 357.163 661.525, 356.380 649.241, 355.790 647.703 C 353.568 641.904, 352.064 641.708, 315.899 642.517 C 286.747 643.169, 282.785 643.453, 280.120 645.073 C 275.427 647.927, 274.934 651.552, 275.668 677.773 L 276.321 701.046 257.992 700.773 L 239.664 700.500 239.284 698 C 239.075 696.625, 238.650 629.567, 238.340 548.982 L 237.776 402.463 250.138 392.339 C 281.374 366.756, 306.413 345.880, 316.500 337.011 C 322.550 331.691, 335.375 320.896, 345 313.022 C 365.591 296.175, 371.730 291.007, 382.500 281.447 C 386.900 277.541, 397.475 268.773, 406 261.962 C 429.684 243.040, 471.335 208.171, 492.500 189.546 C 502.950 180.350, 512.013 172.611, 512.639 172.349 C 514.066 171.751, 528.157 183.208, 567.580 217.019 C 584.586 231.605, 606.825 250.479, 617 258.963 C 627.175 267.446, 639.100 277.442, 643.500 281.176 C 679.204 311.475, 716.281 342.593, 742.813 364.528 L 774.296 390.556 774.082 418.181 L 773.868 445.807 779.184 447.810 C 782.108 448.912, 792.765 453.006, 802.867 456.907 C 812.969 460.808, 821.519 463.999, 821.867 463.998 C 822.215 463.997, 822.500 457.022, 822.500 448.499 C 822.500 439.975, 822.749 433, 823.054 433 C 823.358 433, 825.158 434.632, 827.054 436.626 C 838.985 449.180, 860.751 446.474, 867.982 431.538 C 873.070 421.027, 869.652 409.315, 858.750 399.905 C 855.312 396.938, 845.525 387.756, 837 379.500 C 828.475 371.244, 817.119 360.927, 811.766 356.574 L 802.031 348.659 801.766 258.352 L 801.500 168.045 798.882 165.428 L 796.265 162.810 746.949 162.903 L 697.634 162.996 695.222 165.248 C 689.433 170.653, 689.517 169.898, 689.806 214.345 C 689.979 240.857, 689.727 255.070, 689.087 254.845 C 688.545 254.655, 679.641 247.272, 669.301 238.437 C 607.488 185.624, 568.963 152.877, 563.498 148.500 C 542.253 131.487, 524.420 118.341, 521.212 117.327 C 514.935 115.343, 507.071 115.754, 501.480 118.357 M 351.782 331.062 C 349.734 332.256, 328.175 361.813, 314.991 381.500 C 274.867 441.419, 257.896 482.446, 260.397 513.480 C 263.479 551.726, 286.086 579.579, 324.455 592.403 C 341.262 598.020, 364.859 599.699, 380.778 596.411 C 398.185 592.815, 416.289 582.797, 428.206 570.165 C 436.483 561.391, 440.219 555.944, 445.089 545.550 C 451.125 532.670, 453.383 521.973, 453.333 506.500 C 453.263 485.166, 448.619 468.539, 434.652 439.613 C 425.049 419.722, 416.816 405.667, 404.358 387.890 C 388.205 364.841, 362.176 331.665, 359.414 330.605 C 357.101 329.718, 353.743 329.919, 351.782 331.062 M 593.023 333.786 C 591.367 334.588, 588.997 336.876, 587.756 338.872 L 585.500 342.500 585.500 401.747 C 585.500 434.332, 585.800 460.995, 586.166 460.997 C 586.532 460.999, 595.082 457.854, 605.166 454.009 C 615.250 450.164, 637.499 441.726, 654.609 435.259 L 685.717 423.500 686.354 412.500 C 686.704 406.450, 686.992 388.450, 686.994 372.500 C 686.997 340.615, 686.731 339.012, 680.698 334.587 C 677.984 332.596, 676.604 332.528, 636.965 332.430 C 602.995 332.345, 595.522 332.576, 593.023 333.786 M 307.294 441.717 C 290.620 470.185, 284.787 486.883, 284.662 506.500 C 284.538 526.047, 290.129 540.285, 302.917 552.988 C 312.700 562.705, 324.907 568.972, 338.750 571.384 L 342 571.950 342 566.876 C 342 557.994, 338.948 554.087, 319.348 537.885 C 309.300 529.578, 303.973 521.794, 301.132 511.266 C 296.837 495.347, 299.230 477.109, 310.412 440.547 C 311.245 437.822, 311.778 435.445, 311.597 435.264 C 311.416 435.082, 309.479 437.986, 307.294 441.717 M 685.500 440.477 C 633.561 459.986, 607.619 469.622, 557.500 488.025 C 544.300 492.872, 532.700 497.152, 531.722 497.536 C 530.744 497.921, 529.481 499.101, 528.915 500.159 C 527.199 503.364, 527.709 623.400, 529.488 635.254 C 537.032 685.505, 562.856 729.823, 605.500 765.701 C 627.035 783.818, 653.249 799.511, 685.141 813.374 C 701.125 820.323, 700.794 820.375, 728.529 806.549 C 765.846 787.946, 785.871 774.099, 809.573 750.507 C 827.343 732.820, 844.789 709.228, 854.875 689.247 C 861.096 676.924, 867.249 657.480, 871.246 637.518 C 873.085 628.329, 873.288 622.492, 873.694 567 C 874.190 499.236, 874.217 499.565, 868 497.305 C 866.075 496.606, 848.975 490.437, 830 483.597 C 811.025 476.757, 786.275 467.700, 775 463.469 C 739.920 450.307, 700.961 436.998, 697.659 437.049 C 695.921 437.075, 690.450 438.618, 685.500 440.477 M 663.500 477.218 C 633.140 488.801, 604.313 499.456, 564.500 513.813 L 551.500 518.500 551.527 573 C 551.556 633.317, 551.383 631.272, 558.591 656.316 C 562.915 671.338, 568.612 684.480, 575.718 695.819 C 594.023 725.031, 618.445 748.283, 652.159 768.596 C 661.252 774.075, 687.561 787.322, 698.240 791.799 C 700.749 792.851, 702.606 792.126, 720.240 783.207 C 753.563 766.353, 773.796 752.332, 794.050 732.061 C 819.413 706.676, 831.921 687.512, 841.019 660.099 C 848.877 636.424, 850.001 624.290, 849.999 563.105 L 849.997 518.500 805.249 502.592 C 780.637 493.843, 746.402 481.580, 729.171 475.342 C 711.940 469.104, 697.765 464.055, 697.671 464.123 C 697.577 464.191, 682.200 470.084, 663.500 477.218 M 693.339 515.876 C 691.601 516.968, 689.883 518.793, 689.522 519.931 C 688.898 521.897, 688.148 522, 674.418 522 L 659.971 522 656.331 525.335 C 653.149 528.251, 652.633 529.382, 652.223 534.330 C 651.765 539.846, 651.854 540.089, 655.759 543.994 L 659.765 548 673.882 548 L 688 548 688 554 L 688 560 680.455 560 C 673.777 560, 672.627 560.282, 670.455 562.455 C 667.506 565.403, 667.316 568.861, 669.920 572.171 L 671.840 574.613 662.707 576.339 C 649.221 578.889, 640.219 583.574, 630.897 592.897 C 619.043 604.750, 613 619.841, 613 637.588 L 613 644 609.611 644 C 604.420 644, 601.831 646.707, 601.251 652.739 C 600.818 657.247, 601.064 658.155, 603.334 660.425 L 605.909 663 630.280 663 C 654.284 663, 654.682 662.966, 656.688 660.750 C 662.217 654.640, 658.692 644, 651.138 644 C 648.837 644, 648.750 643.773, 649.327 639.250 C 651.143 624.996, 656.613 617.997, 667.188 616.392 C 670.444 615.897, 670.556 616.008, 673.779 622.944 C 679.605 635.480, 690.710 641.740, 705.421 640.779 C 713.594 640.245, 719.056 637.833, 725.461 631.929 L 729.724 628 769.862 628 L 810 628 810 601.500 L 810 575 768.893 575 C 730.147 575, 727.826 574.900, 728.478 573.250 C 730.243 568.786, 730.153 565.410, 728.203 563.002 C 726.472 560.864, 725.232 560.500, 718.535 560.162 L 710.852 559.774 711.176 554.137 L 711.500 548.500 724.682 548 C 739.870 547.424, 742.447 546.301, 744.969 539.159 C 746.261 535.501, 746.261 534.492, 744.969 530.783 C 744.025 528.071, 742.287 525.750, 740.102 524.283 C 737.015 522.209, 735.561 522, 724.208 522 L 711.712 522 708.604 518.405 C 704.630 513.808, 698.300 512.759, 693.339 515.876 M 622.448 691.712 C 614.426 705.099, 613.588 706.974, 613.605 711.500 C 613.643 721.545, 620.108 728.198, 630.370 728.751 C 635.352 729.019, 637.246 728.648, 640.480 726.770 C 648.089 722.352, 651.429 712.429, 648.593 702.671 C 646.885 696.795, 639.097 684.339, 634.238 679.712 L 631.311 676.923 622.448 691.712" fill="currentColor" fill-rule="evenodd"/>
</svg>