<?xml version="1.0" encoding="UTF-8"?>
<svg id="IPC" xmlns="http://www.w3.org/2000/svg" version="1.1" viewBox="0 0 1102.27 1368">
  <path id="MERX" d="M1072.88,616.99c-1.44.21-1.53-2.73-1.7-3.77-11.9-72.58-110.5-106.4-172.52-125.49-208.9-64.3-467.09-64.13-677.98-8.45-57.55,15.19-166.54,48.65-189.55,109.45l-5.23,21.25c-11.08-31.77-17.28-65.04-21-98.5-3.58-32.16-9.22-98.21.53-127.45,19.85-59.52,124.51-100.06,179.69-117.31,170.22-53.18,395.57-58.14,571.1-30.57,95.83,15.05,256.97,55.42,322.69,130.31,28.06,31.98,23.82,55.98,21.98,96.04-2.4,52.42-9.94,105.13-28.02,154.48h.01ZM756.81,387.94l35.12-83.47c-53.33-7.1-106.92-10.28-160.52-12.48-77.89-3.19-156.22-2.85-234,3.02-9.22.7-18.59,1.88-27.77,2.98l-32.75,88.5c.12,1.69,28.76-2.27,31.52-2.48,95.04-7.25,188.84-9.07,284-4.02,9.95.53,20.02.39,29.98,1.02l74.42,6.93h0ZM361.48,557.58c66.7-58.95,155.94-86.28,244.43-68.09,122.57,25.19,210.2,124.6,242.7,242.3,12.9,46.69,7.3,87.48,60.02,108.98,28.2,11.5,84.34,19.25,79.99,60.46-6.99,66.16-60.36,154.66-105.21,202.79-209.09,224.39-579.78,184.34-731.69-82.34-17.53-30.78-42.51-89.22-44.81-124.19-2.53-38.37,53.48-46.05,80.75-55.22,54.01-18.17,52.36-48.97,63.92-97.08,17.62-73.33,53.34-137.62,109.9-187.6h0ZM526.69,643.29c-173.36,10.19-313.65,168.83-272.11,344.53,40.91,173.07,234.63,262.24,399.09,207.45,168.7-56.2,259.32-245.74,165.41-405.94-60.65-103.46-174.36-152.97-292.38-146.03h-.01ZM1099.89,379.99l-10.58-16.91c-46.84-67.07-169.1-108.35-246.2-126.8-182.91-43.77-422.27-44.6-605.22-.8-71.88,17.21-197.27,57.33-231.73,128.31-.66,1.35.64,2.76-2.26,2.19,1.67-8.87,1.07-18.38,2-27.49,11.03-107.76,146.32-158.56,236.78-183.22,212.38-57.9,502.3-51.51,704.89,38.55,49.67,22.08,118.91,61.78,141.51,113.49,9.82,22.47,10.43,48.46,10.81,72.68h0ZM501.89,464.01l-40.76,9.73c-116.19,35.79-199.81,137.88-230.75,253.25-8.47,31.58-7.91,75.36-42.81,89.19-40.93,16.23-85.95,14.52-104.73,63.26-.4,1.05-.41,2.41-1.94,2.55-17.02-49.63-26.03-104.18-31-156.51-3.24-34.08-8.7-104.23,6.17-133.81,19.93-39.65,95.62-66.54,136.05-78.95,99.53-30.53,205.93-42.93,309.76-48.72h.01ZM1012.91,884c-4.91-25.68-31.56-42.88-54.04-52.47-33.87-14.44-63.03-9.6-74.68-52.32-3.63-13.3-5.23-27.91-8.58-41.42-29.6-119.64-115.33-229.48-236.71-264.29-11.75-3.37-23.59-4.95-35.22-7.79-1-.24-3.01-.29-2.78-1.7l67.49,4.99c88.1,10.18,177.91,24.28,261.46,54.54,37.94,13.74,103.64,41.96,116.33,83.67,8.91,29.27,1.35,102.59-2.3,135.27-4.54,40.66-13.48,97.4-27.53,135.47-.72,1.95-1.43,5.14-3.45,6.04h.01ZM495.9,303l-24.5,63h-14.5l13.49-40.01-35,31-15.48-27.98-15.43,40.07-36.58,2.92,22.14-63.86,32.71-1.97,16.64,30.77c2.83.24,35.63-33.94,39.02-33.94h17.5,0ZM570.4,365l-1.07-2.03,25.73-59.8c6.42-.16,12.94-.37,19.38-.2,10.62.27,25.36.79,35.7,2.3,14.27,2.09,19.32,14.52,10.76,26.24-5.1,6.98-13.01,10.73-21.06,13.1-1.36,4.89,6.11,16.97,7.07,22.4h-15.5c-4.67,0-7.67-15.41-11.98-17.8-4.2-.35-7.26,13.21-10.02,15.8h-39.01ZM624.9,333h15.5c4,0,10.88-6.85,10.34-11.27-.81-5.49-14.05-6.76-18.15-5.53-2.75.82-8.56,15.98-7.69,16.8ZM581.9,302l-3.64,12.09-30.67.11c-2.91.9-6.12,9.74-6.69,12.8h28.5c.82.79,1.31.79,1.1,2.07-.27,1.62-3.42,9.73-4.59,10.44l-30.34.45c-1.3,1.42-6.62,12.04-3.17,12.04h29.5c-1.01,3.26-2.8,12.32-6.5,13l-70.08.04c-1.1-1.54.96-5.73,1.57-7.56,3.6-10.79,8.89-23.08,13.26-33.74,2.95-7.2,5.69-15.7,10.25-21.75h71.5ZM713.74,309.16l9.16,21.84c1.65,1.27,21.38-16.89,24.73-17.75,5.43-1.4,10.88,1.01,16.26.76l-33.87,28.7,11.86,31.28-38-3.49-11.51-21.51c-2.06-.48-19.26,17.01-23.53,18.46-5.22,1.78-12.59.04-17.96-.47l36.84-30.64c-.81-4.3-13.52-27.64-11.84-29.35l37.85,2.15v.02ZM537.7,781.3c103.78-8.11,191.35,82.52,160.47,186.47-31.16,104.87-166,138.55-247.74,68.21-100.42-86.41-41.43-244.61,87.27-254.67h0ZM537.7,806.3c-80.24,7.08-136.08,91.1-102.66,167.06,37.56,85.37,156.39,100.9,215.83,29.11,72.88-88.02-4.05-205.79-113.17-196.17ZM549.72,680.27c43.39-2.58,52.56,61.32,10.43,70.48-51.76,11.25-59.96-67.54-10.43-70.48ZM377.54,1001.35c29.41,28.94-6.25,78.17-42.95,56.45-46.51-27.53,6.03-92.77,42.95-56.45h0ZM743.63,992.24c43.64-7.36,59.47,49.5,23.95,66.95-31.58,15.51-64.81-19.5-46.48-50.48,4.37-7.39,13.97-15.02,22.54-16.46h-.01ZM549.7,1102.28c46.05-3.25,51.68,67.22,5.68,70.7-48.67,3.68-51.33-67.47-5.68-70.7ZM538.69,817.29c112.06-10.79,175.44,121.01,87.68,193.68-59.15,48.98-153.65,26.73-182.23-44.71-27.44-68.59,23.18-142.09,94.56-148.97h-.01ZM557.67,840.22c-4.25-4.15-25.1.4-30.99,2.06-30.97,8.76-57.52,34.83-64.49,66.51-1.14,5.19-3.2,15.62-2.08,20.5,1.5,6.57,10.5,8.28,13.65,2.07,1.9-3.74,1.99-15.65,3.61-21.39,8.28-29.34,34.05-49.75,63.27-55.73,5.87-1.2,18.57.84,18.96-7.91.05-1.14-1.26-5.46-1.94-6.12h0Z"/>
</svg>