<svg
  xmlns="http://www.w3.org/2000/svg"
  width="24"
  height="24"
  viewBox="0 0 24 24"
  fill="none"
  stroke="currentColor"
  stroke-width="2"
  stroke-linecap="round"
  stroke-linejoin="round"
>

  <!-- Sun -->
  <circle cx="5" cy="5" r="2"/>
  <line x1="5" y1="1" x2="5" y2="3"/>
  <line x1="5" y1="7" x2="5" y2="9"/>
  <line x1="1" y1="5" x2="3" y2="5"/>
  <line x1="7" y1="5" x2="9" y2="5"/>

  <!-- PV Panel -->
  <rect x="1" y="12" width="8" height="5" rx="1"/>
  <line x1="1" y1="12" x2="9" y2="17"/>
  <line x1="9" y1="12" x2="1" y2="17"/>

  <!-- Globe -->
  <circle cx="17" cy="12" r="5"/>
  <ellipse cx="17" cy="12" rx="5" ry="2"/>
  <line x1="17" y1="7" x2="17" y2="17"/>

  <!-- Communication waves -->
  <path d="M9 10 C11 9, 13 9, 15 10"/>
  <path d="M9 14 C11 15, 13 15, 15 14"/>

</svg>
