<?xml version="1.0" standalone="no"?>
<!DOCTYPE svg PUBLIC "-//W3C//DTD SVG 20010904//EN"
 "http://www.w3.org/TR/2001/REC-SVG-20010904/DTD/svg10.dtd">
<svg version="1.0" xmlns="http://www.w3.org/2000/svg"
 width="512.000000pt" height="512.000000pt" viewBox="0 0 512.000000 512.000000"
 preserveAspectRatio="xMidYMid meet">

<g transform="translate(0.000000,512.000000) scale(0.100000,-0.100000)"
fill="#000000" stroke="none">
<path d="M963 3296 c-95 -30 -190 -121 -245 -234 -33 -66 -33 -69 -33 -207 0
-139 0 -141 33 -207 39 -80 107 -157 211 -240 42 -34 84 -70 94 -81 46 -51 -4
-135 -86 -144 -39 -5 -58 0 -111 26 -35 17 -80 49 -100 71 -20 22 -38 40 -41
40 -3 0 -5 -99 -5 -219 l0 -220 83 -33 c81 -33 84 -33 242 -33 154 0 162 1
219 28 33 15 79 43 102 62 l42 35 -9 -38 c-18 -78 -35 -72 216 -72 l224 0 6
33 c2 17 19 151 35 296 17 146 32 266 33 268 2 1 24 -102 51 -230 26 -128 54
-262 63 -300 l15 -67 166 2 167 3 26 130 c15 72 42 209 60 305 18 96 34 168
36 160 1 -8 14 -127 28 -265 13 -137 27 -269 30 -292 l6 -43 430 0 429 0 0
285 0 285 75 0 75 0 0 -285 0 -285 213 2 212 3 3 728 2 727 -215 0 -215 0 0
-245 0 -245 -75 0 -75 0 0 245 0 245 -220 0 -220 0 -1 -717 -1 -718 -28 265
c-15 146 -46 450 -69 675 -23 226 -44 429 -47 453 l-6 42 -231 -2 -231 -3 -80
-274 c-57 -195 -82 -268 -88 -255 -8 20 -148 519 -148 529 0 3 -105 4 -232 3
l-233 -3 -41 -300 c-23 -165 -47 -339 -54 -387 l-12 -88 -71 76 c-39 42 -106
101 -149 131 -42 30 -89 68 -103 84 -33 41 -34 93 -1 114 65 43 142 23 234
-59 29 -25 56 -46 60 -46 4 0 6 98 4 217 -2 158 -6 219 -15 225 -6 4 -47 19
-90 33 -65 21 -97 25 -190 24 -62 0 -131 -6 -154 -13z"/>
<path d="M4032 2563 l3 -728 208 -3 207 -2 0 730 0 730 -210 0 -210 0 2 -727z"/>
</g>
</svg>
