<?xml version="1.0" encoding="UTF-8"?>
<svg id="Pixel_Perfect_height_48px_" data-name="Pixel Perfect (height 48px)" xmlns="http://www.w3.org/2000/svg" viewBox="0 0 63.3 46">
  <path d="M43.93,0h2.48s0,0,0,0c9.03.42,13.59,4.45,13.59,12v22c0,1.83-.32,3.5-.85,4.91-3.48-2.76-9.75-6.4-17.15-8.66V11h-24v24h18.67c4.5,3.12,9.57,6.96,12.27,10.72-1.27.17-2.64.27-4.13.27h0s-29.62,0-29.62,0c-10.12,0-15.19-3.98-15.19-11.94V12.01C0,4.01,5.06,0,15.19,0h28.75ZM32.3,30c5.22,3.22,15.51,9.89,19.2,16h11.8c-2.67-3.79-9.52-12.55-31-16Z" style="fill: #fff;"/>
</svg>