<?xml version="1.0" encoding="UTF-8"?>
<svg id="Ebene_1" xmlns="http://www.w3.org/2000/svg" xmlns:xlink="http://www.w3.org/1999/xlink" version="1.1" viewBox="0 0 1024 1024">
  <!-- Generator: Adobe Illustrator 29.7.1, SVG Export Plug-In . SVG Version: 2.1.1 Build 8)  -->
  <defs>
    <style>
      .st0 {
        fill: #3c3c3b;
      }

      .st1 {
        fill: url(#Unbenannter_Verlauf_393);
      }

      .st2 {
        fill: url(#Unbenannter_Verlauf_392);
      }

      .st3 {
        fill: url(#Unbenannter_Verlauf_391);
      }

      .st4 {
        fill: url(#Unbenannter_Verlauf_39);
      }
    </style>
    <linearGradient id="Unbenannter_Verlauf_39" data-name="Unbenannter Verlauf 39" x1="79.6" y1="536.2" x2="907.4" y2="29" gradientUnits="userSpaceOnUse">
      <stop offset="0" stop-color="#d60b51"/>
      <stop offset="1" stop-color="#652580"/>
    </linearGradient>
    <linearGradient id="Unbenannter_Verlauf_391" data-name="Unbenannter Verlauf 39" x1="131.5" y1="621" x2="959.3" y2="113.8" xlink:href="#Unbenannter_Verlauf_39"/>
    <linearGradient id="Unbenannter_Verlauf_392" data-name="Unbenannter Verlauf 39" x1="209.5" y1="748.2" x2="1037.3" y2="241" xlink:href="#Unbenannter_Verlauf_39"/>
    <linearGradient id="Unbenannter_Verlauf_393" data-name="Unbenannter Verlauf 39" x1="19.8" y1="1055.7" x2="1110.8" y2="387.3" xlink:href="#Unbenannter_Verlauf_39"/>
  </defs>
  <g id="mixed">
    <path class="st4" d="M446.9,276.8c-.6-1.9-1.2-3.9-1.9-5.9-.6-1.9-1.2-3.9-2-5.8-.4-1.1-.8-2.4-1.2-3.5-2.8-7.7-6-15.1-9.6-22.2-2.9-6-6.2-11.7-9.6-17.2-17.5-27.8-41.9-49.7-75.7-60.4-38.5-12.2-83.2-8.2-117.2,14.2-33.6,22.2-55.5,59.5-68,97-14.7,44.3-18.2,91.8-16.6,138.1,1.5,43.3,7.9,87.5,25,127.5,15.5,36.6,41.3,70.2,77.8,87.8,35.9,17.2,82.2,19.6,118.4,2.1,37.2-17.9,62.1-55.5,76.5-93.1,16.2-42.4,21.2-88.2,21.4-133.3-.2-38.4-4.1-83.8-17-125.3ZM295.8,539c-33.5-3.6-37.7-56.7-40.2-81.5-3.3-31.9-3.9-64.3-2.6-96.4,1-24.2,2.6-50,11.7-72.6,5.6-14,14.7-26.4,29.7-30.9,12.5-3.8,26-1.9,35.5,7.5,11.6,11.7,16,30.3,19,45.8,5.5,28.9,6.2,58.6,6.3,87.9,0,38.6,4.5,147.1-59.5,140.1Z"/>
    <path class="st3" d="M707.1,164.1v117.6c-5.7,12.9-11.6,25.7-17.3,38.5-38.5,85.7-77,171.3-115.4,256.9-8.1,18.1-16.3,36.2-24.4,54.3h-120.8c36.5-80.8,73.2-161.6,109.7-242.3,18.4-40.9,40-80.2,64.6-117.7,2.5-3.8-2.1-6.4-5.4-6.4h-134c-5.7-17.1-13.1-33.4-22.3-48.2v-52.7h265.4Z"/>
    <rect class="st2" x="726.3" y="162.7" width="110.2" height="470.1"/>
    <g>
      <path class="st0" d="M51.6,735.6l-9.6,5.7c-1.8-3.1-3.5-5.1-5.1-6.1-1.7-1.1-3.9-1.6-6.5-1.6s-6,.9-8.1,2.8c-2.2,1.8-3.2,4.1-3.2,6.9s2.8,6.9,8.5,9.2l7.8,3.2c6.3,2.6,11,5.7,13.9,9.4,2.9,3.7,4.4,8.2,4.4,13.6s-2.4,13.1-7.2,17.8c-4.8,4.7-10.8,7.1-18,7.1s-12.4-2-16.8-6c-4.3-4-7.1-9.7-8.1-16.9l11.9-2.6c.5,4.6,1.5,7.8,2.8,9.5,2.4,3.4,6,5.1,10.6,5.1s6.7-1.2,9.2-3.7c2.4-2.5,3.6-5.6,3.6-9.4s-.2-2.9-.6-4.2c-.4-1.3-1.1-2.4-2-3.5-.9-1.1-2-2.1-3.5-3-1.4-.9-3.1-1.8-5.1-2.7l-7.5-3.1c-10.7-4.5-16-11.1-16-19.8s2.2-10.8,6.7-14.7c4.5-4,10.1-6,16.7-6s16,4.4,21.1,13.2Z"/>
      <path class="st0" d="M65.1,802.1l16.4-84,26.8,60.7,27.8-60.7,14.8,84h-12.1l-7.5-47.1-23.1,50.7-22.5-50.8-8.4,47.2h-12.2Z"/>
      <path class="st0" d="M213.3,783.1h-33.4l-8.7,19h-12.7l38.6-83,37.3,83h-12.9l-8.2-19ZM208.5,772l-11.6-26.6-12.1,26.6h23.7Z"/>
      <path class="st0" d="M270.6,768.8l24.2,33.3h-14.4l-22.3-32h-2.1v32h-11.8v-78.1h13.8c10.3,0,17.8,1.9,22.4,5.8,5.1,4.3,7.6,10,7.6,17.1s-1.6,10.3-4.8,14.3c-3.2,4-7.4,6.5-12.5,7.6ZM255.9,759.8h3.7c11.2,0,16.7-4.3,16.7-12.8s-5.4-12-16.3-12h-4.2v24.8Z"/>
      <path class="st0" d="M327.1,735.1v67h-11.8v-67h-18v-11.1h47.6v11.1h-17.9Z"/>
      <path class="st0" d="M395.4,754.1h29.3v-30.1h20.3v78.1h-20.3v-32.2h-29.3v32.2h-20.3v-78.1h20.3v30.1Z"/>
      <path class="st0" d="M478.6,763c0-5.8,1.1-11.2,3.2-16.2,2.1-5,5.1-9.4,8.9-13.1,3.8-3.7,8.3-6.6,13.6-8.8,5.3-2.1,11.1-3.2,17.5-3.2s12.1,1.1,17.4,3.2c5.3,2.1,9.9,5,13.7,8.8,3.8,3.7,6.8,8.1,9,13.1,2.1,5,3.2,10.4,3.2,16.2s-1.1,11.2-3.2,16.2c-2.1,5-5.1,9.4-9,13.1-3.8,3.7-8.4,6.6-13.7,8.8-5.3,2.1-11.1,3.2-17.4,3.2s-12.2-1.1-17.5-3.2c-5.3-2.1-9.8-5-13.6-8.8-3.8-3.7-6.8-8.1-8.9-13.1-2.1-5-3.2-10.4-3.2-16.2ZM499.8,763c0,3.1.6,6,1.8,8.6,1.2,2.6,2.8,4.9,4.8,6.8,2,1.9,4.3,3.4,7,4.5,2.7,1.1,5.5,1.6,8.4,1.6s5.8-.5,8.4-1.6c2.7-1.1,5-2.6,7-4.5,2-1.9,3.6-4.2,4.8-6.8,1.2-2.6,1.8-5.5,1.8-8.6s-.6-6-1.8-8.6c-1.2-2.6-2.8-4.9-4.8-6.8-2-1.9-4.4-3.4-7-4.5-2.7-1.1-5.5-1.6-8.4-1.6s-5.8.5-8.4,1.6c-2.7,1.1-5,2.6-7,4.5-2,1.9-3.6,4.2-4.8,6.8-1.2,2.6-1.8,5.5-1.8,8.6Z"/>
      <path class="st0" d="M595.1,802.1l13.3-78.1h20.1l15.6,41.6,15.5-41.6h20.1l13.3,78.1h-20.2l-6.7-45-18.4,45h-8.1l-17.5-45-6.7,45h-20.2Z"/>
      <path class="st0" d="M771,741.2h-24.1v13h22.8v17.2h-22.8v13.5h24.1v17.2h-44.4v-78.1h44.4v17.2Z"/>
    </g>
    <path class="st1" d="M968.9,672.4V207.2c0-8.1-3.2-15.9-9-21.7l-13.1-13.1c-6.7-6.7-15.8-10.5-25.3-10.5h-62.8v511.4c-44.2,27.6-66.8,86.7-35.3,146.1,7.9,14.9,20.3,27.2,35.2,35.1,80.9,42.6,162-14.9,162-91.4s-20.7-72.3-51.6-90.8ZM940.9,795.6c-41.9,27.1-86.5-17.5-59.4-59.4,1.7-2.7,4.1-5,6.7-6.7,41.9-27.1,86.5,17.5,59.4,59.4-1.7,2.7-4.1,5-6.7,6.7Z"/>
  </g>
</svg>