<?xml version="1.0" encoding="UTF-8"?>
<svg id="MERX_IPC_Horizon_Tube" xmlns="http://www.w3.org/2000/svg" version="1.1" viewBox="0 0 1296 816">
  <!-- Generator: Adobe Illustrator 29.5.0, SVG Export Plug-In . SVG Version: 2.1.0 Build 137)  -->
  <path id="IPC_Tube_camera_Horizon_HZ-1000" d="M69.99,383c-7.48-3.62-13.25-8.1-16.47-16.02l-25.51-102.49c2.97-39.04,15.54-77.08,22.27-115.71,2.73-9.04,4.76-11.76,13.04-15.96,24.08-12.19,53.22-18.76,79.46-24.54L781.46,36.96h34.08c58.43,3.12,118.54,12.9,172.14,36.86,22.25,9.95,34.73,17.5,46.2,39.8,10.63,20.67,22.97,48.72,31.59,70.41,11.48,28.9,6.72,45.69,5.49,75.43-.92,22.23,1.31,63.73-11.12,81.88-6.62,9.66-22.04,14.09-32.59,18.41-31.68,13-64.03,24.58-95.87,37.21-15.84,1.41-17.97-27.09-33.88-26.94-84.2,27.85-167.02,60.59-250.68,90.3-15.48,3.63-26.64-3.65-31.32-18.31-7.33-35.02-9.83-71.14-16.81-106.19-2.91-14.59-7.87-22.31-15.27-34.73-19.77-33.18-43.11-70.25-65-102-22.16-32.13-76.84-52.8-113.65-64.35-98.11-30.79-249.07-22.22-304.94,77.6-29.93,53.48-27.34,95.62-28.79,154.21-.13,5.13-1.97,10.96-1.05,16.46ZM168.33,168.83c-55.35,31.81-77.53,95.58-80.32,156.68-2.22,48.66-1.75,106.21-.05,155.03,4.33,124.29,55.01,213.53,180.85,242.15,50.21,11.42,124.51,29.21,174.73,26.35,107.59-6.13,149.65-91.87,153.5-189.5,1.42-36.16,2.29-83.29,0-119.08-1.8-28.08-9.61-70.53-15.33-98.67-2.34-11.53-4.49-16.68-10.29-26.71-21.82-37.7-48.92-74.06-71.59-111.41-9.2-11.06-22.02-17.9-34.62-24.38-48.47-24.96-102-40.56-156.72-43.28l-16.7.28c-39.94,1.56-88.75,12.58-123.47,32.53ZM238.49,300.01c55.45,9.91,116.75,9.55,171.56,20.44,41.98,8.34,70.65,52.42,73.82,93.18,2.94,37.78-1.96,78.79.17,116.91-6.14,52.3-39.7,87.01-94.38,80.29-51.81-6.37-104.77-19.99-156.66-27.34-91.27-31.66-66.99-133.58-70.05-209.03,2.42-36.04,27.22-70.43,64.83-74.17,3.57-.36,7.11-.43,10.7-.28ZM933.4,414.89c-8.8,1.32-18.63-2.81-24.94-8.84-3.65-3.49-10.45-17.32-14.69-16.89l-243.32,88.79c-12.12,3.55-25.03,1.02-35.43-5.94-1.01,53.81,4.47,107.84-10.29,160.22-30.31,107.53-111.59,148.88-219.9,131.47-23.2-3.73-46.19-9.54-69.33-13.67-2.45,7.62,2.71,15.08,10.29,16.71,42.33,8.35,84.21,19.97,126.63,27.2l169.04-83.98c5.54-6.25,2.25-15.86,4.2-18.04l361.83-189.93c8.85-7.96,15.75-17.93,21.95-28.05,19.07-31.13,32.4-66.89,38.57-102.92l-114.6,43.88ZM1037.51,85.99c12.16,14.59,17.77,35.53,26.91,52.09,17.31,3.53,35.57.09,52.54,5.46,62.87,19.91,36.46,105.16,42.08,154-2.05,19.11-13.29,35.69-29.73,45.27l-61.8,23.2c-3.31,13.28-5.28,26.8-9.01,39.99-2.81,9.95-6.59,19.93-10.46,29.52l2.49,1.46c46.92,3.46,96.56,17.81,142.99,21.01,40.65,2.81,68.41-20.66,74.52-60.45-.15-85.7.09-171.39-.08-257.08-.08-36.19,6.74-74-24.94-99.96-25.4-20.82-66.26-14.58-97.55-15.45-43.83-1.22-88.09-3.53-131.92-4.08-24.05-.31-45.53-.93-64.02,17.06-.98.95-1.89,1.31-1.52,2.98,29.91,9.35,68.79,20.15,89.51,44.99ZM1141.04,295.54c2.48-31.52-1.96-66.21,0-98.07-1.33-15.39-13.27-31.03-27.76-36.24-12.22-4.39-27.12-1.76-39.76-4.24-1.1.05-.39,1.29-.09,2.09,4,10.64,10.26,20.47,13.59,31.41,8.13,26.69,1.72,74.03-.06,102.98-.31,4.96.44,10.07.03,15.03-.95,11.65-3.31,22.46-6.98,33.51,24.74-9.59,58.45-13.66,61.03-46.46ZM181.13,371.63c2.1,38.84-3.26,81.45-.11,119.86,2.63,32.11,27.15,66.76,58.98,75.02,49.83,12.94,107.08,15.24,157.64,27.36,39.34,3.25,64.73-26.34,68.41-63.33-5.91-65.48,24.75-165.5-57.81-192.27l-169.73-20.26c-2.6-.3-5.13.04-7.7.28-27.91,2.57-46.3,26.93-49.66,53.33ZM369.31,525.81c-53.92,36.56-114.92-11.71-123.19-68.43-6.41-43.96,18.71-95.14,66.68-100.09,85.99-8.87,126.82,120.85,56.52,168.52ZM310.75,377.25c-43.73,7.73-55.95,61.77-40.61,98.1,16.68,39.52,65.76,61.28,98.51,26.29,42.02-44.89,6.05-135.7-57.89-124.4ZM308.69,403.19c-10.34,5.78-17.97,15.62-22.55,26.45-2.19,5.18-2.96,11.37-5.05,15.95-.4.88-.39,3.06-2.08,1.4-.57-.56-1.96-7.02-2.06-8.46-1.71-25.74,21.86-53.14,49.04-45.53,2.3,3.22-15.1,8.95-17.3,10.18Z"/>
</svg>