<?xml version="1.0" encoding="UTF-8"?>
<svg id="_1" data-name=" 1" xmlns="http://www.w3.org/2000/svg" viewBox="0 0 321.26 58.91">
  <path d="M240.01,57.55h-21.69v-15.13h-30.36v15.13h-21.68V13.1c0-3.79,1.42-6.8,4.29-9.06,2.8-2.19,6.79-3.28,11.99-3.28h41.27c5.2,0,9.19,1.09,11.98,3.28,2.8,2.19,4.2,5.22,4.2,9.06v44.45ZM218.32,31.96V15.53h-30.36v16.43h30.36ZM317.77,3.61c-2.19-1.74-5.56-2.67-10.08-2.82l.08-.02h-.85c-.18,0-.35,0-.54,0h-38.61s-1.26,0-1.26,0c-5.2,0-9.19,1.08-11.99,3.28-2.8,2.18-4.21,5.12-4.29,8.79h0v.14c0,.06,0,.09,0,.14h0v44.44h21.69v-14.83h35.06c9.52,0,14.29-3.81,14.29-11.48V13.03c0-4.38-1.16-7.51-3.49-9.42ZM299.19,30.25h-27.58v-14.72h27.58v14.72ZM139.02.76h-3.24v33.04c-.14.35-.45.61-1.12.49,0,0-.43-.09-.73-.41-3.66-5.66-17.75-25.03-22.26-31.21-.01-.03-.04-.04-.05-.07h.01c-.07-.07-.15-.13-.22-.19-.03-.05-.06-.09-.11-.11-1.15-1.03-2.65-1.54-4.65-1.54h-17.52c-2.21,0-3.9.63-5.08,1.86-1.19,1.25-1.79,2.92-1.81,4.99l-.03.02v49.92h20.49s-.11-26.37-.17-34.14c.09-.52.46-1.26,2.02-1.08,0,0,.6.04.86.5h0c3.95,6.31,29.86,34.72,29.86,34.72h21.28V.76h-17.52ZM45.45,43.71h-22.57V13.74h30.23v25.36c9.08,2.84,15.33,6.5,19.58,9.96.71-1.81,1.08-3.9,1.08-6.29V15.09C73.77,5.58,68.21.57,57.1.05V0h-1.82c-.07,0-.13,0-.2,0h0S18.69,0,18.69,0C6.23,0,0,5.03,0,15.09v27.68c0,9.99,6.23,14.99,18.69,14.99h36.45v-.02c1.92,0,3.68-.14,5.31-.38-3.28-4.7-9.47-9.73-14.99-13.65ZM63.05,58.91h16.28c-2.28-4.41-11.33-17.12-41.09-21.73,6.35,3.93,20.7,13.48,24.8,21.73Z" style="fill: #fff;"/>
</svg>