<svg width="85" height="85" viewBox="0 0 85 85" fill="none" xmlns="http://www.w3.org/2000/svg">
<g clip-path="url(#clip0_55_1483)">
<path d="M17 0.100006H67.9C77.3 0.100006 84.9 7.70001 84.9 17.1V68C84.9 77.4 77.3 85 67.9 85H17C7.6 85 0 77.4 0 68V17.1C0 7.70001 7.6 0.100006 17 0.100006Z" fill="url(#paint0_linear_55_1483)"/>
<path opacity="0.5" d="M17 0H68C77.4 0 85 7.6 85 17V68C85 77.4 77.4 85 68 85H17C7.6 85 0 77.4 0 68V17C0 7.6 7.6 0 17 0Z" fill="url(#paint1_linear_55_1483)"/>
<path d="M36.6999 29.1H33.0999C31.5999 29.1 30.2999 30.3 30.2999 31.9V36L18.4999 25.9L18.2999 25.7L14.3999 22.4V19.6C14.3999 18.7 14.5999 17.8 14.9999 17C15.3999 16.3 15.8999 15.7 16.4999 15.2C17.1999 14.6 18.0999 14.2 19.0999 14.1L22.9999 17.4L23.1999 17.6L36.6999 29.1Z" fill="url(#paint2_linear_55_1483)"/>
<path d="M70.6001 31.7V33.7C70.6001 33.4 70.6001 33.1 70.5001 32.8C70.1001 31.5 69.0001 30.6 67.7001 30.6H38.7001L25.0001 18.9L21.1001 15.6C21.4001 15.6 21.6001 15.5 21.9001 15.5H54.6001C55.2001 15.6 55.8001 15.8 56.3001 16.2L56.4001 16.3L56.7001 16.6L57.0001 16.9L62.9001 22.8L69.5001 29.4L69.6001 29.5L69.9001 29.8L70.0001 29.9C70.3001 30.3 70.5001 31 70.6001 31.7Z" fill="url(#paint3_linear_55_1483)"/>
<path d="M38.5998 30.5H34.9998C33.4998 30.5 32.1998 31.7 32.1998 33.3V33.4V49.3V49.5C32.1998 51.9 31.1998 54.2 29.3998 55.9L16.2998 67.9V21C16.2998 20.1 16.4998 19.2 16.9998 18.4C17.3998 17.7 17.8998 17.1 18.4998 16.6C19.1998 16 20.0998 15.6 21.0998 15.5L24.9998 18.8L25.1998 19L38.5998 30.5Z" fill="url(#paint4_linear_55_1483)"/>
<path d="M70.5998 33.7V63C70.5998 64.5 69.9998 65.9 68.9998 66.9L68.7998 67L54.2998 52.5L54.3998 52.4C55.0998 51.9 55.4998 51.1 55.4998 50.2V45.7V45.6V30.5H67.3998C69.1998 30.5 70.5998 31.9 70.5998 33.7Z" fill="url(#paint5_linear_55_1483)"/>
<path d="M70.5998 33.7V63C70.5998 64.5 69.9998 65.9 68.9998 66.9L68.7998 67L54.2998 52.5L54.3998 52.4C55.0998 51.9 55.4998 51.1 55.4998 50.2V45.7V45.6V30.5H67.3998C69.1998 30.5 70.5998 31.9 70.5998 33.7Z" fill="url(#paint6_linear_55_1483)"/>
<path d="M68.8 67C68.6 67.2 68.3 67.4 68 67.6C67.1 68.2 66.1 68.5 65.1 68.5H52.5C49.7 68.5 46.9 67.4 44.8 65.5L31.5 53.2C31.5 53.2 47 53 51.3 53H53.3C53.7 52.9 54 52.8 54.3 52.6L68.8 67Z" fill="url(#paint7_linear_55_1483)"/>
<path opacity="0.1" d="M70.5001 31.6V33.5C70.5001 33.4 70.5001 33.3 70.5001 33.2V33.1C70.5001 33 70.5001 32.9 70.4001 32.7C70.3001 32.5 70.3001 32.4 70.2001 32.2C70.1001 32.1 70.1001 32 70.0001 31.8C69.9001 31.7 69.8001 31.6 69.8001 31.5C69.7001 31.4 69.5001 31.2 69.4001 31.1C69.3001 31 69.2001 30.9 69.0001 30.9C68.9001 30.9 68.9001 30.8 68.8001 30.8C68.7001 30.8 68.7001 30.7 68.6001 30.7C68.5001 30.6 68.3001 30.6 68.1001 30.6C67.9001 30.6 67.8001 30.5 67.6001 30.5H55.6001V15.7C55.8001 15.8 56.1001 15.9 56.3001 16.1L56.4001 16.2L56.7001 16.5L57.0001 16.8L62.9001 22.7L69.5001 29.3L69.6001 29.4L69.9001 29.7L70.0001 29.8C70.3001 30.3 70.5001 31 70.5001 31.6Z" fill="url(#paint8_linear_55_1483)"/>
<path d="M69.8999 29.8L69.5999 29.4C69.5999 29.4 69.4999 29.4 69.4999 29.3L62.8999 22.7L56.9999 16.9L56.6999 16.6L56.3999 16.3L56.2999 16.2C55.7999 15.8 55.1999 15.6 54.5999 15.5H52.3999C52.9999 15.6 53.5999 15.8 54.0999 16.2L54.1999 16.3L54.4999 16.6L54.7999 16.9L60.6999 22.8L67.2999 29.4L67.3999 29.5L67.6999 29.8C67.6999 29.8 67.6999 29.8 67.6999 29.9C67.8999 30.1 68.0999 30.4 68.1999 30.7C69.2999 31 70.0999 31.8 70.3999 32.8C70.4999 33.1 70.4999 33.4 70.4999 33.7V31.7C70.4999 31 70.2999 30.3 69.8999 29.8Z" fill="url(#paint9_linear_55_1483)"/>
<path opacity="0.8" d="M55.6001 30.6V45.7V45.8V50.3C55.6001 50.9 55.4001 51.5 55.0001 52C54.9001 52.2 54.7001 52.4 54.5001 52.5L54.4001 52.6C54.1001 52.8 53.8001 53 53.4001 53H51.4001C48.0001 53 36.1001 53.1 31.6001 53.2C32.1001 52 32.4001 50.8 32.4001 49.5V49.3V33.4V33.3C32.4001 31.8 33.6001 30.7 35.0001 30.6H55.6001Z" fill="url(#paint10_linear_55_1483)"/>
<path d="M16.5002 68L16.2002 67.6L29.3002 55.6C31.0002 54 32.0002 51.8 32.0002 49.4V33.2C32.0002 31.5 33.3002 30.2 35.0002 30.2H67.6002C69.0002 30.3 70.3002 31.2 70.7002 32.6C70.8002 32.9 70.9002 33.2 70.9002 33.5H70.4002C70.4002 33.2 70.4002 33 70.3002 32.7C70.0002 31.5 68.9002 30.7 67.7002 30.6H35.1002C33.7002 30.6 32.6002 31.7 32.6002 33.1V49.3C32.6002 51.8 31.5002 54.2 29.7002 55.9L16.5002 68Z" fill="url(#paint11_linear_55_1483)"/>
<path d="M38.5999 30.5H34.9999C33.4999 30.5 32.1999 31.7 32.1999 33.3V37.4L20.4999 27.3L20.2999 27.1L16.3999 23.8V21C16.3999 20.1 16.5999 19.2 16.9999 18.4C17.3999 17.7 17.8999 17.1 18.4999 16.6C19.1999 16 20.0999 15.6 21.0999 15.5L24.9999 18.8L25.1999 19L38.5999 30.5Z" fill="url(#paint12_linear_55_1483)"/>
<path d="M65.0002 68.7H54.2002V68.2H65.0002C68.0002 68.2 70.4002 65.8 70.4002 62.8V36H70.9002V62.9C70.9002 66.1 68.2002 68.7 65.0002 68.7Z" fill="url(#paint13_linear_55_1483)"/>
</g>
<defs>
<linearGradient id="paint0_linear_55_1483" x1="14.6059" y1="12.7498" x2="69.617" y2="71.5362" gradientUnits="userSpaceOnUse">
<stop stop-color="white"/>
<stop offset="0.3306" stop-color="#F7F1F1"/>
<stop offset="1" stop-color="#E8D9D8"/>
</linearGradient>
<linearGradient id="paint1_linear_55_1483" x1="10.4707" y1="10.9673" x2="75.0357" y2="74.5312" gradientUnits="userSpaceOnUse">
<stop stop-color="#D1B5B4"/>
<stop offset="0.0715844" stop-color="#DBC2C1" stop-opacity="0.8595"/>
<stop offset="0.2326" stop-color="#EEDAD9" stop-opacity="0.5433"/>
<stop offset="0.3826" stop-color="#FAE8E7" stop-opacity="0.2489"/>
<stop offset="0.5094" stop-color="#FEEDEC" stop-opacity="0"/>
<stop offset="0.6245" stop-color="#FAE9E8" stop-opacity="0.2347"/>
<stop offset="0.7406" stop-color="#EFDDDC" stop-opacity="0.4713"/>
<stop offset="0.8572" stop-color="#DDC9C8" stop-opacity="0.709"/>
<stop offset="0.9735" stop-color="#C4ADAC" stop-opacity="0.946"/>
<stop offset="1" stop-color="#BDA5A5"/>
</linearGradient>
<linearGradient id="paint2_linear_55_1483" x1="31.1726" y1="16.5641" x2="14.5926" y2="36.514" gradientUnits="userSpaceOnUse">
<stop offset="0.22" stop-color="white" stop-opacity="0"/>
<stop offset="0.29" stop-color="white" stop-opacity="0.06"/>
<stop offset="0.42" stop-color="white" stop-opacity="0.2"/>
<stop offset="0.55" stop-color="white" stop-opacity="0"/>
</linearGradient>
<linearGradient id="paint3_linear_55_1483" x1="22.9592" y1="8.4279" x2="63.8592" y2="33.3579" gradientUnits="userSpaceOnUse">
<stop stop-color="#F2261C"/>
<stop offset="0.12" stop-color="#F64A41"/>
<stop offset="0.24" stop-color="#F9665E"/>
<stop offset="0.36" stop-color="#FB7A72"/>
<stop offset="0.47" stop-color="#FD867F"/>
<stop offset="0.58" stop-color="#FD8A83"/>
<stop offset="0.8" stop-color="#FE9776"/>
<stop offset="1" stop-color="#FF9D70"/>
</linearGradient>
<linearGradient id="paint4_linear_55_1483" x1="27.4498" y1="12.48" x2="27.4498" y2="67.4302" gradientUnits="userSpaceOnUse">
<stop stop-color="#FF9D70"/>
<stop offset="0.1" stop-color="#FD9283"/>
<stop offset="0.6" stop-color="#F9523C"/>
<stop offset="1" stop-color="#F62308"/>
</linearGradient>
<linearGradient id="paint5_linear_55_1483" x1="57.9094" y1="29.2068" x2="73.0794" y2="74.7168" gradientUnits="userSpaceOnUse">
<stop stop-color="#F57600"/>
<stop offset="0.05" stop-color="#F87122"/>
<stop offset="0.1" stop-color="#FA6C40"/>
<stop offset="0.16" stop-color="#FC6859"/>
<stop offset="0.23" stop-color="#FD656C"/>
<stop offset="0.31" stop-color="#FE6379"/>
<stop offset="0.41" stop-color="#FF6181"/>
<stop offset="0.61" stop-color="#FF6183"/>
</linearGradient>
<linearGradient id="paint6_linear_55_1483" x1="57.9094" y1="29.2068" x2="73.0794" y2="74.7168" gradientUnits="userSpaceOnUse">
<stop stop-color="#F55600"/>
<stop offset="0.25" stop-color="#F8884C" stop-opacity="0.7"/>
<stop offset="0.52" stop-color="#FBBB98" stop-opacity="0.4"/>
<stop offset="0.74" stop-color="#FDE0D0" stop-opacity="0.19"/>
<stop offset="0.91" stop-color="#FEF6F2" stop-opacity="0.05"/>
<stop offset="1" stop-color="white" stop-opacity="0"/>
</linearGradient>
<linearGradient id="paint7_linear_55_1483" x1="73.6624" y1="68.0017" x2="25.0224" y2="50.9116" gradientUnits="userSpaceOnUse">
<stop offset="0.15" stop-color="#FF6183"/>
<stop offset="0.43" stop-color="#E94F9F"/>
<stop offset="0.71" stop-color="#D841B4"/>
<stop offset="0.9" stop-color="#D23CBC"/>
</linearGradient>
<linearGradient id="paint8_linear_55_1483" x1="63.0501" y1="20.05" x2="63.0501" y2="38.4302" gradientUnits="userSpaceOnUse">
<stop offset="0.26" stop-color="#CC195B"/>
<stop offset="0.3" stop-color="#D11E60" stop-opacity="0.94"/>
<stop offset="0.43" stop-color="#DB2F6E" stop-opacity="0.9"/>
<stop offset="0.87" stop-color="#FE689C" stop-opacity="0.8"/>
</linearGradient>
<linearGradient id="paint9_linear_55_1483" x1="64.5749" y1="21.4048" x2="60.1249" y2="25.9548" gradientUnits="userSpaceOnUse">
<stop offset="0.32" stop-color="white"/>
<stop offset="0.35" stop-color="white" stop-opacity="0.79"/>
<stop offset="0.38" stop-color="white" stop-opacity="0.61"/>
<stop offset="0.4" stop-color="white" stop-opacity="0.46"/>
<stop offset="0.43" stop-color="white" stop-opacity="0.35"/>
<stop offset="0.46" stop-color="white" stop-opacity="0.27"/>
<stop offset="0.49" stop-color="white" stop-opacity="0.22"/>
<stop offset="0.51" stop-color="white" stop-opacity="0.2"/>
<stop offset="0.56" stop-color="white" stop-opacity="0.1"/>
<stop offset="0.61" stop-color="white" stop-opacity="0.03"/>
<stop offset="0.64" stop-color="white" stop-opacity="0"/>
</linearGradient>
<linearGradient id="paint10_linear_55_1483" x1="43.6001" y1="30.6" x2="43.6001" y2="66.1899" gradientUnits="userSpaceOnUse">
<stop offset="0.05" stop-color="white" stop-opacity="0.7"/>
<stop offset="0.59" stop-color="#FEB8B4" stop-opacity="0.28"/>
<stop offset="0.97" stop-color="#FD8A83" stop-opacity="0"/>
</linearGradient>
<linearGradient id="paint11_linear_55_1483" x1="16.1413" y1="49.1" x2="70.8413" y2="49.1" gradientUnits="userSpaceOnUse">
<stop stop-color="white" stop-opacity="0"/>
<stop offset="0.1168" stop-color="white" stop-opacity="0.18"/>
<stop offset="0.2744" stop-color="white"/>
<stop offset="0.6" stop-color="white" stop-opacity="0.99"/>
<stop offset="0.7278" stop-color="white" stop-opacity="0.61"/>
<stop offset="0.8527" stop-color="white" stop-opacity="0.12"/>
<stop offset="1" stop-color="white" stop-opacity="0"/>
</linearGradient>
<linearGradient id="paint12_linear_55_1483" x1="33.1139" y1="17.975" x2="16.5239" y2="37.9352" gradientUnits="userSpaceOnUse">
<stop offset="0.22" stop-color="white" stop-opacity="0"/>
<stop offset="0.29" stop-color="white" stop-opacity="0.06"/>
<stop offset="0.42" stop-color="white" stop-opacity="0.2"/>
<stop offset="0.55" stop-color="white" stop-opacity="0"/>
</linearGradient>
<linearGradient id="paint13_linear_55_1483" x1="78.0878" y1="43.1877" x2="53.3878" y2="67.8876" gradientUnits="userSpaceOnUse">
<stop stop-color="white" stop-opacity="0"/>
<stop offset="0.2124" stop-color="white" stop-opacity="0.18"/>
<stop offset="0.48" stop-color="white"/>
<stop offset="0.7197" stop-color="white" stop-opacity="0.99"/>
<stop offset="1" stop-color="white" stop-opacity="0"/>
</linearGradient>
<clipPath id="clip0_55_1483">
<rect width="85" height="85" fill="white"/>
</clipPath>
</defs>
</svg>
