<?xml version="1.0" encoding="UTF-8"?>
<svg version="1.1" xmlns="http://www.w3.org/2000/svg" width="1841" height="1842">
<path d="M0 0 C607.53 0 1215.06 0 1841 0 C1841 607.86 1841 1215.72 1841 1842 C1233.47 1842 625.94 1842 0 1842 C0 1234.14 0 626.28 0 0 Z " fill="#728CA6" transform="translate(0,0)"/>
<path d="M0 0 C574.53 0 1149.06 0 1741 0 C1741 134.97 1741 269.94 1741 409 C1729.75736961 403.37868481 1729.75736961 403.37868481 1725.6875 400.9765625 C1724.7711377 400.43845947 1723.85477539 399.90035645 1722.91064453 399.34594727 C1721.46987549 398.49407837 1721.46987549 398.49407837 1720 397.625 C1717.87273476 396.37572478 1715.74511842 395.12704725 1713.6171875 393.87890625 C1712.52631836 393.23840332 1711.43544922 392.59790039 1710.31152344 391.93798828 C1704.92999121 388.78857787 1699.52804976 385.67480693 1694.125 382.5625 C1693.04605469 381.94068848 1691.96710938 381.31887695 1690.85546875 380.67822266 C1688.66449064 379.41567477 1686.47340981 378.15330512 1684.28222656 376.89111328 C1677.77128743 373.13971976 1671.26336806 369.38309006 1664.75488281 365.62744141 C1659.31414664 362.48817754 1653.87268523 359.35018503 1648.4296875 356.21484375 C1636.9455118 349.59777108 1625.47803106 342.95366023 1614.03417969 336.26708984 C1603.47379718 330.10080946 1592.87873234 323.9950405 1582.28222656 317.89111328 C1575.77128743 314.13971976 1569.26336806 310.38309006 1562.75488281 306.62744141 C1557.31414664 303.48817754 1551.87268523 300.35018503 1546.4296875 297.21484375 C1534.9455118 290.59777108 1523.47803106 283.95366023 1512.03417969 277.26708984 C1501.4987388 271.11537305 1490.92855222 265.02432352 1480.35693359 258.93505859 C1476.86807297 256.92395246 1473.38105172 254.90969005 1469.89453125 252.89453125 C1468.71794788 252.21474214 1467.54135295 251.53497305 1466.36474609 250.85522461 C1464.14731622 249.57401834 1461.93017441 248.29231333 1459.71337891 247.01000977 C1457.72425576 245.86124276 1455.72994834 244.72138969 1453.72973633 243.59204102 C1451.96482514 242.5627068 1450.23111629 241.47700025 1448.54174805 240.32788086 C1444.59096034 237.60649537 1444.59096034 237.60649537 1440.00317383 237.32617188 C1437.81045859 238.30372242 1435.92915518 239.47188249 1433.9375 240.8125 C1432.35028711 241.78519981 1430.76304605 242.75785365 1429.17578125 243.73046875 C1428.33740723 244.26333496 1427.4990332 244.79620117 1426.63525391 245.34521484 C1422.03941928 248.2311299 1417.3221096 250.90836647 1412.625 253.625 C1410.57248178 254.82608005 1408.52040906 256.0279217 1406.46875 257.23046875 C1399.71313009 261.17779317 1392.92229588 265.06259123 1386.125 268.9375 C1373.79950519 275.96560673 1361.50277637 283.04240605 1349.21777344 290.14111328 C1343.81329355 293.26324605 1338.40652588 296.38141204 1333 299.5 C1330.8333225 300.74998122 1328.66665583 301.99998121 1326.5 303.25 C1304.83333333 315.75 1283.16666667 328.25 1261.5 340.75 C1260.42766113 341.36866943 1259.35532227 341.98733887 1258.25048828 342.62475586 C1256.08223736 343.8756448 1253.91394303 345.12645852 1251.74560547 346.37719727 C1246.35282085 349.48798335 1240.96077907 352.60004238 1235.5703125 355.71484375 C1223.76370516 362.53502637 1211.93973 369.3232326 1200.09527588 376.07736206 C1192.03736788 380.67394223 1184.00582214 385.3132416 1176 390 C1167.40477328 395.0318069 1158.7768787 400.00389072 1150.125 404.9375 C1137.79974804 411.96603507 1125.50277933 419.04240434 1113.21777344 426.14111328 C1107.81329355 429.26324605 1102.40652588 432.38141204 1097 435.5 C1094.8333225 436.74998122 1092.66665583 437.99998121 1090.5 439.25 C1068.83333333 451.75 1047.16666667 464.25 1025.5 476.75 C1024.42766113 477.36866943 1023.35532227 477.98733887 1022.25048828 478.62475586 C1020.08223736 479.8756448 1017.91394303 481.12645852 1015.74560547 482.37719727 C1010.35282085 485.48798335 1004.96077907 488.60004238 999.5703125 491.71484375 C987.76370516 498.53502637 975.93973 505.3232326 964.09527588 512.07736206 C956.03736788 516.67394223 948.00582214 521.3132416 940 526 C931.40477328 531.0318069 922.7768787 536.00389072 914.125 540.9375 C901.79974804 547.96603507 889.50277933 555.04240434 877.21777344 562.14111328 C871.81329355 565.26324605 866.40652588 568.38141204 861 571.5 C858.8333225 572.74998122 856.66665583 573.99998121 854.5 575.25 C824.16666667 592.75 793.83333333 610.25 763.5 627.75 C762.42766113 628.36866943 761.35532227 628.98733887 760.25048828 629.62475586 C758.08223736 630.8756448 755.91394303 632.12645852 753.74560547 633.37719727 C748.35282085 636.48798335 742.96077907 639.60004238 737.5703125 642.71484375 C725.76370516 649.53502637 713.93973 656.3232326 702.09527588 663.07736206 C694.03736788 667.67394223 686.00582214 672.3132416 678 677 C669.40477328 682.0318069 660.7768787 687.00389072 652.125 691.9375 C639.79974804 698.96603507 627.50277933 706.04240434 615.21777344 713.14111328 C609.81329355 716.26324605 604.40652588 719.38141204 599 722.5 C596.8333225 723.74998122 594.66665583 724.99998121 592.5 726.25 C570.83333333 738.75 549.16666667 751.25 527.5 763.75 C526.42766113 764.36866943 525.35532227 764.98733887 524.25048828 765.62475586 C522.08223736 766.8756448 519.91394303 768.12645852 517.74560547 769.37719727 C512.35282085 772.48798335 506.96077907 775.60004238 501.5703125 778.71484375 C489.76370516 785.53502637 477.93973 792.3232326 466.09527588 799.07736206 C458.03736788 803.67394223 450.00582214 808.3132416 442 813 C433.40477328 818.0318069 424.7768787 823.00389072 416.125 827.9375 C403.79974804 834.96603507 391.50277933 842.04240434 379.21777344 849.14111328 C373.81329355 852.26324605 368.40652588 855.38141204 363 858.5 C360.8333225 859.74998122 358.66665583 860.99998121 356.5 862.25 C343.5 869.75 343.5 869.75 340.24438477 871.62817383 C338.09635954 872.86746267 335.94840925 874.10688141 333.80053711 875.34643555 C328.71344451 878.28202567 323.62558153 881.21625672 318.5350647 884.14590454 C316.12456252 885.53328095 313.71448624 886.92139624 311.30444336 888.30957031 C309.59856032 889.29173815 307.89206014 890.27283385 306.18554688 891.25390625 C305.15623047 891.846875 304.12691406 892.43984375 303.06640625 893.05078125 C302.15834229 893.57325439 301.25027832 894.09572754 300.31469727 894.6340332 C298.50873799 895.69977966 296.74478871 896.83680752 295 898 C294.69815089 900.71519739 294.59526634 903.20380545 294.61803246 905.92236233 C294.61318207 906.75527476 294.60833168 907.58818719 294.60333431 908.44633939 C294.59060465 911.27064684 294.59945862 914.09449029 294.60800171 916.91880798 C294.60328322 918.95512827 294.59724729 920.99144586 294.59000164 923.02775872 C294.57381015 928.65972882 294.57643704 934.29156185 294.58192472 939.92354687 C294.58459008 946.00937744 294.56997619 952.09516878 294.55741978 958.18098354 C294.53788469 968.79930852 294.52928469 979.41759203 294.52805901 990.03593063 C294.52668909 1001.31399375 294.51879034 1012.59202334 294.50256538 1023.87007523 C294.50155172 1024.57647364 294.50053806 1025.28287205 294.49949368 1026.01067648 C294.4942983 1029.60542901 294.48898243 1033.20018136 294.48361545 1036.79493365 C294.44533106 1062.55266462 294.42061883 1088.31039294 294.40328979 1114.06814575 C294.38628047 1139.23358226 294.36303015 1164.39900072 294.33084106 1189.56442261 C294.32984992 1190.33993883 294.32885878 1191.11545505 294.3278376 1191.91447176 C294.31479709 1202.09407178 294.301345 1212.27367124 294.28775196 1222.45327054 C294.27211201 1234.16952475 294.25675556 1245.88577934 294.24133872 1257.60203384 C294.23621545 1261.49431258 294.23107895 1265.38659131 294.22591517 1269.27886999 C294.1981228 1290.23168202 294.17229999 1311.18449544 294.14829487 1332.13731214 C294.06668231 1403.34434954 293.95289033 1474.55106641 293.72265625 1545.7578125 C293.71704306 1547.50322644 293.71142997 1549.24864038 293.70581698 1550.99405432 C293.70034628 1552.68770569 293.69487089 1554.38135705 293.68939018 1556.07500839 C293.68709058 1556.78821315 293.68479098 1557.5014179 293.68242169 1558.23623492 C293.48302134 1619.49090247 293.23215034 1680.74547383 293 1742 C196.31 1742 99.62 1742 0 1742 C0 1167.14 0 592.28 0 0 Z " fill="#FFFFFF" transform="translate(50,50)"/>
<path d="M0 0 C0.94367432 0.64557861 1.88734863 1.29115723 2.85961914 1.95629883 C4.84655585 3.10894894 6.84295064 4.24543043 8.84790039 5.36645508 C10.95695459 6.58220227 13.0649918 7.79971507 15.17211914 9.01879883 C16.87597778 10.00323975 16.87597778 10.00323975 18.61425781 11.00756836 C26.54452783 15.59449989 34.44470104 20.2311281 42.32446289 24.90429688 C47.47329256 27.95749008 52.62959069 30.99735853 57.79711914 34.01879883 C58.69732788 34.54519707 58.69732788 34.54519707 59.61572266 35.08222961 C60.84659555 35.80194563 62.07747123 36.52165689 63.30834961 37.24136353 C73.13094386 42.98563182 82.92467731 48.77245637 92.67211914 54.64379883 C103.60645377 61.22873072 114.61726022 67.67444347 125.65209961 74.08911133 C131.49840567 77.49241082 137.33589857 80.91074304 143.17211914 84.33129883 C143.7796402 84.68734192 144.38716125 85.04338501 145.01309204 85.41021729 C157.28713967 92.60565019 169.52704143 99.85797948 181.76245117 107.11889648 C186.41778138 109.88068232 191.07527497 112.63879064 195.73461914 115.39379883 C196.60747559 115.90990723 197.48033203 116.42601562 198.37963867 116.95776367 C203.51081583 119.98826378 208.6491064 123.00639781 213.79321289 126.01489258 C216.25288134 127.4536382 218.7125214 128.89243234 221.17211914 130.33129883 C221.7879184 130.69148102 222.40371765 131.05166321 223.03817749 131.42276001 C232.59350542 137.01412072 242.09565107 142.6886738 251.57495117 148.40820312 C260.43489833 153.73771438 269.3811075 158.90977583 278.36035156 164.03491211 C279.38491455 164.62127441 280.40947754 165.20763672 281.46508789 165.81176758 C282.36380615 166.32376709 283.26252441 166.8357666 284.18847656 167.36328125 C285.06995361 167.88897705 285.95143066 168.41467285 286.85961914 168.95629883 C287.88934189 169.51684344 288.91906464 170.07738805 289.97999112 170.65491886 C292.85961914 172.95629883 292.85961914 172.95629883 293.60764613 175.88310187 C293.6062423 177.60980738 293.6062423 177.60980738 293.60481012 179.37139583 C293.61247867 180.01742887 293.62014723 180.66346192 293.62804816 181.32907172 C293.64652117 183.5080433 293.62200446 185.68443616 293.59790611 187.86332321 C293.60234163 189.44268173 293.60941068 191.02203467 293.61888329 192.60137101 C293.63736072 196.96681281 293.6181993 201.33142141 293.59321363 205.69680133 C293.57269687 210.42528723 293.58683654 215.1536845 293.59671021 219.88218689 C293.60920713 228.1866235 293.599243 236.49080254 293.57490993 244.79520941 C293.53837717 257.30403931 293.53668393 269.81271251 293.54170172 282.3215862 C293.5491638 303.28167989 293.52935405 324.24166099 293.49307251 345.20172119 C293.44410121 373.54264362 293.43245905 401.88337327 293.42724609 430.22436523 C293.39570943 498.38503271 293.31194325 566.54566791 293.23461914 634.70629883 C293.11086914 786.91879883 292.98711914 939.13129883 292.85961914 1095.95629883 C-67.50038086 1095.95629883 -427.86038086 1095.95629883 -799.14038086 1095.95629883 C-799.32600586 990.64504883 -799.51163086 885.33379883 -799.70288086 776.83129883 C-799.78481689 743.52562988 -799.86675293 710.21996094 -799.95117188 675.9050293 C-799.99182129 635.37060547 -799.99182129 635.37060547 -799.99937439 616.42092896 C-800.00834641 602.25152745 -800.04722861 588.08251 -800.10044171 573.91321646 C-800.15393397 559.47503679 -800.17393028 545.03710069 -800.16138541 530.59882558 C-800.15491238 522.00676362 -800.17297779 513.4156056 -800.22764922 504.82371036 C-800.26127614 499.15615134 -800.26249901 493.48919586 -800.23689892 487.82159606 C-800.22323784 484.58936861 -800.22898558 481.35924154 -800.26432407 478.12712693 C-800.30021634 474.64123779 -800.28113483 471.1598982 -800.24781132 467.67408562 C-800.28327615 466.15989775 -800.28327615 466.15989775 -800.31945745 464.61512022 C-800.17479606 457.9677814 -800.17479606 457.9677814 -797.16927474 455.02889146 C-794.8840967 453.48477269 -792.60411183 452.19065928 -790.14038086 450.95629883 C-789.14127686 450.35043945 -788.14217285 449.74458008 -787.11279297 449.12036133 C-786.22342041 448.6124707 -785.33404785 448.10458008 -784.41772461 447.58129883 C-783.39743164 446.99606445 -782.37713867 446.41083008 -781.32592773 445.80786133 C-780.25407227 445.1968457 -779.1822168 444.58583008 -778.07788086 443.95629883 C-775.75336106 442.62348634 -773.42914997 441.29014639 -771.10522461 439.95629883 C-770.22717667 439.45296021 -770.22717667 439.45296021 -769.33139038 438.93945312 C-763.58303538 435.64244578 -757.86021863 432.30244923 -752.14038086 428.95629883 C-743.82309348 424.09487766 -735.48832155 419.2648862 -727.14038086 414.45629883 C-715.77291737 407.90737587 -704.43474406 401.30949987 -693.1081543 394.69018555 C-687.11929775 391.19126656 -681.12706737 387.69812819 -675.13549805 384.20385742 C-670.15947486 381.30158178 -665.18421951 378.39800803 -660.21069336 375.49145508 C-648.77959579 368.81328755 -637.32749974 362.1730823 -625.85620117 355.56420898 C-615.58501394 349.64347833 -605.34386278 343.67198353 -595.1081543 337.69018555 C-590.12047129 334.77619042 -585.13029381 331.86647315 -580.14038086 328.95629883 C-578.14036905 327.7896524 -576.14036905 326.62298574 -574.14038086 325.45629883 C-570.14038086 323.12296549 -566.14038086 320.78963216 -562.14038086 318.45629883 C-561.15054199 317.87887939 -560.16070313 317.30145996 -559.14086914 316.70654297 C-557.13928875 315.53898155 -555.13766109 314.37150118 -553.13598633 313.20410156 C-548.15977694 310.30178467 -543.18437631 307.39809967 -538.21069336 304.49145508 C-527.93505588 298.48852858 -517.64404533 292.51433332 -507.32788086 286.58129883 C-498.43141197 281.46343769 -489.58385276 276.26982418 -480.76538086 271.01879883 C-471.02988206 265.22266967 -461.23148194 259.55302423 -451.38067627 253.95657349 C-442.74488064 249.0478764 -434.1734525 244.04236714 -425.64038086 238.95629883 C-415.94727391 233.17880086 -406.19103129 227.52987222 -396.38012695 221.95629883 C-387.74451903 217.04768794 -379.17327532 212.04226153 -370.64038086 206.95629883 C-360.94727391 201.17880086 -351.19103129 195.52987222 -341.38012695 189.95629883 C-332.74451712 185.04768686 -324.17333432 180.04216513 -315.64038086 174.95629883 C-306.46280276 169.48735348 -297.23788303 164.11480536 -287.95288086 158.83129883 C-276.28147085 152.18944832 -264.66458453 145.45928113 -253.07592773 138.67407227 C-248.10059527 135.76269176 -243.12020644 132.85998486 -238.14038086 129.95629883 C-236.14035725 128.78967263 -234.14035724 127.62300599 -232.14038086 126.45629883 C-214.14038086 115.95629883 -214.14038086 115.95629883 -196.14038086 105.45629883 C-195.15054199 104.87887939 -194.16070313 104.30145996 -193.14086914 103.70654297 C-191.13928875 102.53898155 -189.13766109 101.37150118 -187.13598633 100.20410156 C-182.15977694 97.30178467 -177.18437631 94.39809967 -172.21069336 91.49145508 C-160.77959579 84.81328755 -149.32749974 78.1730823 -137.85620117 71.56420898 C-127.58501394 65.64347833 -117.34386278 59.67198353 -107.1081543 53.69018555 C-101.11929775 50.19126656 -95.12706737 46.69812819 -89.13549805 43.20385742 C-84.15947486 40.30158178 -79.18421951 37.39800803 -74.21069336 34.49145508 C-66.02542176 29.7096466 -57.83903295 24.93035896 -49.62475586 20.19848633 C-47.9888147 19.25513428 -47.9888147 19.25513428 -46.31982422 18.29272461 C-44.1313614 17.0351063 -41.93949589 15.78338928 -39.74414062 14.5378418 C-34.37935828 11.47975823 -29.1340754 8.33656011 -23.99584961 4.90942383 C-23.01825684 4.27593018 -22.04066406 3.64243652 -21.03344727 2.98974609 C-19.1993324 1.79363237 -17.38808031 0.56139343 -15.60668945 -0.71191406 C-9.22620999 -4.80918886 -6.24602791 -4.0636742 0 0 Z " fill="#FFFFFF" transform="translate(1498.140380859375,696.043701171875)"/>
</svg>
