<?xml version="1.0" encoding="UTF-8"?>
<svg id="Layer_1" xmlns="http://www.w3.org/2000/svg" version="1.1" viewBox="0 0 1024 1024">
  <!-- Generator: Adobe Illustrator 29.6.1, SVG Export Plug-In . SVG Version: 2.1.1 Build 9)  -->
  <path d="M1024,0v1024H0V0h1024ZM439.79,70.29c-26.08,1.55-48.16,10.21-59.65,35.35-2.06,4.5-4,15.16-6.11,17.89-2.41,3.12-12.29,9.47-16.05,12.95-133.66,123.94-147.83,386.64-99.48,551.51,36.23,123.55,133.9,285.11,285.68,258.69,144.73-25.19,221.54-208.82,241.65-337.35,22.66-144.86.18-357.31-109.29-465.37-5.62-5.55-21.04-15.84-24.57-20.43-2.23-2.9-4.76-15.26-7.45-20.55-8.67-17.07-25.44-28.62-44.3-31.7-52.41-.28-108.15-4.08-160.43-.98Z" fill="#fff"/>
  <g>
    <path d="M484.01,650.99c.75,9.15-1.67,20.37,1.5,29,1.04,2.83,3.05,3.62,3.52,7.48,1.1,9.17-2.79,23.71,2.98,31.02,1.76,2.22,6.23,4.35,6.8,6.2,2.24,7.32,1.26,21.36,2.2,29.8,5.19,46.27,23.21,87.03,75.99,88.52-1.69,2.53-6.33,3.33-9.23,4.26-108.21,34.5-203.72-35.17-255.57-124.97-56.41-97.7-65.38-212.44-49.03-322.63,11.27-75.98,38.11-150.9,83.85-212.66,1.75.29,1.11,5.21,1.03,6.54-.84,14.5-.13,25.82,0,39.9.58,63.94-3.35,131.78-.09,195.09,1.53,29.78,9.98,53.41,20.29,80.71,12.43,32.91,26.52,72.28,41.28,103.72,5.07,10.79,11.54,19.7,21.56,26.44,16.05,10.81,34.33,10.34,52.92,11.59Z" fill="#fff"/>
    <path d="M544,651c19.91-.53,39.33-.94,55.48-14.02,9.14-7.4,14.01-16.82,18.7-27.3,9.61-21.48,18.71-45.64,27.31-67.69,14.3-36.66,30.9-73.61,33.55-113.45l-.55-241.54c35.3,43.12,58.08,97.06,72.22,150.78,22.66,86.13,27.46,191.72,5.99,278.42-18.62,75.2-76,197.73-165.17,203.83-61.38,4.2-64.17-44.37-65.48-92.48.8-5.01,5.16-5.56,7.93-9.06,6.2-7.84,1.26-21.78,3.02-30.98.41-2.13,3.16-4.2,4.2-6.8,3.21-8.09,1.44-20.86,2.78-29.72Z" fill="#fff"/>
    <path d="M717.99,761c-4.02,11.35-10.7,23.13-16.82,33.67-46.08,79.41-121.27,144.06-219.36,127.01-80.91-14.06-142.58-91.51-174.82-162.17.64-1.39,1.92,1.31,2.24,1.76,6.92,9.69,13.54,19.65,21.26,28.74,60.07,70.82,146.44,110.67,239.73,84.7,61.35-17.08,111.58-63,147.77-113.72Z" fill="#fff"/>
    <g>
      <path d="M439.79,70.29c52.28-3.1,108.02.7,160.43.98,18.85,3.09,35.63,14.63,44.3,31.7,2.69,5.29,5.22,17.65,7.45,20.55,3.53,4.59,18.95,14.88,24.57,20.43,109.48,108.06,131.95,320.52,109.29,465.37-20.11,128.53-96.92,312.16-241.65,337.35-151.78,26.42-249.45-135.13-285.68-258.69-48.34-164.87-34.18-427.57,99.48-551.51,3.75-3.48,13.63-9.83,16.05-12.95,2.11-2.73,4.05-13.39,6.11-17.89,11.49-25.13,33.57-33.8,59.65-35.35ZM484,639v-28c-11.49,1.62-23.28-5.22-24.04-17.46l.04-279.04c1.07-8.89,7.48-15.67,16.45-16.55,23.58-2.31,50.99,1.78,74.99.11,8.18,2.39,14.06,8.07,15.3,16.7l.26,278.74c-1.49,11.59-11.54,18.83-23,17.5v28c14.52-.87,30.48.73,43.32-7.18,9.44-5.81,14.71-13.97,19.16-23.84,16.89-37.46,35.19-85.47,48.53-124.47,5.27-15.39,9.43-30.72,10.97-47.03l-.27-249.71c-1.46-16.31-13.99-27.07-26.74-35.48,3.52-33.05-9.75-64.95-46.43-67.34-51.7-3.37-107.01,2.65-159.08.01-18.67,1.35-36.97,13.94-43.24,31.76-4.11,11.68-1.1,23.24-2.72,35.28-17.75,11.52-26.29,21.66-27.55,43.45,3.04,77.86-3.87,158.57,0,236.09,1.32,26.33,10.19,49.43,19.29,73.71,12.42,33.13,26.42,73.16,41.28,104.72,3.64,7.74,7.6,14.18,14.55,19.45,14.28,10.81,31.91,9.5,48.91,10.59ZM484.01,650.99c-18.59-1.25-36.86-.77-52.92-11.59-10.02-6.75-16.49-15.66-21.56-26.44-14.77-31.43-28.86-70.81-41.28-103.72-10.31-27.3-18.76-50.93-20.29-80.71-3.26-63.31.67-131.15.09-195.09-.13-14.08-.84-25.41,0-39.9.08-1.33.72-6.25-1.03-6.54-45.74,61.76-72.57,136.68-83.85,212.66-16.35,110.2-7.38,224.94,49.03,322.63,51.85,89.8,147.36,159.46,255.57,124.97,2.9-.92,7.54-1.72,9.23-4.26-52.78-1.49-70.8-42.25-75.99-88.52-.95-8.44.04-22.48-2.2-29.8-.57-1.85-5.04-3.98-6.8-6.2-5.77-7.31-1.88-21.85-2.98-31.02-.46-3.87-2.47-4.65-3.52-7.48-3.18-8.63-.75-19.85-1.5-29ZM544,651c-1.34,8.87.44,21.64-2.78,29.72-1.03,2.6-3.79,4.67-4.2,6.8-1.76,9.2,3.18,23.13-3.02,30.98-2.77,3.51-7.14,4.05-7.93,9.06,1.31,48.12,4.1,96.69,65.48,92.48,89.17-6.11,146.55-128.63,165.17-203.83,21.47-86.7,16.67-192.3-5.99-278.42-14.14-53.72-36.93-107.66-72.22-150.78l.55,241.54c-2.65,39.84-19.25,76.78-33.55,113.45-8.6,22.05-17.71,46.21-27.31,67.69-4.69,10.48-9.55,19.9-18.7,27.3-16.16,13.08-35.58,13.48-55.48,14.02ZM473.74,317.26c-.34-.44-3.34-2.09-3.76-.75l3.06,13.94v251.08s-2.54,12.47-2.54,12.47c4.98.19,4.87-7.02,5.53-10.47v-256.07c-.15-1.91-1.43-9.08-2.29-10.2ZM556,316.01c-3.11-2.78-6.33,8.23-6.04,10.45v258.08c.28,3,1.08,8.72,4.53,9.47,2.63.58.93-.8.72-1.72-.83-3.56-2.47-6.96-2.26-10.75v-251.09s3.04-14.45,3.04-14.45ZM542,361l-.12-5.38-1.38-1.39c-.41-.03-.75.77-1,.77h-53c-1.99,0-1.98,6,0,6h55.5ZM536.69,564.69c5.44-5.76.73-16.25.3-22.18-1.45-20.31,4.64-40.66-8.56-58.44-3.17-4.27-11.44-7.24-11.98-8.02-1.9-2.8,2.08-10.99-3.93-12.04-4.12,1.95-1.65,11.75-2.64,12.88-.22.25-4.43,1.15-6.22,2.28-7.79,4.89-13.92,18.31-14.7,27.3-.96,11.15,2.27,25.22,1.06,35.06-.39,3.15-2.28,5.34-2.79,8.21-1.27,7.18-.1,15.28,6.78,18.97l-.04,102.82c.83,7.42,5.78,8.94,12.49,9.51s22.74,1.72,25.09-5.98l-.61-107.43c.22-.79,4.34-1.44,5.75-2.94ZM526,691c-.73-.27-1.2,1-1.5,1h-23c-.3,0-.77-1.27-1.5-1v20.5c0,5.12,26,5.07,26,0v-20.5ZM717.99,761c-36.2,50.71-86.42,96.63-147.77,113.72-93.29,25.97-179.66-13.88-239.73-84.7-7.71-9.1-14.34-19.05-21.26-28.74-.32-.45-1.6-3.15-2.24-1.76,32.25,70.66,93.92,148.12,174.82,162.17,98.08,17.04,173.27-47.6,219.36-127.01,6.12-10.54,12.79-22.32,16.82-33.67Z"/>
      <path d="M484,639c-17-1.08-34.63.23-48.91-10.59-6.96-5.27-10.91-11.71-14.55-19.45-14.86-31.56-28.86-71.58-41.28-104.72-9.1-24.28-17.97-47.38-19.29-73.71-3.88-77.52,3.03-158.23,0-236.09,1.27-21.79,9.8-31.92,27.55-43.45,1.62-12.04-1.39-23.6,2.72-35.28,6.27-17.82,24.57-30.41,43.24-31.76,52.08,2.64,107.39-3.38,159.08-.01,36.69,2.39,49.95,34.29,46.43,67.34,12.75,8.41,25.28,19.17,26.74,35.48l.27,249.71c-1.54,16.3-5.71,31.63-10.97,47.03-13.34,39-31.64,87.01-48.53,124.47-4.45,9.87-9.72,18.02-19.16,23.84-12.84,7.91-28.8,6.31-43.32,7.18v-28c11.46,1.33,21.51-5.9,23-17.5l-.26-278.74c-1.24-8.63-7.12-14.31-15.3-16.7-24,1.67-51.41-2.42-74.99-.11-8.97.88-15.38,7.66-16.45,16.55l-.04,279.04c.76,12.24,12.55,19.08,24.04,17.46v28ZM437.89,181.9c-50.66,8.12-49.03,80.18,1.62,86.09l112.96.04,33.78,32.22c10.91,4.29,21.39-6.03,14.3-16.3l-177.6-177.4c-11.23-7.71-24.19,4.9-15.96,15.96l36.56,36.52-5.66,22.87ZM584.24,160.75c-1.05-.99-6.17-11.95-8.41-15.08-16.87-23.59-45.5-34.3-74.04-29.37-8.34,1.44-21.85,3.88-20.61,14.94,1.8,16.05,20.27,6.64,29.44,5.9,20.5-1.66,39.65,9.4,50.18,26.57,2.53,4.12,4.89,11.86,8.15,14.85s11.79,4.42,16.72,7.28c13.28,7.69,19.87,24.24,14.52,38.85-2.81,7.68-13.08,15.02-5.22,23.85,8.79,9.88,18.17-.47,22.55-8.51,13.92-25.6,5.27-57.36-19.2-72.84-2.99-1.89-12.93-5.33-14.08-6.43Z" fill="#fff"/>
      <g>
        <g>
          <path d="M556,316.01l-3.04,14.45v251.09c-.21,3.8,1.43,7.19,2.26,10.75.21.91,1.91,2.3-.72,1.72-3.45-.76-4.25-6.47-4.53-9.47v-258.08c-.29-2.22,2.92-13.23,6.04-10.45Z" fill="#fff"/>
          <path d="M473.74,317.26c.86,1.12,2.14,8.29,2.29,10.2v256.07c-.66,3.45-.55,10.66-5.53,10.47l2.53-12.47v-251.08s-3.05-13.94-3.05-13.94c.41-1.34,3.41.31,3.76.75Z" fill="#fff"/>
          <path d="M542,361h-55.5c-1.98,0-1.99-6,0-6h53c.25,0,.6-.81,1-.77l1.38,1.39.12,5.38Z" fill="#fff"/>
        </g>
        <g>
          <path d="M536.69,564.69c-1.41,1.5-5.53,2.15-5.75,2.94l.61,107.43c-2.34,7.7-18.46,6.55-25.09,5.98s-11.66-2.09-12.49-9.51l.04-102.82c-6.88-3.69-8.05-11.79-6.78-18.97.5-2.86,2.4-5.06,2.79-8.21,1.21-9.84-2.02-23.92-1.06-35.06.77-8.99,6.91-22.41,14.7-27.3,1.79-1.13,6-2.03,6.22-2.28.99-1.13-1.48-10.93,2.64-12.88,6.01,1.05,2.03,9.24,3.93,12.04.54.79,8.81,3.75,11.98,8.02,13.2,17.79,7.11,38.13,8.56,58.44.42,5.93,5.13,16.42-.3,22.18Z" fill="#fff"/>
          <path d="M526,691v20.5c0,5.07-26,5.12-26,0v-20.5c.73-.27,1.2,1,1.5,1h23c.3,0,.77-1.27,1.5-1Z" fill="#fff"/>
        </g>
      </g>
      <path d="M437.89,181.9l5.66-22.87-36.56-36.52c-8.23-11.07,4.73-23.67,15.96-15.96l177.6,177.4c7.09,10.27-3.39,20.59-14.3,16.3l-33.78-32.22-112.96-.04c-50.65-5.91-52.28-77.97-1.62-86.09ZM530.99,245.02l-69.49-68c-4.87,6.39-.03,16.42-5.47,22.51-5.42,6.08-17.8.66-26.55,10.45-10.15,11.35-1.63,33.03,12.25,35.79,20.22,4.03,61.18,1.59,82.83.48.8-.04,8.98,1.75,6.44-1.23Z"/>
      <path d="M584.24,160.75c1.15,1.09,11.09,4.54,14.08,6.43,24.47,15.48,33.12,47.24,19.2,72.84-4.38,8.05-13.76,18.4-22.55,8.51-7.86-8.83,2.41-16.17,5.22-23.85,5.35-14.61-1.23-31.17-14.52-38.85-4.93-2.86-13.47-4.29-16.72-7.28s-5.62-10.73-8.15-14.85c-10.52-17.17-29.67-28.23-50.18-26.57-9.17.74-27.64,10.15-29.44-5.9-1.24-11.05,12.27-13.5,20.61-14.94,28.53-4.92,57.16,5.79,74.04,29.37,2.24,3.14,7.37,14.09,8.41,15.08Z"/>
      <path d="M530.99,245.02c2.54,2.99-5.64,1.19-6.44,1.23-21.64,1.11-62.61,3.55-82.83-.48-13.88-2.77-22.39-24.45-12.25-35.79,8.75-9.79,21.13-4.37,26.55-10.45,5.44-6.09.59-16.12,5.47-22.51l69.49,68Z" fill="#fff"/>
    </g>
  </g>
</svg>