<svg width="1025" height="204" viewBox="0 0 1025 204" fill="none" xmlns="http://www.w3.org/2000/svg">
<path d="M634.706 159.176C631.916 159.544 629.104 159.724 626.289 159.713C616.938 159.713 609.914 157.511 605.219 153.107C600.523 148.703 598.149 141.056 598.096 130.166V63.7698H575.752V52.2893H598.096V23.8765H611.088V52.2893H641.948V63.7698H611.088V130.803C611.088 136.473 612.222 140.751 614.491 143.477C616.759 146.203 620.878 147.616 626.827 147.616C629.671 147.637 632.514 147.498 635.342 147.198C637.75 146.919 640.157 146.561 642.585 146.123V157.624C639.967 158.318 637.309 158.849 634.626 159.216" fill="#FCE5DB"/>
<path d="M283.309 71.6292C285.586 69.6109 288.547 68.5379 291.588 68.6291C294.628 68.7204 297.52 69.9692 299.671 72.1204C301.822 74.2716 303.071 77.1629 303.162 80.2037C303.253 83.2446 302.18 86.2056 300.162 88.4819C297.845 90.5556 294.845 91.7022 291.736 91.7022C288.626 91.7022 285.626 90.5556 283.309 88.4819C281.236 86.1651 280.089 83.1649 280.089 80.0555C280.089 76.9462 281.236 73.946 283.309 71.6292V71.6292ZM350.182 174.835C349.864 165.801 347.218 156.251 340.433 149.963C332.852 142.92 321.889 139.697 311.702 139.697H266.198C264.09 139.78 262.031 139.043 260.454 137.641C258.877 136.238 257.905 134.28 257.742 132.176C257.744 130.513 258.295 128.898 259.31 127.581C260.324 126.264 261.746 125.319 263.353 124.893C263.353 124.893 264.129 124.694 264.965 124.436C273.254 128.268 282.296 130.199 291.427 130.086C305.355 130.086 319.462 125.988 329.729 116.377C334.512 111.742 338.286 106.168 340.812 100.004C343.339 93.8413 344.565 87.2223 344.412 80.5629C344.566 73.9034 343.341 67.2841 340.814 61.1207C338.287 54.9574 334.513 49.3832 329.729 44.7484C326.817 42.0273 323.567 39.6933 320.059 37.8044C329.689 40.0328 339.657 37.2672 346.501 25.4484L327.202 11.5205L311.105 33.9444C304.741 31.934 298.102 30.9271 291.427 30.9598C277.5 30.9598 263.373 35.0785 253.106 44.6887C248.322 49.3235 244.548 54.8977 242.021 61.061C239.494 67.2244 238.269 73.8437 238.422 80.5032C238.269 87.1627 239.494 93.7821 242.021 99.9454C244.548 106.109 248.322 111.683 253.106 116.318C253.962 117.134 254.877 117.89 255.792 118.646L253.803 119.641C249.088 122.362 244.809 125.776 241.109 129.768C233.114 137.853 228.564 148.722 228.414 160.091C228.414 160.091 227.638 188.862 260.647 188.862H284.523C290.035 188.862 295.626 192.364 295.626 197.855C295.628 199.775 295.075 201.655 294.034 203.267H339.796C346.68 195.415 350.384 185.275 350.182 174.835" fill="#FCE5DB"/>
<path d="M399.268 71.6292C401.253 69.4722 403.93 68.0767 406.835 67.6839C409.74 67.2912 412.691 67.9258 415.178 69.4781C417.665 71.0304 419.531 73.4028 420.455 76.1852C421.378 78.9677 421.3 81.9853 420.234 84.7164C419.169 87.4474 417.182 89.7204 414.619 91.1422C412.055 92.5641 409.075 93.0456 406.194 92.5034C403.313 91.9611 400.712 90.4294 398.84 88.1728C396.969 85.9162 395.945 83.0767 395.945 80.1451C395.901 78.5755 396.173 77.0132 396.743 75.5504C397.314 74.0877 398.172 72.7543 399.268 71.6292V71.6292ZM480.188 174.755C479.869 165.722 477.223 156.171 470.438 149.884C462.858 142.84 451.895 139.617 441.707 139.617L388.981 139.279C388.251 139.347 387.515 139.265 386.819 139.039C386.122 138.812 385.479 138.445 384.929 137.96C384.379 137.476 383.934 136.884 383.622 136.221C383.309 135.558 383.135 134.838 383.112 134.106C383.112 131.559 384.385 127.778 387.568 127.142C393.873 129.107 400.444 130.086 407.047 130.047C420.975 130.047 435.082 125.948 445.368 116.338C450.152 111.702 453.926 106.128 456.452 99.9646C458.979 93.8015 460.205 87.1825 460.052 80.5231C460.206 73.8636 458.981 67.2443 456.454 61.0809C453.927 54.9176 450.153 49.3434 445.368 44.7086C442.467 42.0053 439.23 39.6849 435.738 37.8044C445.388 40.0328 455.337 37.2672 462.201 25.4484L442.881 11.5205L426.785 33.9444C420.42 31.934 413.781 30.9271 407.107 30.9598C393.179 30.9598 379.053 35.0785 368.786 44.6887C364.001 49.3235 360.227 54.8977 357.7 61.061C355.173 67.2244 353.948 73.8437 354.102 80.5032C353.948 87.1627 355.173 93.7821 357.7 99.9454C360.227 106.109 364.001 111.683 368.786 116.318C371.725 119.046 375.001 121.387 378.535 123.282C375.969 125.245 373.567 127.415 371.353 129.768C363.358 137.853 358.808 148.722 358.658 160.091C358.658 160.091 357.783 188.802 390.772 188.802H414.648C420.159 188.802 425.75 192.304 425.75 197.796C425.753 199.716 425.2 201.595 424.158 203.208H469.921C476.812 195.358 480.523 185.218 480.327 174.775" fill="#FCE5DB"/>
<path d="M535.461 160.091V117.233C525.632 118.486 522.21 111.542 522.21 104.658V0H473.403V112.477C473.403 126.405 475.393 138.085 480.506 145.427C488.246 156.569 498.712 163.891 519.543 163.971C525.069 163.773 530.492 162.417 535.461 159.991" fill="#FCE5DB"/>
<path d="M175.628 107.981C173.087 110.802 169.638 112.644 165.88 113.188C162.122 113.732 158.293 112.944 155.055 110.959C151.818 108.975 149.378 105.92 148.158 102.324C146.938 98.7282 147.015 94.8188 148.375 91.2739C149.736 87.7291 152.295 84.7725 155.608 82.9171C158.921 81.0617 162.779 80.4246 166.512 81.1163C170.246 81.808 173.619 83.7849 176.048 86.7039C178.476 89.6229 179.806 93.3 179.807 97.0971C179.862 99.097 179.521 101.088 178.804 102.956C178.087 104.824 177.008 106.531 175.628 107.981V107.981ZM212 49.7423C199.405 36.8889 182.155 31.3774 165.024 31.3774C147.892 31.3774 130.622 36.869 118.027 49.7423C105.771 62.2575 100.12 79.7668 100.12 97.6741C100.12 115.581 105.871 133.111 118.027 145.626C130.622 158.479 147.873 163.991 165.024 163.991C182.175 163.991 199.405 158.479 212 145.626C224.276 133.111 229.907 115.601 229.907 97.6741C229.907 79.7469 224.177 62.2575 212 49.7423" fill="#FCE5DB"/>
<path d="M82.4322 117.392C74.3143 117.392 70.9915 114.905 67.9871 111.085C65.8409 107.878 64.8192 104.05 65.0822 100.201V78.0358H92.3208V38.2419H65.0822V0H30.2629V14.3059C30.2629 30.2235 18.1856 42.9973 3.28296 42.9973C2.18507 42.9951 1.08847 42.922 0 42.7784L0 78.0358H18.2851V113.413C18.2851 127.34 20.7921 138.105 25.826 145.427C33.6056 156.609 42.201 163.931 63.2318 163.931C73.3165 164.196 83.31 161.961 92.3208 157.425V115.76C89.1323 116.909 85.7613 117.469 82.3725 117.412" fill="#FCE5DB"/>
<path d="M686.437 55.2739C692.366 50.7963 699.644 48.4733 707.07 48.688C710.569 48.7413 714.057 49.0941 717.496 49.7425V63.3719C715.674 62.9621 713.826 62.6763 711.965 62.5163C710.274 62.3771 708.562 62.2975 706.871 62.2975C701.424 62.1098 696.024 63.3587 691.213 65.9187C687.078 68.2862 683.603 71.6517 681.105 75.708C678.406 80.2247 676.571 85.204 675.693 90.392C674.599 96.3578 674.066 102.413 674.101 108.478V157.644H661.109V51.2348H673.664V75.6085C676.509 66.5156 680.767 59.691 686.437 55.3733" fill="#FCE5DB"/>
<path d="M760.851 107.623C752.773 108.472 747.029 110.78 743.62 114.547C740.298 118.092 738.467 122.78 738.507 127.639C738.387 130.363 738.868 133.081 739.917 135.598C740.966 138.115 742.556 140.371 744.576 142.204C748.555 145.825 754.477 147.635 762.343 147.635C767.807 147.743 773.232 146.692 778.261 144.551C782.631 142.645 786.585 139.9 789.9 136.473C793.056 133.198 795.52 129.321 797.143 125.072C798.755 120.937 799.585 116.538 799.59 112.099V103.464L760.851 107.623ZM733.195 64.2274C735.307 60.978 738.055 58.1896 741.273 56.0299C745.045 53.517 749.226 51.679 753.629 50.598C759.264 49.2029 765.054 48.5343 770.859 48.6083C785.039 48.6083 795.538 51.8714 802.356 58.3976C809.174 64.9238 812.576 74.7131 812.563 87.7655V157.644H799.59V134.862C796.676 142.533 791.33 149.039 784.369 153.386C777.227 157.716 769.003 159.931 760.652 159.773C755.402 159.866 750.176 159.037 745.212 157.325C741.069 155.883 737.269 153.6 734.05 150.62C731.052 147.753 728.722 144.262 727.226 140.393C725.654 136.326 724.865 131.999 724.898 127.639C724.898 117.704 728.121 110.11 734.567 104.857C741.59 99.4002 750.071 96.1461 758.941 95.5054L794.258 92.1031C797.819 91.6653 799.59 90.1134 799.59 87.6262V83.806C799.755 80.6466 799.252 77.4879 798.114 74.536C796.976 71.5842 795.228 68.9055 792.984 66.6747C788.58 62.4831 781.418 60.3873 771.496 60.3873C753.469 60.3873 743.043 67.0594 740.218 80.4036L728.718 74.2157C729.71 70.6963 731.218 67.3436 733.195 64.2672" fill="#FCE5DB"/>
<path d="M831.683 82.3137C834.184 75.6838 838.017 69.6367 842.945 64.5457C847.942 59.4367 853.963 55.4428 860.613 52.8264C867.879 49.9988 875.619 48.5938 883.415 48.6878C890.498 48.5895 897.536 49.8178 904.167 52.3091C910.235 54.6603 915.77 58.2057 920.443 62.7351L912.146 72.9422C908.153 69.3299 903.578 66.4173 898.616 64.3268C893.572 62.2367 888.158 61.1877 882.699 61.2428C876.948 61.1789 871.239 62.2261 865.886 64.3268C860.947 66.2687 856.458 69.2006 852.694 72.9422C848.879 76.8153 845.941 81.4635 844.079 86.5716C841.947 92.2978 840.895 98.3693 840.975 104.479C840.893 110.543 841.946 116.57 844.079 122.247C845.975 127.332 848.909 131.967 852.694 135.856C856.431 139.66 860.925 142.636 865.886 144.591C871.167 146.677 876.802 147.724 882.48 147.675C888.218 147.722 893.905 146.599 899.193 144.372C904.296 142.226 909.004 139.24 913.121 135.538L921.079 145.765C916.276 150.185 910.725 153.716 904.685 156.191C897.728 158.966 890.286 160.319 882.798 160.17C875.008 160.281 867.27 158.875 860.016 156.032C853.478 153.425 847.54 149.512 842.567 144.531C837.687 139.524 833.918 133.545 831.504 126.982C828.908 119.829 827.621 112.267 827.704 104.658C827.633 97.0275 828.983 89.4505 831.683 82.3137" fill="#FCE5DB"/>
<path d="M936.678 17.5093V157.643H949.671V125.928L969.031 106.568L1007.97 157.643H1025L977.765 97.6343L1023.93 51.2346H1005.64L949.671 109.334V17.5093H936.678Z" fill="#FCE5DB"/>
</svg>
